<svg xmlns="http://www.w3.org/2000/svg" width="70" height="70" viewBox="0 0 70 70" style="width: 100%; height: 100%;"><desc>Made with illustrio</desc>
  
<defs fill="none" stroke="none"><mask id="maskSivv5e5t13yv2"><rect x="35" y="0" width="35" height="70" rx="0" ry="0" fill="#ffffff"></rect></mask></defs><g class="content"><g class="base"><g fill="none" fill-rule="evenodd" stroke="none" class="main-fill">
    
    
  </g><g fill="none" transform="translate(19.09 19.09)" stroke="none" class="main-fill">
      <path d="M1.90909091 15.2727273L.636363636 15.2727273C.285090909 15.2727273 0 15.5578182 0 15.9090909 0 16.2603636.285090909 16.5454545.636363636 16.5454545L1.90909091 16.5454545C2.26036364 16.5454545 2.54545455 16.2603636 2.54545455 15.9090909 2.54545455 15.5578182 2.26036364 15.2727273 1.90909091 15.2727273L1.90909091 15.2727273zM31.1818182 15.2727273L29.9090909 15.2727273C29.5571818 15.2727273 29.2727273 15.5578182 29.2727273 15.9090909 29.2727273 16.2603636 29.5571818 16.5454545 29.9090909 16.5454545L31.1818182 16.5454545C31.5337273 16.5454545 31.8181818 16.2603636 31.8181818 15.9090909 31.8181818 15.5578182 31.5337273 15.2727273 31.1818182 15.2727273L31.1818182 15.2727273zM15.9090909 2.54545455C16.2603636 2.54545455 16.5454545 2.26036364 16.5454545 1.90909091L16.5454545.636363636C16.5454545.285090909 16.2603636 0 15.9090909 0 15.5578182 0 15.2727273.285090909 15.2727273.636363636L15.2727273 1.90909091C15.2727273 2.26036364 15.5578182 2.54545455 15.9090909 2.54545455L15.9090909 2.54545455zM6.00981818 6.64618182C6.17272727 6.64618182 6.33563636 6.58381818 6.45972727 6.45972727 6.70854545 6.21090909 6.70854545 5.80872727 6.45972727 5.55990909L5.55927273 4.65945455C5.31045455 4.41063636 4.90827273 4.41063636 4.65945455 4.65945455 4.41063636 4.90827273 4.41063636 5.31045455 4.65945455 5.55927273L5.55990909 6.45972727C5.684 6.58381818 5.84690909 6.64618182 6.00981818 6.64618182L6.00981818 6.64618182zM26.2589091 4.65945455L25.3590909 5.55990909C25.1102727 5.80872727 25.1102727 6.21154545 25.3590909 6.45972727 25.4831818 6.58381818 25.6460909 6.64618182 25.809 6.64618182 25.9719091 6.64618182 26.1348182 6.58381818 26.2589091 6.45972727L27.1587273 5.55927273C27.4075455 5.31045455 27.4075455 4.90763636 27.1587273 4.65945455 26.9099091 4.41127273 26.5070909 4.41127273 26.2589091 4.65945455L26.2589091 4.65945455zM15.9090909 5.09090909C9.94381818 5.09090909 5.09090909 9.94381818 5.09090909 15.9090909 5.09090909 20.6722727 8.20654545 24.8512727 12.7272727 26.2385455L12.7272727 28.6363636C12.7272727 28.9882727 13.0123636 29.2727273 13.3636364 29.2727273L18.4545455 29.2727273C18.8064545 29.2727273 19.0909091 28.9882727 19.0909091 28.6363636L19.0909091 26.2385455C23.6116364 24.8512727 26.7272727 20.6722727 26.7272727 15.9090909 26.7272727 9.94381818 21.8743636 5.09090909 15.9090909 5.09090909L15.9090909 5.09090909zM19.7272727 16.5454545L18.718 16.5454545 17.6317273 17.6317273C17.5127273 17.7513636 17.3510909 17.8181818 17.1818182 17.8181818L14.6363636 17.8181818C14.4677273 17.8181818 14.3054545 17.7513636 14.1864545 17.6317273L13.1001818 16.5454545 12.0909091 16.5454545C11.7396364 16.5454545 11.4545455 16.2603636 11.4545455 15.9090909 11.4545455 15.5578182 11.7396364 15.2727273 12.0909091 15.2727273L13.3636364 15.2727273C13.5322727 15.2727273 13.6945455 15.3395455 13.8135455 15.4591818L14.8998182 16.5454545 16.9183636 16.5454545 18.0046364 15.4591818C18.1236364 15.3395455 18.2852727 15.2727273 18.4545455 15.2727273L19.7272727 15.2727273C20.0791818 15.2727273 20.3636364 15.5578182 20.3636364 15.9090909 20.3636364 16.2603636 20.0791818 16.5454545 19.7272727 16.5454545L19.7272727 16.5454545zM17.1818182 30.5454545L14.6363636 30.5454545C14.2850909 30.5454545 14 30.8299091 14 31.1818182 14 31.5337273 14.2850909 31.8181818 14.6363636 31.8181818L17.1818182 31.8181818C17.5337273 31.8181818 17.8181818 31.5337273 17.8181818 31.1818182 17.8181818 30.8299091 17.5337273 30.5454545 17.1818182 30.5454545L17.1818182 30.5454545z" fill="none" stroke="none" class="main-fill"></path>
    </g></g><g class="masked" mask="url('#maskSivv5e5t13yv2')"><g fill="none" fill-rule="evenodd" stroke="none" class="main-fill--darken">
    
    
  </g><g fill="none" transform="translate(19.09 19.09)" stroke="none" class="main-fill--darken">
      <path d="M1.90909091 15.2727273L.636363636 15.2727273C.285090909 15.2727273 0 15.5578182 0 15.9090909 0 16.2603636.285090909 16.5454545.636363636 16.5454545L1.90909091 16.5454545C2.26036364 16.5454545 2.54545455 16.2603636 2.54545455 15.9090909 2.54545455 15.5578182 2.26036364 15.2727273 1.90909091 15.2727273L1.90909091 15.2727273zM31.1818182 15.2727273L29.9090909 15.2727273C29.5571818 15.2727273 29.2727273 15.5578182 29.2727273 15.9090909 29.2727273 16.2603636 29.5571818 16.5454545 29.9090909 16.5454545L31.1818182 16.5454545C31.5337273 16.5454545 31.8181818 16.2603636 31.8181818 15.9090909 31.8181818 15.5578182 31.5337273 15.2727273 31.1818182 15.2727273L31.1818182 15.2727273zM15.9090909 2.54545455C16.2603636 2.54545455 16.5454545 2.26036364 16.5454545 1.90909091L16.5454545.636363636C16.5454545.285090909 16.2603636 0 15.9090909 0 15.5578182 0 15.2727273.285090909 15.2727273.636363636L15.2727273 1.90909091C15.2727273 2.26036364 15.5578182 2.54545455 15.9090909 2.54545455L15.9090909 2.54545455zM6.00981818 6.64618182C6.17272727 6.64618182 6.33563636 6.58381818 6.45972727 6.45972727 6.70854545 6.21090909 6.70854545 5.80872727 6.45972727 5.55990909L5.55927273 4.65945455C5.31045455 4.41063636 4.90827273 4.41063636 4.65945455 4.65945455 4.41063636 4.90827273 4.41063636 5.31045455 4.65945455 5.55927273L5.55990909 6.45972727C5.684 6.58381818 5.84690909 6.64618182 6.00981818 6.64618182L6.00981818 6.64618182zM26.2589091 4.65945455L25.3590909 5.55990909C25.1102727 5.80872727 25.1102727 6.21154545 25.3590909 6.45972727 25.4831818 6.58381818 25.6460909 6.64618182 25.809 6.64618182 25.9719091 6.64618182 26.1348182 6.58381818 26.2589091 6.45972727L27.1587273 5.55927273C27.4075455 5.31045455 27.4075455 4.90763636 27.1587273 4.65945455 26.9099091 4.41127273 26.5070909 4.41127273 26.2589091 4.65945455L26.2589091 4.65945455zM15.9090909 5.09090909C9.94381818 5.09090909 5.09090909 9.94381818 5.09090909 15.9090909 5.09090909 20.6722727 8.20654545 24.8512727 12.7272727 26.2385455L12.7272727 28.6363636C12.7272727 28.9882727 13.0123636 29.2727273 13.3636364 29.2727273L18.4545455 29.2727273C18.8064545 29.2727273 19.0909091 28.9882727 19.0909091 28.6363636L19.0909091 26.2385455C23.6116364 24.8512727 26.7272727 20.6722727 26.7272727 15.9090909 26.7272727 9.94381818 21.8743636 5.09090909 15.9090909 5.09090909L15.9090909 5.09090909zM19.7272727 16.5454545L18.718 16.5454545 17.6317273 17.6317273C17.5127273 17.7513636 17.3510909 17.8181818 17.1818182 17.8181818L14.6363636 17.8181818C14.4677273 17.8181818 14.3054545 17.7513636 14.1864545 17.6317273L13.1001818 16.5454545 12.0909091 16.5454545C11.7396364 16.5454545 11.4545455 16.2603636 11.4545455 15.9090909 11.4545455 15.5578182 11.7396364 15.2727273 12.0909091 15.2727273L13.3636364 15.2727273C13.5322727 15.2727273 13.6945455 15.3395455 13.8135455 15.4591818L14.8998182 16.5454545 16.9183636 16.5454545 18.0046364 15.4591818C18.1236364 15.3395455 18.2852727 15.2727273 18.4545455 15.2727273L19.7272727 15.2727273C20.0791818 15.2727273 20.3636364 15.5578182 20.3636364 15.9090909 20.3636364 16.2603636 20.0791818 16.5454545 19.7272727 16.5454545L19.7272727 16.5454545zM17.1818182 30.5454545L14.6363636 30.5454545C14.2850909 30.5454545 14 30.8299091 14 31.1818182 14 31.5337273 14.2850909 31.8181818 14.6363636 31.8181818L17.1818182 31.8181818C17.5337273 31.8181818 17.8181818 31.5337273 17.8181818 31.1818182 17.8181818 30.8299091 17.5337273 30.5454545 17.1818182 30.5454545L17.1818182 30.5454545z" fill="none" stroke="none" class="main-fill--darken"></path>
    </g></g></g><style>
          .main-fill {fill: #3fadb4;}
          .main-stroke {stroke: #3fadb4;}
          .secondary-fill {fill: #fff;}
          .secondary-stroke {stroke: #fff;}

          .main-fill--darken {fill: #2b777b;}
          .main-stroke--darken {stroke: #2b777b;}
          .secondary-fill--darken {fill: #d9d9d9;}
          .secondary-stroke--darken {stroke: #d9d9d9;}

          .main-fill--darkener {fill: #1e5256;}
          .main-stroke--darkener {stroke: #1e5256;}
          .secondary-fill--darkener {fill: #bfbfbf;}
          .secondary-stroke--darkener {stroke: #bfbfbf;}
        </style></svg>