<?xml version="1.0" standalone="no"?><svg xmlns="http://www.w3.org/2000/svg" xmlns:xlink="http://www.w3.org/1999/xlink" style="isolation:isolate" viewBox="0 0 67.957 100.72" width="67.957" height="100.72"><defs><clipPath id="_clipPath_A6nKlCDuxThR8Amc86TZxMAU74dD9o2i"><rect width="67.957" height="100.72"/></clipPath></defs><g clip-path="url(#_clipPath_A6nKlCDuxThR8Amc86TZxMAU74dD9o2i)"><clipPath id="_clipPath_Q5nYKqFr7yVKu7pu2rlyHg9P8f7tKd0v"><rect x="0" y="0" width="67.957" height="100.72" transform="matrix(1,0,0,1,0,0)" fill="rgb(255,255,255)"/></clipPath><g clip-path="url(#_clipPath_Q5nYKqFr7yVKu7pu2rlyHg9P8f7tKd0v)"><g><path d=" M 37.821 85.062 L 32.822 85.001 L 33.056 65.753 L 28.057 65.692 L 27.822 84.941 L 22.822 84.88 L 30.13 100.72 L 37.821 85.062 L 37.821 85.062 Z " fill="rgb(63,173,180)"/><circle vector-effect="non-scaling-stroke" cx="32.16639797472497" cy="34.658161232451974" r="31.033778358470066" fill="rgb(255,188,0)"/><path d=" M 10.307 12.685 C 22.426 0.566 42.02 0.566 54.139 12.685 C 66.258 24.804 66.258 44.399 54.139 56.518" fill="rgb(255,170,0)"/><path d=" M 9.741 49.156 C 9.741 48.929 9.514 48.589 9.401 48.589 L 0.34 48.589 C 0.227 48.589 0 48.929 0 49.156 L 0 49.156 C 0 49.382 0.227 49.722 0.34 49.722 L 9.287 49.722 C 9.514 49.722 9.741 49.382 9.741 49.156 L 9.741 49.156 L 9.741 49.156 Z " fill="rgb(12,150,134)"/><g><path d=" M 9.741 59.349 C 9.741 59.123 9.514 58.783 9.401 58.783 L 0.34 58.783 C 0.227 58.783 0 59.123 0 59.349 L 0 59.349 C 0 59.576 0.227 59.916 0.34 59.916 L 9.287 59.916 C 9.514 59.916 9.741 59.576 9.741 59.349 L 9.741 59.349 L 9.741 59.349 Z " fill="rgb(23,204,174)"/><path d=" M 14.611 69.996 C 11.779 70.109 9.287 67.844 9.287 64.899 C 9.174 62.521 11.1 60.595 13.478 60.482 C 15.404 60.482 16.989 61.954 17.103 63.88 C 17.103 65.465 15.857 66.825 14.271 66.825 C 12.912 66.825 11.779 65.805 11.779 64.446 C 11.779 64.22 12.006 63.993 12.232 63.993 C 12.459 63.993 12.685 64.22 12.685 64.446 C 12.685 65.239 13.365 65.918 14.158 65.805 C 15.177 65.805 16.083 64.899 16.083 63.766 C 16.083 62.407 14.837 61.275 13.478 61.275 C 11.666 61.275 10.194 62.86 10.307 64.673 C 10.42 67.051 12.346 68.863 14.724 68.75 C 17.669 68.637 20.047 66.145 20.047 63.2 C 19.934 59.349 17.103 56.178 13.252 56.291 C 13.025 56.291 12.459 56.291 12.459 56.065 C 12.459 55.838 13.025 55.159 13.252 55.159 C 17.556 55.045 20.84 58.896 21.067 63.2 C 20.953 66.938 18.122 69.883 14.611 69.996 Z " fill="rgb(23,204,174)"/><path d=" M 13.591 56.065 C 13.591 56.291 13.365 56.518 13.138 56.518 L 1.586 56.518 C 1.359 56.518 1.133 56.291 1.133 56.065 L 1.133 55.951 C 1.133 55.612 1.359 55.385 1.586 55.385 L 13.025 55.385 C 13.252 55.385 13.478 55.612 13.478 55.838 L 13.478 56.065 L 13.591 56.065 L 13.591 56.065 Z " fill="rgb(23,204,174)"/></g><g><path d=" M 14.611 38.622 C 11.779 38.509 9.287 40.774 9.287 43.719 C 9.174 46.098 11.1 48.023 13.478 48.136 C 15.404 48.136 16.989 46.664 17.103 44.738 C 17.103 43.153 15.857 41.794 14.271 41.794 C 12.912 41.794 11.779 42.813 11.779 44.172 C 11.779 44.399 12.006 44.625 12.232 44.625 C 12.459 44.625 12.685 44.399 12.685 44.172 C 12.685 43.379 13.365 42.7 14.158 42.813 C 15.177 42.813 16.083 43.719 16.083 44.852 C 16.083 46.211 14.837 47.344 13.478 47.344 C 11.666 47.344 10.194 45.758 10.307 43.946 C 10.42 41.567 12.346 39.755 14.724 39.868 C 17.669 39.981 20.047 42.473 20.047 45.418 C 19.934 49.269 16.989 52.327 13.138 52.214 C 12.912 52.214 12.459 52.327 12.459 52.554 C 12.459 52.78 12.912 53.346 13.138 53.346 C 17.442 53.46 20.84 49.722 21.067 45.418 C 20.953 41.68 18.122 38.736 14.611 38.622 Z " fill="rgb(12,150,134)"/><path d=" M 13.478 52.554 C 13.478 52.327 13.252 51.987 13.025 51.987 L 1.472 51.987 C 1.246 51.987 1.019 52.327 1.019 52.554 L 1.019 52.554 C 1.019 52.78 1.246 53.12 1.472 53.12 L 13.025 53.12 C 13.252 53.12 13.478 52.78 13.478 52.554 L 13.478 52.554 L 13.478 52.554 Z " fill="rgb(12,150,134)"/><circle vector-effect="non-scaling-stroke" cx="7.2487657160993795" cy="46.32414360808124" r="0.4530478592477385" fill="rgb(12,150,134)"/></g><circle vector-effect="non-scaling-stroke" cx="7.2487657160993795" cy="62.18081868175208" r="0.4530478592477385" fill="rgb(23,204,174)"/><g><circle vector-effect="non-scaling-stroke" cx="17.895390408421232" cy="54.252481144916665" r="0.4530478592477394" fill="rgb(12,150,134)"/><path d=" M 28.202 49.156 C 28.202 48.929 27.976 48.589 27.862 48.589 L 18.915 48.589 C 18.688 48.589 18.575 48.929 18.575 49.156 L 18.575 49.156 C 18.575 49.382 18.801 49.722 18.915 49.722 L 27.862 49.722 C 27.976 49.722 28.202 49.382 28.202 49.156 L 28.202 49.156 L 28.202 49.156 Z " fill="rgb(12,150,134)"/></g><g><path d=" M 28.315 59.123 C 28.315 58.896 28.089 58.783 27.976 58.783 L 18.575 58.783 C 18.348 58.783 18.235 59.009 18.235 59.123 L 18.235 59.463 C 18.235 59.689 18.462 59.802 18.575 59.802 L 27.976 59.802 C 28.202 59.802 28.315 59.576 28.315 59.463 L 28.315 59.123 L 28.315 59.123 Z " fill="rgb(23,204,174)"/><path d=" M 33.072 69.996 C 30.241 70.109 27.749 67.844 27.749 64.899 C 27.636 62.521 29.561 60.595 31.94 60.482 C 33.865 60.482 35.564 61.954 35.564 63.88 C 35.564 65.465 34.318 66.825 32.733 66.825 C 31.374 66.825 30.241 65.805 30.241 64.446 C 30.241 64.22 30.467 63.993 30.694 63.993 C 30.921 63.993 31.147 64.22 31.147 64.446 C 31.147 65.239 31.827 65.918 32.619 65.805 C 33.639 65.805 34.545 64.899 34.545 63.766 C 34.545 62.407 33.299 61.275 31.94 61.275 C 30.128 61.275 28.655 62.86 28.769 64.673 C 28.882 67.051 30.807 68.863 33.186 68.75 C 36.131 68.637 38.509 66.145 38.509 63.2 C 38.396 59.349 35.224 56.178 31.374 56.291 C 31.147 56.291 30.921 56.291 30.921 56.065 C 30.921 55.838 31.147 55.159 31.374 55.159 C 35.678 55.045 39.302 58.896 39.528 63.2 C 39.415 66.938 36.584 69.883 33.072 69.996 Z " fill="rgb(23,204,174)"/><path d=" M 31.713 56.065 C 31.713 56.291 31.487 56.518 31.26 56.518 L 19.708 56.518 C 19.481 56.518 19.255 56.291 19.255 56.065 L 19.255 55.951 C 19.255 55.725 19.481 55.498 19.708 55.498 L 31.147 55.498 C 31.374 55.498 31.6 55.725 31.6 55.951 L 31.6 56.065 L 31.713 56.065 L 31.713 56.065 Z " fill="rgb(23,204,174)"/></g><g><path d=" M 33.072 38.622 C 30.241 38.509 27.749 40.774 27.749 43.719 C 27.636 46.098 29.561 48.023 31.94 48.136 C 33.865 48.136 35.564 46.664 35.564 44.738 C 35.564 43.153 34.318 41.794 32.733 41.794 C 31.374 41.794 30.241 42.813 30.241 44.172 C 30.241 44.399 30.467 44.625 30.694 44.625 C 30.921 44.625 31.147 44.399 31.147 44.172 C 31.147 43.379 31.827 42.7 32.619 42.813 C 33.639 42.813 34.545 43.719 34.545 44.852 C 34.545 46.211 33.299 47.344 31.94 47.344 C 30.128 47.344 28.655 45.758 28.769 43.946 C 28.882 41.567 30.807 39.755 33.186 39.868 C 36.131 39.981 38.509 42.473 38.509 45.418 C 38.396 49.269 35.451 52.327 31.6 52.214 C 31.374 52.214 30.921 52.327 30.921 52.554 C 30.921 52.78 31.374 53.346 31.6 53.346 C 35.904 53.46 39.302 49.722 39.528 45.418 C 39.415 41.68 36.584 38.736 33.072 38.622 Z " fill="rgb(12,150,134)"/><path d=" M 31.94 52.554 C 31.94 52.327 31.713 51.987 31.487 51.987 L 19.934 51.987 C 19.708 51.987 19.481 52.327 19.481 52.554 L 19.481 52.554 C 19.481 52.78 19.708 53.12 19.934 53.12 L 31.487 53.12 C 31.713 53.12 31.94 52.78 31.94 52.554 L 31.94 52.554 L 31.94 52.554 Z " fill="rgb(12,150,134)"/><circle vector-effect="non-scaling-stroke" cx="25.710465980444717" cy="46.32414360808124" r="0.4530478592477394" fill="rgb(12,150,134)"/></g><circle vector-effect="non-scaling-stroke" cx="25.710465980444717" cy="62.18081868175208" r="0.4530478592477394" fill="rgb(23,204,174)"/><g><circle vector-effect="non-scaling-stroke" cx="36.35709067276657" cy="54.252481144916665" r="0.4530478592477394" fill="rgb(12,150,134)"/><path d=" M 46.664 49.156 C 46.664 48.929 46.437 48.589 46.324 48.589 L 37.376 48.589 C 37.15 48.589 37.037 48.929 37.037 49.156 L 37.037 49.156 C 37.037 49.382 37.263 49.722 37.376 49.722 L 46.324 49.722 C 46.437 49.722 46.664 49.382 46.664 49.156 L 46.664 49.156 L 46.664 49.156 Z " fill="rgb(12,150,134)"/></g><g><path d=" M 46.664 59.349 C 46.664 59.123 46.437 58.783 46.324 58.783 L 37.376 58.783 C 37.15 58.783 37.037 59.123 37.037 59.349 L 37.037 59.349 C 37.037 59.576 37.263 59.916 37.376 59.916 L 46.324 59.916 C 46.437 59.916 46.664 59.576 46.664 59.349 L 46.664 59.349 L 46.664 59.349 Z " fill="rgb(23,204,174)"/><path d=" M 51.534 69.996 C 48.703 70.109 46.211 67.844 46.211 64.899 C 46.098 62.521 48.023 60.595 50.402 60.482 C 52.327 60.482 54.026 61.954 54.026 63.88 C 54.026 65.465 52.78 66.825 51.194 66.825 C 49.835 66.825 48.703 65.805 48.703 64.446 C 48.703 64.22 48.929 63.993 49.156 63.993 C 49.382 63.993 49.609 64.22 49.609 64.446 C 49.609 65.239 50.288 65.918 51.081 65.805 C 52.101 65.805 53.007 64.899 53.007 63.766 C 53.007 62.407 51.761 61.275 50.402 61.275 C 48.589 61.275 47.117 62.86 47.23 64.673 C 47.344 67.051 49.269 68.863 51.647 68.75 C 54.592 68.637 56.971 66.145 56.971 63.2 C 56.858 59.349 53.346 56.178 49.495 56.291 C 49.269 56.291 49.042 56.178 49.042 55.951 C 49.042 55.725 49.269 55.159 49.495 55.159 C 53.799 55.045 57.764 58.896 57.877 63.2 C 57.877 66.938 55.045 69.883 51.534 69.996 Z " fill="rgb(23,204,174)"/><path d=" M 49.835 56.065 C 49.835 56.291 49.609 56.518 49.382 56.518 L 37.829 56.518 C 37.603 56.518 37.376 56.291 37.376 56.065 L 37.376 55.951 C 37.376 55.725 37.603 55.498 37.829 55.498 L 49.269 55.498 C 49.495 55.498 49.722 55.725 49.722 55.951 L 49.722 56.065 L 49.835 56.065 L 49.835 56.065 Z " fill="rgb(23,204,174)"/></g><g><path d=" M 51.534 38.622 C 48.703 38.509 46.211 40.774 46.211 43.719 C 46.098 46.098 48.023 48.023 50.402 48.136 C 52.327 48.136 54.026 46.664 54.026 44.738 C 54.026 43.153 52.78 41.794 51.194 41.794 C 49.835 41.794 48.703 42.813 48.703 44.172 C 48.703 44.399 48.929 44.625 49.156 44.625 C 49.382 44.625 49.609 44.399 49.609 44.172 C 49.609 43.379 50.288 42.7 51.081 42.813 C 52.101 42.813 53.007 43.719 53.007 44.852 C 53.007 46.211 51.761 47.344 50.402 47.344 C 48.589 47.344 47.117 45.758 47.23 43.946 C 47.344 41.567 49.269 39.755 51.647 39.868 C 54.592 39.981 56.971 42.473 56.971 45.418 C 56.858 49.269 53.913 52.327 50.062 52.214 C 49.835 52.214 49.382 52.327 49.382 52.554 C 49.382 52.78 49.835 53.346 50.062 53.346 C 54.366 53.46 57.764 49.722 57.99 45.418 C 57.877 41.68 55.045 38.736 51.534 38.622 Z " fill="rgb(12,150,134)"/><path d=" M 50.402 52.554 C 50.402 52.327 50.175 51.987 49.949 51.987 L 38.396 51.987 C 38.169 51.987 37.943 52.327 37.943 52.554 L 37.943 52.554 C 37.943 52.78 38.169 53.12 38.396 53.12 L 49.949 53.12 C 50.175 53.12 50.402 52.78 50.402 52.554 L 50.402 52.554 L 50.402 52.554 Z " fill="rgb(12,150,134)"/><circle vector-effect="non-scaling-stroke" cx="44.058904279978115" cy="46.32414360808124" r="0.4530478592477394" fill="rgb(12,150,134)"/></g><circle vector-effect="non-scaling-stroke" cx="44.058904279978115" cy="62.18081868175208" r="0.4530478592477394" fill="rgb(23,204,174)"/><circle vector-effect="non-scaling-stroke" cx="54.8187909371119" cy="54.252481144916665" r="0.4530478592477394" fill="rgb(12,150,134)"/><path d=" M 67.957 18.235 C 67.957 8.155 59.802 0 49.609 0 C 42.473 0 36.357 4.077 33.299 10.08 C 32.619 9.967 31.94 9.854 31.26 9.854 C 26.503 9.854 22.652 13.705 22.652 18.462 C 22.652 18.688 22.426 18.801 22.426 19.028 C 16.083 19.708 12.459 25.144 12.459 31.827 L 12.459 32.733 C 12.459 39.868 18.688 45.192 25.824 45.192 L 55.045 45.192 C 62.068 45.192 67.957 39.868 67.957 32.733 L 67.957 28.655 C 67.957 25.257 67.957 21.633 67.957 18.235 Z " fill="rgb(220,249,246)"/><path d=" M 67.957 20.727 C 67.957 10.647 59.802 2.492 49.609 2.492 C 42.473 2.492 36.357 6.569 33.299 12.572 C 32.619 12.459 31.94 12.346 31.26 12.346 C 26.503 12.346 22.652 16.196 22.652 20.953 C 22.652 21.18 22.426 21.293 22.426 21.52 C 16.083 22.199 12.459 25.257 12.459 31.94 L 12.459 32.733 C 12.459 39.868 18.688 45.192 25.824 45.192 L 55.045 45.192 C 62.068 45.192 67.957 39.868 67.957 32.733 L 67.957 28.655 C 67.957 25.257 67.957 24.125 67.957 20.727 Z " fill="rgb(179,221,215)"/><path d=" M 26.05 45.192 L 55.045 45.192 C 62.068 45.192 67.957 39.868 67.957 32.733 L 67.957 28.655 C 67.957 25.371 67.957 23.898 67.957 20.387" fill="rgb(166,209,204)"/><g><path d=" M 41.68 20.953 C 41.114 20.84 40.548 20.727 39.981 20.727 C 36.584 20.727 33.865 23.445 33.865 26.843 C 33.865 27.409 33.979 27.976 34.092 28.542 C 34.658 24.578 37.716 21.407 41.68 20.953 Z " fill="rgb(220,249,246)"/><path d=" M 52.327 15.29 C 51.647 14.951 50.855 14.611 50.062 14.498 C 45.531 13.705 41.114 16.65 40.321 21.18 C 40.208 21.973 40.208 22.766 40.321 23.558 C 41.907 18.462 46.89 14.951 52.327 15.29 Z " fill="rgb(220,249,246)"/></g><g><path d=" M 19.708 30.921 C 19.708 31.26 19.481 31.487 19.141 31.487 C 18.801 31.487 18.575 31.26 18.575 30.921 C 18.575 30.581 18.801 30.354 19.141 30.354 C 19.481 30.241 19.708 30.581 19.708 30.921 Z " fill="rgb(177,221,217)"/><circle vector-effect="non-scaling-stroke" cx="20.726939528719598" cy="26.27677583636882" r="0.7928337536835421" fill="rgb(177,221,217)"/><circle vector-effect="non-scaling-stroke" cx="31.260302256229515" cy="17.55560454584986" r="0.33978589443580276" fill="rgb(177,221,217)"/></g><g><path d=" M 40.661 12.912 C 40.661 13.365 40.208 13.818 39.755 13.818 C 39.302 13.818 38.849 13.365 38.849 12.912 C 38.849 12.459 39.302 12.006 39.755 12.006 C 40.208 12.006 40.661 12.346 40.661 12.912 Z " fill="rgb(220,249,246)"/><path d=" M 47.344 5.437 C 47.344 5.663 47.117 5.89 46.89 5.89 C 46.664 5.89 46.437 5.663 46.437 5.437 C 46.437 5.21 46.664 4.984 46.89 4.984 C 47.117 4.984 47.344 5.097 47.344 5.437 Z " fill="rgb(220,249,246)"/><path d=" M 52.44 6.796 C 52.44 7.589 51.874 8.155 51.081 8.155 C 50.288 8.155 49.722 7.589 49.722 6.796 C 49.722 6.003 50.288 5.437 51.081 5.437 C 51.761 5.437 52.44 6.003 52.44 6.796 Z " fill="rgb(220,249,246)"/></g></g></g></g></svg>