<svg xmlns="http://www.w3.org/2000/svg" width="70" height="70" viewBox="0 0 70 70" style="width: 100%; height: 100%;"><desc>Made with illustrio</desc>
  
<defs fill="none" stroke="none"><mask id="maskSivv4338xzv8"><rect x="35" y="0" width="35" height="70" rx="0" ry="0" fill="#ffffff"></rect></mask></defs><g class="content"><g class="base"><g fill="none" fill-rule="evenodd" stroke="none" class="main-fill">
    
    
  </g><g fill="none" transform="translate(28 17.818)" stroke="none" class="main-fill">
      <path d="M7,24.1818182 C5.24554545,24.1818182 3.81818182,25.6091818 3.81818182,27.3636364 C3.81818182,29.1180909 5.24554545,30.5454545 7,30.5454545 C8.75445455,30.5454545 10.1818182,29.1180909 10.1818182,27.3636364 C10.1818182,25.6091818 8.75445455,24.1818182 7,24.1818182 L7,24.1818182 Z" fill="none" stroke="none" class="main-fill"></path>
      <path d="M10.1818182 21.1304545L10.1818182 3.18181818C10.1818182 1.42736364 8.75445455 0 7 0 5.24554545 0 3.81818182 1.42736364 3.81818182 3.18181818L3.81818182 21.1304545C1.48527273 22.3223636 0 24.724 0 27.3636364 0 31.2231818 3.14045455 34.3636364 7 34.3636364 10.8595455 34.3636364 14 31.2231818 14 27.3636364 14 24.7246364 12.5147273 22.3223636 10.1818182 21.1304545L10.1818182 21.1304545zM7 31.8181818C4.54363636 31.8181818 2.54545455 29.8193636 2.54545455 27.3636364 2.54545455 25.1236364 4.20827273 23.2699091 6.36363636 22.96L6.36363636 12.0909091C6.36363636 11.7396364 6.64872727 11.4545455 7 11.4545455 7.35127273 11.4545455 7.63636364 11.7396364 7.63636364 12.0909091L7.63636364 22.96C9.79172727 23.2705455 11.4545455 25.1242727 11.4545455 27.3636364 11.4545455 29.8193636 9.45572727 31.8181818 7 31.8181818L7 31.8181818zM13.3636364 6.36363636L12.0909091 6.36363636C11.739 6.36363636 11.4545455 6.07854545 11.4545455 5.72727273 11.4545455 5.376 11.739 5.09090909 12.0909091 5.09090909L13.3636364 5.09090909C13.7155455 5.09090909 14 5.376 14 5.72727273 14 6.07854545 13.7155455 6.36363636 13.3636364 6.36363636L13.3636364 6.36363636 13.3636364 6.36363636zM13.3636364 8.90909091L12.0909091 8.90909091C11.739 8.90909091 11.4545455 8.624 11.4545455 8.27272727 11.4545455 7.92145455 11.739 7.63636364 12.0909091 7.63636364L13.3636364 7.63636364C13.7155455 7.63636364 14 7.92145455 14 8.27272727 14 8.624 13.7155455 8.90909091 13.3636364 8.90909091L13.3636364 8.90909091 13.3636364 8.90909091z" fill="none" stroke="none" class="main-fill"></path>
      <path d="M13.3636364 11.4545455L12.0909091 11.4545455C11.739 11.4545455 11.4545455 11.1694545 11.4545455 10.8181818 11.4545455 10.4669091 11.739 10.1818182 12.0909091 10.1818182L13.3636364 10.1818182C13.7155455 10.1818182 14 10.4669091 14 10.8181818 14 11.1694545 13.7155455 11.4545455 13.3636364 11.4545455L13.3636364 11.4545455 13.3636364 11.4545455zM13.3636364 14L12.0909091 14C11.739 14 11.4545455 13.7149091 11.4545455 13.3636364 11.4545455 13.0123636 11.739 12.7272727 12.0909091 12.7272727L13.3636364 12.7272727C13.7155455 12.7272727 14 13.0123636 14 13.3636364 14 13.7149091 13.7155455 14 13.3636364 14L13.3636364 14 13.3636364 14zM13.3636364 16.5454545L12.0909091 16.5454545C11.739 16.5454545 11.4545455 16.2603636 11.4545455 15.9090909 11.4545455 15.5578182 11.739 15.2727273 12.0909091 15.2727273L13.3636364 15.2727273C13.7155455 15.2727273 14 15.5578182 14 15.9090909 14 16.2603636 13.7155455 16.5454545 13.3636364 16.5454545L13.3636364 16.5454545 13.3636364 16.5454545zM13.3636364 19.0909091L12.0909091 19.0909091C11.739 19.0909091 11.4545455 18.8064545 11.4545455 18.4545455 11.4545455 18.1026364 11.739 17.8181818 12.0909091 17.8181818L13.3636364 17.8181818C13.7155455 17.8181818 14 18.1026364 14 18.4545455 14 18.8064545 13.7155455 19.0909091 13.3636364 19.0909091L13.3636364 19.0909091 13.3636364 19.0909091z" fill="none" stroke="none" class="main-fill"></path>
    </g></g><g class="masked" mask="url('#maskSivv4338xzv8')"><g fill="none" fill-rule="evenodd" stroke="none" class="main-fill--darken">
    
    
  </g><g fill="none" transform="translate(28 17.818)" stroke="none" class="main-fill--darken">
      <path d="M7,24.1818182 C5.24554545,24.1818182 3.81818182,25.6091818 3.81818182,27.3636364 C3.81818182,29.1180909 5.24554545,30.5454545 7,30.5454545 C8.75445455,30.5454545 10.1818182,29.1180909 10.1818182,27.3636364 C10.1818182,25.6091818 8.75445455,24.1818182 7,24.1818182 L7,24.1818182 Z" fill="none" stroke="none" class="main-fill--darken"></path>
      <path d="M10.1818182 21.1304545L10.1818182 3.18181818C10.1818182 1.42736364 8.75445455 0 7 0 5.24554545 0 3.81818182 1.42736364 3.81818182 3.18181818L3.81818182 21.1304545C1.48527273 22.3223636 0 24.724 0 27.3636364 0 31.2231818 3.14045455 34.3636364 7 34.3636364 10.8595455 34.3636364 14 31.2231818 14 27.3636364 14 24.7246364 12.5147273 22.3223636 10.1818182 21.1304545L10.1818182 21.1304545zM7 31.8181818C4.54363636 31.8181818 2.54545455 29.8193636 2.54545455 27.3636364 2.54545455 25.1236364 4.20827273 23.2699091 6.36363636 22.96L6.36363636 12.0909091C6.36363636 11.7396364 6.64872727 11.4545455 7 11.4545455 7.35127273 11.4545455 7.63636364 11.7396364 7.63636364 12.0909091L7.63636364 22.96C9.79172727 23.2705455 11.4545455 25.1242727 11.4545455 27.3636364 11.4545455 29.8193636 9.45572727 31.8181818 7 31.8181818L7 31.8181818zM13.3636364 6.36363636L12.0909091 6.36363636C11.739 6.36363636 11.4545455 6.07854545 11.4545455 5.72727273 11.4545455 5.376 11.739 5.09090909 12.0909091 5.09090909L13.3636364 5.09090909C13.7155455 5.09090909 14 5.376 14 5.72727273 14 6.07854545 13.7155455 6.36363636 13.3636364 6.36363636L13.3636364 6.36363636 13.3636364 6.36363636zM13.3636364 8.90909091L12.0909091 8.90909091C11.739 8.90909091 11.4545455 8.624 11.4545455 8.27272727 11.4545455 7.92145455 11.739 7.63636364 12.0909091 7.63636364L13.3636364 7.63636364C13.7155455 7.63636364 14 7.92145455 14 8.27272727 14 8.624 13.7155455 8.90909091 13.3636364 8.90909091L13.3636364 8.90909091 13.3636364 8.90909091z" fill="none" stroke="none" class="main-fill--darken"></path>
      <path d="M13.3636364 11.4545455L12.0909091 11.4545455C11.739 11.4545455 11.4545455 11.1694545 11.4545455 10.8181818 11.4545455 10.4669091 11.739 10.1818182 12.0909091 10.1818182L13.3636364 10.1818182C13.7155455 10.1818182 14 10.4669091 14 10.8181818 14 11.1694545 13.7155455 11.4545455 13.3636364 11.4545455L13.3636364 11.4545455 13.3636364 11.4545455zM13.3636364 14L12.0909091 14C11.739 14 11.4545455 13.7149091 11.4545455 13.3636364 11.4545455 13.0123636 11.739 12.7272727 12.0909091 12.7272727L13.3636364 12.7272727C13.7155455 12.7272727 14 13.0123636 14 13.3636364 14 13.7149091 13.7155455 14 13.3636364 14L13.3636364 14 13.3636364 14zM13.3636364 16.5454545L12.0909091 16.5454545C11.739 16.5454545 11.4545455 16.2603636 11.4545455 15.9090909 11.4545455 15.5578182 11.739 15.2727273 12.0909091 15.2727273L13.3636364 15.2727273C13.7155455 15.2727273 14 15.5578182 14 15.9090909 14 16.2603636 13.7155455 16.5454545 13.3636364 16.5454545L13.3636364 16.5454545 13.3636364 16.5454545zM13.3636364 19.0909091L12.0909091 19.0909091C11.739 19.0909091 11.4545455 18.8064545 11.4545455 18.4545455 11.4545455 18.1026364 11.739 17.8181818 12.0909091 17.8181818L13.3636364 17.8181818C13.7155455 17.8181818 14 18.1026364 14 18.4545455 14 18.8064545 13.7155455 19.0909091 13.3636364 19.0909091L13.3636364 19.0909091 13.3636364 19.0909091z" fill="none" stroke="none" class="main-fill--darken"></path>
    </g></g></g><style>
          .main-fill {fill: #3fadb4;}
          .main-stroke {stroke: #3fadb4;}
          .secondary-fill {fill: #fff;}
          .secondary-stroke {stroke: #fff;}

          .main-fill--darken {fill: #2b777b;}
          .main-stroke--darken {stroke: #2b777b;}
          .secondary-fill--darken {fill: #d9d9d9;}
          .secondary-stroke--darken {stroke: #d9d9d9;}

          .main-fill--darkener {fill: #1e5256;}
          .main-stroke--darkener {stroke: #1e5256;}
          .secondary-fill--darkener {fill: #bfbfbf;}
          .secondary-stroke--darkener {stroke: #bfbfbf;}
        </style></svg>