<svg xmlns="http://www.w3.org/2000/svg" width="70" height="70" viewBox="0 0 70 70" style="width: 100%; height: 100%;"><desc>Made with illustrio</desc>
  
<g class="base"><g fill="none" fill-rule="evenodd" stroke="none" class="main-stroke">
    
    <path fill="none" d="M31.1818182,0 L0.636363636,0 C0.285090909,0 0,0.285090909 0,0.636363636 L0,26.0909091 C0,26.4428182 0.285090909,26.7272727 0.636363636,26.7272727 L31.1818182,26.7272727 C31.5337273,26.7272727 31.8181818,26.4428182 31.8181818,26.0909091 L31.8181818,0.636363636 C31.8181818,0.285090909 31.5337273,0 31.1818182,0 L31.1818182,0 Z M10.0749091,16.8286364 C10.2696364,17.1213636 10.1907273,17.5159091 9.89863636,17.7112727 C9.78981818,17.7831818 9.667,17.8181818 9.54609091,17.8181818 C9.34054545,17.8181818 9.13881818,17.7189091 9.016,17.535 L6.47054545,13.7168182 C6.328,13.503 6.328,13.2249091 6.47054545,13.0110909 L9.016,9.19290909 C9.21072727,8.90081818 9.60590909,8.82127273 9.89863636,9.01663636 C10.1907273,9.21136364 10.2696364,9.60654545 10.0749091,9.89927273 L7.76490909,13.3636364 L10.0749091,16.8286364 L10.0749091,16.8286364 Z M15.26,19.852 C15.2001818,20.1549091 14.9341818,20.3636364 14.637,20.3636364 C14.5956364,20.3636364 14.5536364,20.3598182 14.5116364,20.3509091 C14.1667273,20.2821818 13.9433636,19.9468182 14.0127273,19.6019091 L16.5581818,6.87463636 C16.6269091,6.52972727 16.9622727,6.30763636 17.3071818,6.37572727 C17.6514545,6.44445455 17.8754545,6.77981818 17.8060909,7.12472727 L15.26,19.852 L15.26,19.852 Z M25.3476364,13.7168182 L22.8021818,17.535 C22.68,17.7189091 22.4776364,17.8181818 22.2720909,17.8181818 C22.1511818,17.8181818 22.0283636,17.7831818 21.9195455,17.7112727 C21.6268182,17.5159091 21.5479091,17.1213636 21.7432727,16.8286364 L24.0532727,13.3636364 L21.7432727,9.89863636 C21.5479091,9.60654545 21.6268182,9.21072727 21.9195455,9.016 C22.2122727,8.82063636 22.6068182,8.90018182 22.8021818,9.19227273 L25.3476364,13.0104545 C25.4901818,13.2242727 25.4901818,13.503 25.3476364,13.7168182 L25.3476364,13.7168182 Z" transform="translate(19.09 21.636)" stroke="none" class="main-stroke"></path>
  </g></g><style>
          .main-fill {fill: #353535;}
          .main-stroke {stroke: #353535;}
          .secondary-fill {fill: #353535;}
          .secondary-stroke {stroke: #353535;}

          .main-fill--darken {fill: #0f0f0f;}
          .main-stroke--darken {stroke: #0f0f0f;}
          .secondary-fill--darken {fill: #0f0f0f;}
          .secondary-stroke--darken {stroke: #0f0f0f;}

          .main-fill--darkener {fill: #000000;}
          .main-stroke--darkener {stroke: #000000;}
          .secondary-fill--darkener {fill: #000000;}
          .secondary-stroke--darkener {stroke: #000000;}
        </style></svg>