<svg xmlns="http://www.w3.org/2000/svg" width="70" height="70" viewBox="0 0 70 70" style="width: 100%; height: 100%;"><desc>Made with illustrio</desc>
  
<g class="base"><g fill="none" fill-rule="evenodd" stroke="none" class="main-stroke">
    
    <path fill="none" d="M28.0810833,0.0375666667 L2.55284167,0.0375666667 C1.14875833,0.0375666667 0,1.186325 0,2.59040833 L0,20.4601833 C0,21.8642083 1.14875833,23.013025 2.55284167,23.013025 L28.0810833,23.013025 C29.4851083,23.013025 30.62115,21.8642667 30.62115,20.4601833 L30.633925,2.59040833 C30.633925,1.186325 29.4851083,0.0375666667 28.0810833,0.0375666667 L28.0810833,0.0375666667 Z M10.2113083,3.8668 C12.33015,3.8668 14.0405417,5.57719167 14.0405417,7.69603333 C14.0405417,9.814875 12.33015,11.5252667 10.2113083,11.5252667 C8.09246667,11.5252667 6.382075,9.814875 6.382075,7.69603333 C6.382075,5.57719167 8.09246667,3.8668 10.2113083,3.8668 L10.2113083,3.8668 Z M17.869775,19.1837333 L2.55284167,19.1837333 L2.55284167,17.9073417 C2.55284167,15.3545 7.65846667,13.950475 10.2113083,13.950475 C12.76415,13.950475 17.869775,15.3545 17.869775,17.9073417 L17.869775,19.1837333 L17.869775,19.1837333 Z M22.78395,14.0781083 L24.878525,14.0781083 L26.8046333,16.63095 L24.2645667,19.1710167 C22.5924417,17.9201167 21.3556,16.13185 20.7799667,14.0781083 C20.5501917,13.259925 20.4225583,12.4047583 20.4225583,11.5252667 C20.4225583,10.64455 20.5501917,9.789325 20.7786833,8.972425 C21.3543167,6.904625 22.5924417,5.13041667 24.2632833,3.87951667 L26.8046333,6.41958333 L24.8772417,8.972425 L22.78395,8.972425 C22.5031333,9.77655 22.3372333,10.631775 22.3372333,11.5252667 C22.3372333,12.4187583 22.5031333,13.2739833 22.78395,14.0781083 L22.78395,14.0781083 Z" transform="translate(19.658 23.45)" stroke="none" class="main-stroke"></path>
  </g></g><style>
          .main-fill {fill: #353535;}
          .main-stroke {stroke: #353535;}
          .secondary-fill {fill: #353535;}
          .secondary-stroke {stroke: #353535;}

          .main-fill--darken {fill: #0f0f0f;}
          .main-stroke--darken {stroke: #0f0f0f;}
          .secondary-fill--darken {fill: #0f0f0f;}
          .secondary-stroke--darken {stroke: #0f0f0f;}

          .main-fill--darkener {fill: #000000;}
          .main-stroke--darkener {stroke: #000000;}
          .secondary-fill--darkener {fill: #000000;}
          .secondary-stroke--darkener {stroke: #000000;}
        </style></svg>