<?xml version="1.0" standalone="no"?><svg xmlns="http://www.w3.org/2000/svg" xmlns:xlink="http://www.w3.org/1999/xlink" style="isolation:isolate" viewBox="0 0 87 87" width="87" height="87"><defs><clipPath id="_clipPath_sfKCiTypLSDay5Jeqfg8lVXKAwNLrmdb"><rect width="87" height="87"/></clipPath></defs><g clip-path="url(#_clipPath_sfKCiTypLSDay5Jeqfg8lVXKAwNLrmdb)"><circle vector-effect="non-scaling-stroke" cx="43.5" cy="43.5" r="42.5" fill="rgb(250,250,250)" stroke-width="2" stroke="rgb(63,173,180)" stroke-linejoin="round" stroke-linecap="butt" stroke-miterlimit="1.414"/><g><path d=" M 28.419 20.484 L 31.365 20.484 L 31.365 66.516 L 28.419 66.516 L 28.419 20.484 Z " fill="rgb(207,216,220)"/><path d=" M 31.365 63.447 L 28.419 63.447 L 28.419 52.096 C 28.419 48.26 31.365 45.034 35.197 45.034 L 57.141 45.034 C 58.159 45.041 59.138 44.623 59.858 43.873 C 60.578 43.122 60.98 42.103 60.973 41.042 L 60.973 31.225 L 63.919 31.225 L 63.919 41.042 C 63.919 44.878 60.973 48.103 57.141 48.103 L 35.197 48.103 C 34.178 48.095 33.199 48.513 32.479 49.264 C 31.758 50.014 31.357 51.034 31.365 52.096 L 31.365 63.447 Z " fill="rgb(207,216,220)"/><path d=" M 24 18.95 C 24 15.574 26.651 12.812 29.892 12.812 C 33.132 12.812 35.783 15.574 35.783 18.95 C 35.783 22.326 33.132 25.088 29.892 25.088 C 26.651 25.088 24 22.326 24 18.95 Z  M 62.296 34.294 C 65.536 34.294 68.188 31.532 68.188 28.156 C 68.188 24.781 65.536 22.019 62.296 22.019 C 59.055 22.019 56.404 24.781 56.404 28.156 C 56.404 31.532 59.055 34.294 62.296 34.294 Z " fill="rgb(0,188,212)"/><path d=" M 35.783 68.05 C 35.783 71.441 33.147 74.188 29.892 74.188 C 26.637 74.188 24 71.441 24 68.05 C 24 64.659 26.637 61.913 29.892 61.913 C 33.147 61.913 35.783 64.659 35.783 68.05 Z " fill="rgb(0,151,167)"/></g><g transform="matrix(1,0,0,1,4,26)"><text transform="matrix(1,0,0,1,0,24.926)" style="font-family:'Titillium Web';font-weight:400;font-size:22px;font-style:normal;letter-spacing:1;fill:#353535;stroke:none;">Coupler</text></g></g></svg>