<svg xmlns="http://www.w3.org/2000/svg" width="100" height="100" viewBox="0 0 70 70" >
  
<defs fill="none" stroke="none"><mask id="maskSiwp1hyda68yh"><rect x="35" y="0" width="35" height="70" rx="0" ry="0" fill="#ffffff"></rect></mask></defs><g class="content"><g class="coupler__base"><g fill="none" fill-rule="evenodd" stroke="none" class="coupler__main-fill">
    
    
    <path fill="none" d="M0,0.149132941 L0,11.6785447 L4.94117647,11.6785447 L4.94117647,23.2079565 L0,23.2079565 L0,34.7373682 L11.5294118,34.7373682 L11.5294118,29.7961918 L23.0588235,29.7961918 L23.0588235,34.7373682 L34.5882353,34.7373682 L34.5882353,23.2079565 L29.6470588,23.2079565 L29.6470588,11.6785447 L34.5882353,11.6785447 L34.5882353,0.149132941 L23.0588235,0.149132941 L23.0588235,5.09030941 L11.5294118,5.09030941 L11.5294118,0.149132941 L0,0.149132941 Z M4.41360294,4.26678 L7.11580882,4.26678 C7.27758541,4.26678 7.41176471,4.40095929 7.41176471,4.56273588 L7.41176471,7.26494176 C7.41176471,7.42671835 7.27758541,7.56089765 7.11580882,7.56089765 L4.41360294,7.56089765 C4.25182635,7.56089765 4.11764706,7.42671835 4.11764706,7.26494176 L4.11764706,4.56273588 C4.11764706,4.40095929 4.25182635,4.26678 4.41360294,4.26678 Z M27.4724265,4.26678 L30.1746324,4.26678 C30.3364089,4.26678 30.4705882,4.40095929 30.4705882,4.56273588 L30.4705882,7.26494176 C30.4705882,7.42671835 30.3364089,7.56089765 30.1746324,7.56089765 L27.4724265,7.56089765 C27.3106499,7.56089765 27.1764706,7.42671835 27.1764706,7.26494176 L27.1764706,4.56273588 C27.1764706,4.40095929 27.3106499,4.26678 27.4724265,4.26678 Z M11.5294118,6.73736824 L23.0588235,6.73736824 L23.0588235,11.6785447 L28,11.6785447 L28,23.2079565 L23.0588235,23.2079565 L23.0588235,28.1491329 L11.5294118,28.1491329 L11.5294118,23.2079565 L6.58823529,23.2079565 L6.58823529,11.6785447 L11.5294118,11.6785447 L11.5294118,6.73736824 Z M4.41360294,27.3256035 L7.11580882,27.3256035 C7.27758541,27.3256035 7.41176471,27.4597828 7.41176471,27.6215594 L7.41176471,30.3237653 C7.41176471,30.4855419 7.27758541,30.6197212 7.11580882,30.6197212 L4.41360294,30.6197212 C4.25182635,30.6197212 4.11764706,30.4855419 4.11764706,30.3237653 L4.11764706,27.6215594 C4.11764706,27.4597828 4.25182635,27.3256035 4.41360294,27.3256035 Z" transform="translate(17.706 17.557)" stroke="none" class="coupler__main-fill"></path>
  </g></g><g class="masked" mask="url('#maskSiwp1hyda68yh')"><g fill="none" fill-rule="evenodd" stroke="none" class="coupler__main-fill--darken">
    
    
    <path fill="none" d="M0,0.149132941 L0,11.6785447 L4.94117647,11.6785447 L4.94117647,23.2079565 L0,23.2079565 L0,34.7373682 L11.5294118,34.7373682 L11.5294118,29.7961918 L23.0588235,29.7961918 L23.0588235,34.7373682 L34.5882353,34.7373682 L34.5882353,23.2079565 L29.6470588,23.2079565 L29.6470588,11.6785447 L34.5882353,11.6785447 L34.5882353,0.149132941 L23.0588235,0.149132941 L23.0588235,5.09030941 L11.5294118,5.09030941 L11.5294118,0.149132941 L0,0.149132941 Z M4.41360294,4.26678 L7.11580882,4.26678 C7.27758541,4.26678 7.41176471,4.40095929 7.41176471,4.56273588 L7.41176471,7.26494176 C7.41176471,7.42671835 7.27758541,7.56089765 7.11580882,7.56089765 L4.41360294,7.56089765 C4.25182635,7.56089765 4.11764706,7.42671835 4.11764706,7.26494176 L4.11764706,4.56273588 C4.11764706,4.40095929 4.25182635,4.26678 4.41360294,4.26678 Z M27.4724265,4.26678 L30.1746324,4.26678 C30.3364089,4.26678 30.4705882,4.40095929 30.4705882,4.56273588 L30.4705882,7.26494176 C30.4705882,7.42671835 30.3364089,7.56089765 30.1746324,7.56089765 L27.4724265,7.56089765 C27.3106499,7.56089765 27.1764706,7.42671835 27.1764706,7.26494176 L27.1764706,4.56273588 C27.1764706,4.40095929 27.3106499,4.26678 27.4724265,4.26678 Z M11.5294118,6.73736824 L23.0588235,6.73736824 L23.0588235,11.6785447 L28,11.6785447 L28,23.2079565 L23.0588235,23.2079565 L23.0588235,28.1491329 L11.5294118,28.1491329 L11.5294118,23.2079565 L6.58823529,23.2079565 L6.58823529,11.6785447 L11.5294118,11.6785447 L11.5294118,6.73736824 Z M4.41360294,27.3256035 L7.11580882,27.3256035 C7.27758541,27.3256035 7.41176471,27.4597828 7.41176471,27.6215594 L7.41176471,30.3237653 C7.41176471,30.4855419 7.27758541,30.6197212 7.11580882,30.6197212 L4.41360294,30.6197212 C4.25182635,30.6197212 4.11764706,30.4855419 4.11764706,30.3237653 L4.11764706,27.6215594 C4.11764706,27.4597828 4.25182635,27.3256035 4.41360294,27.3256035 Z" transform="translate(17.706 17.557)" stroke="none" class="coupler__main-fill--darken"></path>
  </g></g></g><style>
          .coupler__main-fill {fill: #3fadb4;}
          .coupler__main-fill--darken {fill: #2b777b;}
         
        </style></svg>