<?xml version="1.0" standalone="no"?><!-- Generator: Gravit.io --><svg xmlns="http://www.w3.org/2000/svg" xmlns:xlink="http://www.w3.org/1999/xlink" style="isolation:isolate" viewBox="0 0 400 400" width="400" height="400"><defs><clipPath id="_clipPath_dBdgMzGrOdECHyL1QX82VNqCI21Mt09c"><rect width="400" height="400"/></clipPath></defs><g clip-path="url(#_clipPath_dBdgMzGrOdECHyL1QX82VNqCI21Mt09c)"><circle vector-effect="non-scaling-stroke" cx="202.40196078431376" cy="197.59803921568633" r="57.5980392156863" fill="rgb(232,232,232)" stroke-width="6" stroke="rgb(63,173,180)" stroke-linejoin="round" stroke-linecap="butt" stroke-miterlimit="1.414"/><g transform="matrix(1,0,0,1,157.402,145)"><text transform="matrix(1,0,0,1,0,57.152)" style="font-family:'Titillium Web';font-weight:700;font-size:24px;font-style:normal;letter-spacing:1.5;fill:#000000;stroke:none;">Coupler</text></g><g><circle vector-effect="non-scaling-stroke" cx="364.20921911942867" cy="189.65819867970225" r="31.033778358470045" fill="rgb(255,188,0)"/><path d=" M 342.35 167.685 C 354.469 155.566 374.063 155.566 386.182 167.685 C 398.301 179.804 398.301 199.399 386.182 211.518" fill="rgb(255,170,0)"/><path d=" M 341.783 204.156 C 341.783 203.929 341.557 203.589 341.444 203.589 L 332.383 203.589 C 332.269 203.589 332.043 203.929 332.043 204.156 L 332.043 204.156 C 332.043 204.382 332.269 204.722 332.383 204.722 L 341.33 204.722 C 341.557 204.722 341.783 204.382 341.783 204.156 L 341.783 204.156 Z " fill="rgb(12,150,134)"/><g><path d=" M 341.783 214.349 C 341.783 214.123 341.557 213.783 341.444 213.783 L 332.383 213.783 C 332.269 213.783 332.043 214.123 332.043 214.349 L 332.043 214.349 C 332.043 214.576 332.269 214.916 332.383 214.916 L 341.33 214.916 C 341.557 214.916 341.783 214.576 341.783 214.349 L 341.783 214.349 Z " fill="rgb(23,204,174)"/><path d=" M 346.654 224.996 C 343.822 225.109 341.33 222.844 341.33 219.899 C 341.217 217.521 343.142 215.595 345.521 215.482 C 347.446 215.482 349.032 216.954 349.145 218.88 C 349.145 220.465 347.899 221.825 346.314 221.825 C 344.955 221.825 343.822 220.805 343.822 219.446 C 343.822 219.22 344.049 218.993 344.275 218.993 C 344.502 218.993 344.728 219.22 344.728 219.446 C 344.728 220.239 345.408 220.919 346.201 220.805 C 347.22 220.805 348.126 219.899 348.126 218.767 C 348.126 217.407 346.88 216.275 345.521 216.275 C 343.709 216.275 342.236 217.86 342.35 219.673 C 342.463 222.051 344.388 223.863 346.767 223.75 C 349.712 223.637 352.09 221.145 352.09 218.2 C 351.977 214.349 349.145 211.178 345.294 211.291 C 345.068 211.291 344.502 211.291 344.502 211.065 C 344.502 210.838 345.068 210.159 345.294 210.159 C 349.598 210.045 352.883 213.896 353.11 218.2 C 352.996 221.938 350.165 224.883 346.654 224.996 Z " fill="rgb(23,204,174)"/><path d=" M 345.634 211.065 C 345.634 211.291 345.408 211.518 345.181 211.518 L 333.628 211.518 C 333.402 211.518 333.175 211.291 333.175 211.065 L 333.175 210.951 C 333.175 210.612 333.402 210.385 333.628 210.385 L 345.068 210.385 C 345.294 210.385 345.521 210.612 345.521 210.838 L 345.521 211.065 L 345.634 211.065 Z " fill="rgb(23,204,174)"/></g><g><path d=" M 346.654 193.622 C 343.822 193.509 341.33 195.774 341.33 198.719 C 341.217 201.098 343.142 203.023 345.521 203.136 C 347.446 203.136 349.032 201.664 349.145 199.739 C 349.145 198.153 347.899 196.794 346.314 196.794 C 344.955 196.794 343.822 197.813 343.822 199.172 C 343.822 199.399 344.049 199.625 344.275 199.625 C 344.502 199.625 344.728 199.399 344.728 199.172 C 344.728 198.379 345.408 197.7 346.201 197.813 C 347.22 197.813 348.126 198.719 348.126 199.852 C 348.126 201.211 346.88 202.344 345.521 202.344 C 343.709 202.344 342.236 200.758 342.35 198.946 C 342.463 196.567 344.388 194.755 346.767 194.868 C 349.712 194.982 352.09 197.473 352.09 200.418 C 351.977 204.269 349.032 207.327 345.181 207.214 C 344.955 207.214 344.502 207.327 344.502 207.554 C 344.502 207.78 344.955 208.346 345.181 208.346 C 349.485 208.46 352.883 204.722 353.11 200.418 C 352.996 196.68 350.165 193.736 346.654 193.622 Z " fill="rgb(12,150,134)"/><path d=" M 345.521 207.554 C 345.521 207.327 345.294 206.987 345.068 206.987 L 333.515 206.987 C 333.289 206.987 333.062 207.327 333.062 207.554 L 333.062 207.554 C 333.062 207.78 333.289 208.12 333.515 208.12 L 345.068 208.12 C 345.294 208.12 345.521 207.78 345.521 207.554 L 345.521 207.554 Z " fill="rgb(12,150,134)"/><circle vector-effect="non-scaling-stroke" cx="339.2915868608031" cy="201.32418105533156" r="0.4530478592477607" fill="rgb(12,150,134)"/></g><circle vector-effect="non-scaling-stroke" cx="339.2915868608031" cy="217.1808561290024" r="0.4530478592477607" fill="rgb(23,204,174)"/><g><circle vector-effect="non-scaling-stroke" cx="349.9382115531249" cy="209.25251859216698" r="0.4530478592477607" fill="rgb(12,150,134)"/><path d=" M 360.245 204.156 C 360.245 203.929 360.019 203.589 359.905 203.589 L 350.958 203.589 C 350.731 203.589 350.618 203.929 350.618 204.156 L 350.618 204.156 C 350.618 204.382 350.844 204.722 350.958 204.722 L 359.905 204.722 C 360.019 204.722 360.245 204.382 360.245 204.156 L 360.245 204.156 Z " fill="rgb(12,150,134)"/></g><g><path d=" M 360.358 214.123 C 360.358 213.896 360.132 213.783 360.019 213.783 L 350.618 213.783 C 350.391 213.783 350.278 214.01 350.278 214.123 L 350.278 214.463 C 350.278 214.689 350.505 214.802 350.618 214.802 L 360.019 214.802 C 360.245 214.802 360.358 214.576 360.358 214.463 L 360.358 214.123 Z " fill="rgb(23,204,174)"/><path d=" M 365.115 224.996 C 362.284 225.109 359.792 222.844 359.792 219.899 C 359.679 217.521 361.604 215.595 363.983 215.482 C 365.908 215.482 367.607 216.954 367.607 218.88 C 367.607 220.465 366.361 221.825 364.776 221.825 C 363.416 221.825 362.284 220.805 362.284 219.446 C 362.284 219.22 362.51 218.993 362.737 218.993 C 362.963 218.993 363.19 219.22 363.19 219.446 C 363.19 220.239 363.869 220.919 364.662 220.805 C 365.682 220.805 366.588 219.899 366.588 218.767 C 366.588 217.407 365.342 216.275 363.983 216.275 C 362.171 216.275 360.698 217.86 360.811 219.673 C 360.925 222.051 362.85 223.863 365.229 223.75 C 368.173 223.637 370.552 221.145 370.552 218.2 C 370.439 214.349 367.267 211.178 363.416 211.291 C 363.19 211.291 362.963 211.291 362.963 211.065 C 362.963 210.838 363.19 210.159 363.416 210.159 C 367.72 210.045 371.345 213.896 371.571 218.2 C 371.458 221.938 368.626 224.883 365.115 224.996 Z " fill="rgb(23,204,174)"/><path d=" M 363.756 211.065 C 363.756 211.291 363.53 211.518 363.303 211.518 L 351.75 211.518 C 351.524 211.518 351.297 211.291 351.297 211.065 L 351.297 210.951 C 351.297 210.725 351.524 210.498 351.75 210.498 L 363.19 210.498 C 363.416 210.498 363.643 210.725 363.643 210.951 L 363.643 211.065 L 363.756 211.065 Z " fill="rgb(23,204,174)"/></g><g><path d=" M 365.115 193.622 C 362.284 193.509 359.792 195.774 359.792 198.719 C 359.679 201.098 361.604 203.023 363.983 203.136 C 365.908 203.136 367.607 201.664 367.607 199.739 C 367.607 198.153 366.361 196.794 364.776 196.794 C 363.416 196.794 362.284 197.813 362.284 199.172 C 362.284 199.399 362.51 199.625 362.737 199.625 C 362.963 199.625 363.19 199.399 363.19 199.172 C 363.19 198.379 363.869 197.7 364.662 197.813 C 365.682 197.813 366.588 198.719 366.588 199.852 C 366.588 201.211 365.342 202.344 363.983 202.344 C 362.171 202.344 360.698 200.758 360.811 198.946 C 360.925 196.567 362.85 194.755 365.229 194.868 C 368.173 194.982 370.552 197.473 370.552 200.418 C 370.439 204.269 367.494 207.327 363.643 207.214 C 363.416 207.214 362.963 207.327 362.963 207.554 C 362.963 207.78 363.416 208.346 363.643 208.346 C 367.947 208.46 371.345 204.722 371.571 200.418 C 371.458 196.68 368.626 193.736 365.115 193.622 Z " fill="rgb(12,150,134)"/><path d=" M 363.983 207.554 C 363.983 207.327 363.756 206.987 363.53 206.987 L 351.977 206.987 C 351.75 206.987 351.524 207.327 351.524 207.554 L 351.524 207.554 C 351.524 207.78 351.75 208.12 351.977 208.12 L 363.53 208.12 C 363.756 208.12 363.983 207.78 363.983 207.554 L 363.983 207.554 Z " fill="rgb(12,150,134)"/><circle vector-effect="non-scaling-stroke" cx="357.7532871251484" cy="201.32418105533156" r="0.4530478592477607" fill="rgb(12,150,134)"/></g><circle vector-effect="non-scaling-stroke" cx="357.7532871251484" cy="217.1808561290024" r="0.4530478592477607" fill="rgb(23,204,174)"/><g><circle vector-effect="non-scaling-stroke" cx="368.39991181747024" cy="209.25251859216698" r="0.4530478592477607" fill="rgb(12,150,134)"/><path d=" M 378.707 204.156 C 378.707 203.929 378.48 203.589 378.367 203.589 L 369.419 203.589 C 369.193 203.589 369.079 203.929 369.079 204.156 L 369.079 204.156 C 369.079 204.382 369.306 204.722 369.419 204.722 L 378.367 204.722 C 378.48 204.722 378.707 204.382 378.707 204.156 L 378.707 204.156 Z " fill="rgb(12,150,134)"/></g><g><path d=" M 378.707 214.349 C 378.707 214.123 378.48 213.783 378.367 213.783 L 369.419 213.783 C 369.193 213.783 369.079 214.123 369.079 214.349 L 369.079 214.349 C 369.079 214.576 369.306 214.916 369.419 214.916 L 378.367 214.916 C 378.48 214.916 378.707 214.576 378.707 214.349 L 378.707 214.349 Z " fill="rgb(23,204,174)"/><path d=" M 383.577 224.996 C 380.745 225.109 378.254 222.844 378.254 219.899 C 378.14 217.521 380.066 215.595 382.444 215.482 C 384.37 215.482 386.069 216.954 386.069 218.88 C 386.069 220.465 384.823 221.825 383.237 221.825 C 381.878 221.825 380.745 220.805 380.745 219.446 C 380.745 219.22 380.972 218.993 381.199 218.993 C 381.425 218.993 381.652 219.22 381.652 219.446 C 381.652 220.239 382.331 220.919 383.124 220.805 C 384.143 220.805 385.049 219.899 385.049 218.767 C 385.049 217.407 383.804 216.275 382.444 216.275 C 380.632 216.275 379.16 217.86 379.273 219.673 C 379.386 222.051 381.312 223.863 383.69 223.75 C 386.635 223.637 389.014 221.145 389.014 218.2 C 388.9 214.349 385.389 211.178 381.538 211.291 C 381.312 211.291 381.085 211.178 381.085 210.951 C 381.085 210.725 381.312 210.159 381.538 210.159 C 385.842 210.045 389.806 213.896 389.92 218.2 C 389.92 221.938 387.088 224.883 383.577 224.996 Z " fill="rgb(23,204,174)"/><path d=" M 381.878 211.065 C 381.878 211.291 381.652 211.518 381.425 211.518 L 369.872 211.518 C 369.646 211.518 369.419 211.291 369.419 211.065 L 369.419 210.951 C 369.419 210.725 369.646 210.498 369.872 210.498 L 381.312 210.498 C 381.538 210.498 381.765 210.725 381.765 210.951 L 381.765 211.065 L 381.878 211.065 Z " fill="rgb(23,204,174)"/></g><g><path d=" M 383.577 193.622 C 380.745 193.509 378.254 195.774 378.254 198.719 C 378.14 201.098 380.066 203.023 382.444 203.136 C 384.37 203.136 386.069 201.664 386.069 199.739 C 386.069 198.153 384.823 196.794 383.237 196.794 C 381.878 196.794 380.745 197.813 380.745 199.172 C 380.745 199.399 380.972 199.625 381.199 199.625 C 381.425 199.625 381.652 199.399 381.652 199.172 C 381.652 198.379 382.331 197.7 383.124 197.813 C 384.143 197.813 385.049 198.719 385.049 199.852 C 385.049 201.211 383.804 202.344 382.444 202.344 C 380.632 202.344 379.16 200.758 379.273 198.946 C 379.386 196.567 381.312 194.755 383.69 194.868 C 386.635 194.982 389.014 197.473 389.014 200.418 C 388.9 204.269 385.956 207.327 382.105 207.214 C 381.878 207.214 381.425 207.327 381.425 207.554 C 381.425 207.78 381.878 208.346 382.105 208.346 C 386.409 208.46 389.806 204.722 390.033 200.418 C 389.92 196.68 387.088 193.736 383.577 193.622 Z " fill="rgb(12,150,134)"/><path d=" M 382.444 207.554 C 382.444 207.327 382.218 206.987 381.991 206.987 L 370.439 206.987 C 370.212 206.987 369.986 207.327 369.986 207.554 L 369.986 207.554 C 369.986 207.78 370.212 208.12 370.439 208.12 L 381.991 208.12 C 382.218 208.12 382.444 207.78 382.444 207.554 L 382.444 207.554 Z " fill="rgb(12,150,134)"/><circle vector-effect="non-scaling-stroke" cx="376.1017254246818" cy="201.32418105533156" r="0.4530478592477607" fill="rgb(12,150,134)"/></g><circle vector-effect="non-scaling-stroke" cx="376.1017254246818" cy="217.1808561290024" r="0.4530478592477607" fill="rgb(23,204,174)"/><circle vector-effect="non-scaling-stroke" cx="386.8616120818157" cy="209.25251859216698" r="0.4530478592477607" fill="rgb(12,150,134)"/><path d=" M 400 173.235 C 400 163.155 391.845 155 381.652 155 C 374.516 155 368.4 159.077 365.342 165.08 C 364.662 164.967 363.983 164.854 363.303 164.854 C 358.546 164.854 354.695 168.705 354.695 173.462 C 354.695 173.688 354.469 173.802 354.469 174.028 C 348.126 174.708 344.502 180.144 344.502 186.827 L 344.502 187.733 C 344.502 194.868 350.731 200.192 357.867 200.192 L 387.088 200.192 C 394.11 200.192 400 194.868 400 187.733 L 400 183.655 C 400 180.257 400 176.633 400 173.235 Z " fill="rgb(220,249,246)"/><path d=" M 400 175.727 C 400 165.647 391.845 157.492 381.652 157.492 C 374.516 157.492 368.4 161.569 365.342 167.572 C 364.662 167.459 363.983 167.346 363.303 167.346 C 358.546 167.346 354.695 171.196 354.695 175.954 C 354.695 176.18 354.469 176.293 354.469 176.52 C 348.126 177.199 344.502 180.257 344.502 186.94 L 344.502 187.733 C 344.502 194.868 350.731 200.192 357.867 200.192 L 387.088 200.192 C 394.11 200.192 400 194.868 400 187.733 L 400 183.655 C 400 180.257 400 179.125 400 175.727 Z " fill="rgb(179,221,215)"/><path d=" M 358.093 200.192 L 387.088 200.192 C 394.11 200.192 400 194.868 400 187.733 L 400 183.655 C 400 180.371 400 178.898 400 175.387" fill="rgb(166,209,204)"/><g><path d=" M 373.723 175.954 C 373.157 175.84 372.591 175.727 372.024 175.727 C 368.626 175.727 365.908 178.445 365.908 181.843 C 365.908 182.409 366.021 182.976 366.135 183.542 C 366.701 179.578 369.759 176.407 373.723 175.954 Z " fill="rgb(220,249,246)"/><path d=" M 384.37 170.29 C 383.69 169.951 382.897 169.611 382.105 169.498 C 377.574 168.705 373.157 171.65 372.364 176.18 C 372.251 176.973 372.251 177.766 372.364 178.559 C 373.95 173.462 378.933 169.951 384.37 170.29 Z " fill="rgb(220,249,246)"/></g><g><path d=" M 351.75 185.921 C 351.75 186.26 351.524 186.487 351.184 186.487 C 350.844 186.487 350.618 186.26 350.618 185.921 C 350.618 185.581 350.844 185.354 351.184 185.354 C 351.524 185.241 351.75 185.581 351.75 185.921 Z " fill="rgb(177,221,217)"/><circle vector-effect="non-scaling-stroke" cx="352.76976067342326" cy="181.2768132836191" r="0.792833753683567" fill="rgb(177,221,217)"/><circle vector-effect="non-scaling-stroke" cx="363.30312340093326" cy="172.55564199310015" r="0.3397858944358063" fill="rgb(177,221,217)"/></g><g><path d=" M 372.704 167.912 C 372.704 168.365 372.251 168.818 371.798 168.818 C 371.345 168.818 370.892 168.365 370.892 167.912 C 370.892 167.459 371.345 167.006 371.798 167.006 C 372.251 167.006 372.704 167.346 372.704 167.912 Z " fill="rgb(220,249,246)"/><path d=" M 379.386 160.437 C 379.386 160.663 379.16 160.89 378.933 160.89 C 378.707 160.89 378.48 160.663 378.48 160.437 C 378.48 160.21 378.707 159.984 378.933 159.984 C 379.16 159.984 379.386 160.097 379.386 160.437 Z " fill="rgb(220,249,246)"/><path d=" M 384.483 161.796 C 384.483 162.589 383.917 163.155 383.124 163.155 C 382.331 163.155 381.765 162.589 381.765 161.796 C 381.765 161.003 382.331 160.437 383.124 160.437 C 383.804 160.437 384.483 161.003 384.483 161.796 Z " fill="rgb(220,249,246)"/></g></g><g><g><circle vector-effect="non-scaling-stroke" cx="202.40196078431376" cy="35" r="35" fill="rgb(40,86,128)"/><g><path d=" M 202.402 0 C 197.538 0 192.909 0.993 188.7 2.786 C 188.508 3.931 187.551 5.887 187.58 6.511 C 187.715 6.538 196.479 -2.42 195.391 3.627 C 194.69 7.519 187.527 7.496 187.835 11.415 C 195.361 14.366 197.986 5.812 204.379 5.847 C 206.511 5.859 211.973 2.487 213.014 3.174 C 217.234 5.954 212.05 15.807 208.821 12.528 C 205.717 9.423 201.288 13.615 201.487 18.456 C 203.101 18.528 203.79 13.874 205.241 15.427 C 206.839 17.137 206.262 20.58 204.051 21.371 C 201.825 22.166 193.096 15.469 195.24 20.545 C 197.599 26.179 188.175 30.532 197.688 28.261 C 202.173 27.185 200.682 30.598 202.798 32.227 C 205.318 34.161 204.203 29.554 206.04 30.256 C 208.713 31.29 205.58 33.955 209.766 32.02 C 214.677 29.78 212.832 33.273 214.336 35.556 C 217.155 39.819 224.084 43.911 227.715 38.277 C 228.571 36.948 228.022 26.441 233.412 33.489 C 236.835 37.967 235.66 28.199 236.124 25.633 C 232.028 10.854 218.486 0 202.402 0 Z " fill="rgb(36,174,95)"/></g><path d=" M 207.132 50.789 L 200.677 45.951 L 196.351 46.122 L 191.862 44.709 L 188.349 42.287 L 180.38 44.129 L 177.093 45.718 L 173.436 50.645 L 174.73 56.419 C 175.1 56.896 175.482 57.363 175.876 57.82 L 182.644 60.98 L 187.212 61.596 L 189.93 67.175 L 190.012 67.736 C 193.864 69.195 198.039 70 202.402 70 C 205.412 70 208.333 69.62 211.121 68.904 L 212.039 63.42 L 216.214 60.032 L 217.948 54.624 L 209.232 54.588 L 207.132 50.789 Z " fill="rgb(250,193,118)"/><path d=" M 167.855 40.608 C 168.021 40.594 168.043 40.579 168.057 40.565 C 169.623 39.001 170.926 38.739 172.231 36.392 C 173.535 34.044 171.97 34.044 172.231 30.131 C 172.491 26.219 171.97 28.045 172.231 23.871 C 172.325 22.37 172.167 21.544 170.342 20.954 C 168.456 25.256 167.402 30.003 167.402 35 C 167.402 36.909 167.56 38.781 167.855 40.608 Z " fill="rgb(136,192,87)"/><path d=" M 203.609 63.966 C 202.302 63.865 197.474 62.357 196.367 60.345 C 195.261 58.333 192.847 54.914 192.747 55.517 C 192.678 55.928 181.751 52.207 174.244 49.558 L 173.436 50.645 L 174.73 56.419 C 175.1 56.896 175.482 57.363 175.876 57.82 L 182.644 60.98 L 187.212 61.596 L 189.93 67.175 L 190.012 67.736 C 193.864 69.195 198.039 70 202.402 70 C 205.412 70 208.333 69.62 211.121 68.904 L 211.817 64.746 C 211.203 64.554 210.494 64.301 209.643 63.966 C 206.324 62.658 204.916 64.066 203.609 63.966 Z " fill="rgb(250,193,118)"/><path d=" M 216.214 60.032 L 217.948 54.624 L 209.232 54.588 L 207.131 50.789 L 200.676 45.951 L 196.349 46.122 L 191.861 44.709 L 188.348 42.287 L 180.379 44.129 L 177.093 45.718 L 174.244 49.556 C 181.751 52.207 192.678 55.928 192.747 55.517 C 192.847 54.914 195.261 58.333 196.367 60.345 C 197.474 62.357 202.302 63.865 203.609 63.966 C 204.916 64.066 206.324 62.658 209.643 63.966 C 210.494 64.301 211.203 64.554 211.817 64.746 L 212.039 63.42 L 216.214 60.032 Z " fill="rgb(136,192,87)"/><path d=" M 215.587 2.598 C 215.353 7.016 215.181 10.208 215.181 10.208 L 208.436 16.952 C 208.436 16.952 214.758 26.013 215.181 27.067 C 215.602 28.121 220.87 29.386 221.925 28.753 C 222.978 28.121 226.983 24.749 228.669 27.067 C 229.842 28.681 229.691 30.089 230.413 31.08 C 230.91 31.087 231.532 31.422 232.306 32.202 C 233.402 32.531 234.651 32.853 235.764 33.122 C 236.134 30.962 235.86 27.108 236.125 25.633 C 233.216 15.145 225.541 6.657 215.587 2.598 Z " fill="rgb(136,192,87)"/><path d=" M 219.697 4.593 C 219.477 8.762 219.299 12.069 219.299 12.069 L 214.471 16.897 C 214.471 16.897 218.997 23.384 219.299 24.138 C 219.6 24.892 223.372 25.797 224.126 25.345 C 224.88 24.892 227.747 22.478 228.954 24.138 C 230.161 25.797 229.406 27.155 231.367 27.759 C 233.025 28.269 235.31 28.775 235.984 28.92 C 235.994 27.578 235.997 26.336 236.124 25.633 C 233.632 16.639 227.63 9.118 219.697 4.593 Z " fill="rgb(250,193,118)"/></g></g><g><path d=" M 35 155 C 54.33 155 70 170.67 70 190 C 70 209.33 54.33 225 35 225 C 15.67 225 0 209.33 0 190 C 0 170.67 15.67 155 35 155 Z " fill="rgb(177,227,251)"/><path d=" M 21.258 157.802 C 22.02 159.147 22.455 160.7 22.455 162.356 C 22.455 167.466 18.312 171.608 13.202 171.608 C 10.767 171.608 8.553 170.668 6.902 169.13 C 10.577 164.19 15.524 160.252 21.258 157.802 Z " fill="rgb(223,245,249)"/><path d=" M 19.666 158.53 C 20.426 159.706 20.866 161.107 20.866 162.61 C 20.866 166.771 17.494 170.143 13.334 170.143 C 11.204 170.143 9.281 169.258 7.911 167.837 C 11.097 163.948 15.103 160.758 19.666 158.53 Z " fill="rgb(232,248,251)"/><path d=" M 63.979 175.122 C 64.343 175.122 64.686 175.181 64.989 175.285 C 65.317 175.066 65.767 174.931 66.263 174.931 C 66.381 174.931 66.496 174.939 66.608 174.953 C 67.183 176.16 67.692 177.405 68.128 178.683 C 67.865 178.881 67.484 179.006 67.06 179.006 C 66.661 179.006 66.299 178.896 66.039 178.716 C 65.778 178.896 65.417 179.006 65.017 179.006 C 64.637 179.006 64.292 178.905 64.035 178.743 C 63.772 178.938 63.394 179.06 62.973 179.06 C 62.58 179.06 62.223 178.954 61.964 178.779 C 61.845 178.797 61.722 178.807 61.595 178.807 C 60.649 178.807 59.883 178.285 59.883 177.642 C 59.883 176.998 60.649 176.477 61.595 176.477 C 61.646 176.477 61.698 176.479 61.748 176.482 C 61.87 175.717 62.822 175.122 63.979 175.122 Z " fill="rgb(255,255,255)"/><path d=" M 18.009 159.396 C 18.75 160.361 19.191 161.569 19.191 162.88 C 19.191 166.038 16.631 168.598 13.473 168.598 C 11.693 168.598 10.104 167.784 9.055 166.509 C 11.621 163.677 14.644 161.269 18.009 159.396 Z " fill="rgb(252,254,254)"/><path d=" M 37.567 167.697 C 37.987 167.697 38.383 167.766 38.734 167.886 C 39.113 167.633 39.633 167.478 40.206 167.478 C 41.2 167.478 42.032 167.945 42.255 168.573 C 42.751 168.675 43.149 168.929 43.331 169.257 C 43.391 169.252 43.452 169.25 43.513 169.25 C 44.43 169.25 45.174 169.756 45.174 170.38 C 45.174 171.004 44.43 171.509 43.513 171.509 C 43.226 171.509 42.957 171.46 42.723 171.375 C 42.521 171.844 41.884 172.187 41.128 172.187 C 40.665 172.187 40.248 172.058 39.947 171.851 C 39.645 172.058 39.228 172.187 38.766 172.187 C 38.328 172.187 37.928 172.071 37.631 171.882 C 37.328 172.108 36.89 172.249 36.405 172.249 C 35.95 172.249 35.538 172.126 35.239 171.924 C 35.102 171.945 34.958 171.955 34.813 171.955 C 33.719 171.955 32.833 171.354 32.833 170.61 C 32.833 169.866 33.719 169.264 34.813 169.264 C 34.872 169.264 34.932 169.265 34.989 169.269 C 35.13 168.386 36.231 167.697 37.567 167.697 Z " fill="rgb(255,255,255)"/><g><path d=" M 36.016 160.65 C 36.016 160.65 36.809 160.48 37.471 160.607 C 38.135 160.734 38.827 161.285 39.576 161.328 C 40.324 161.37 40.169 161.087 40.169 161.087 C 40.169 161.087 39.689 161.158 39.561 160.748 C 39.434 160.339 39.957 160.013 40.762 159.449 C 41.567 158.884 41.722 158.319 41.567 157.966 C 41.567 157.966 41.425 158.192 40.762 158.546 C 40.098 158.899 39.618 159.549 39.096 160.013 C 38.573 160.48 38.544 160.508 38.051 160.409 C 37.556 160.31 36.497 160.155 36.016 160.65 Z " fill="rgb(0,0,0)"/><path d=" M 26.153 167.474 C 26.153 167.474 26.945 167.305 27.607 167.432 C 28.272 167.559 28.964 168.11 29.713 168.152 C 30.461 168.194 30.306 167.912 30.306 167.912 C 30.306 167.912 29.826 167.982 29.698 167.573 C 29.571 167.164 30.094 166.838 30.898 166.274 C 31.704 165.709 31.859 165.144 31.704 164.791 C 31.704 164.791 31.562 165.017 30.898 165.37 C 30.235 165.723 29.755 166.373 29.233 166.838 C 28.71 167.305 28.681 167.332 28.187 167.234 C 27.693 167.135 26.634 166.98 26.153 167.474 Z " fill="rgb(0,0,0)"/><path d=" M 40.084 175.998 C 40.084 175.998 40.876 175.829 41.539 175.955 C 42.203 176.082 42.895 176.634 43.644 176.676 C 44.392 176.718 44.236 176.435 44.236 176.435 C 44.236 176.435 43.756 176.507 43.628 176.097 C 43.502 175.687 44.025 175.362 44.829 174.798 C 45.635 174.233 45.79 173.668 45.635 173.314 C 45.635 173.314 45.493 173.541 44.829 173.894 C 44.165 174.247 43.685 174.897 43.164 175.362 C 42.641 175.829 42.612 175.857 42.118 175.758 C 41.624 175.658 40.564 175.504 40.084 175.998 Z " fill="rgb(0,0,0)"/></g><path d=" M 17.558 176.256 L 9.043 191.004 L 60.957 191.004 L 51.91 176.409 L 42.53 186.644 L 24.453 186.474 L 17.558 176.256 Z " fill="rgb(239,239,239)"/><path d=" M 21.893 191.004 L 27.458 181.239 L 28.795 183.867 L 35.33 172.488 L 41.488 184.594 L 45.195 178.137 L 49.424 186.452 C 48.362 188.198 46.996 189.74 45.401 191.004 L 24.043 191.004 L 21.893 191.004 L 21.893 191.004 Z " fill="rgb(255,255,255)"/><path d=" M 35.33 172.488 L 42.53 186.644 L 45.195 178.137 L 51.808 191.004 L 35.154 191.004 L 36.685 189.629 L 33.02 187.76 L 37.64 185.205 L 35.33 183.926 L 35.33 182.596 L 35.33 172.488 Z " fill="rgb(204,204,204)"/><path d=" M 17.558 176.256 L 20.392 171.119 L 26.313 183.234 L 21.893 191.004 L 9.146 190.826 L 17.558 176.256 Z " fill="rgb(255,255,255)"/><g><path d=" M 20.392 171.119 L 26.313 183.234 L 21.893 191.004 C 20.888 190.004 20.704 187.591 19.97 186.369 L 21.446 184.989 L 18.596 183.477 L 22.188 181.409 L 20.392 180.374 L 20.392 179.298 L 20.392 171.119 L 20.392 171.119 Z " fill="rgb(204,204,204)"/><path d=" M 51.91 176.409 L 48.951 171.163 L 45.371 178.485 L 49.424 186.452 L 51.808 191.004 L 60.957 191.004 L 51.91 176.409 Z " fill="rgb(204,204,204)"/></g><g><path d=" M 48.951 171.163 L 45.371 178.485 L 48.531 184.696 L 49.601 183 L 48.313 180.884 L 49.45 179.686 L 48.118 178.743 L 48.951 171.163 Z " fill="rgb(255,255,255)"/><path d=" M 12.507 174.636 C 12.834 174.636 13.142 174.689 13.416 174.782 C 13.711 174.586 14.116 174.464 14.563 174.464 C 15.335 174.464 15.984 174.828 16.157 175.318 C 16.544 175.396 16.855 175.595 16.996 175.85 C 17.042 175.846 17.089 175.845 17.137 175.845 C 17.35 175.845 17.553 175.88 17.731 175.943 L 17.558 176.256 L 16.798 177.573 C 16.7 177.556 16.608 177.53 16.522 177.499 C 16.365 177.865 15.868 178.131 15.279 178.131 C 14.92 178.131 14.595 178.032 14.36 177.871 C 14.125 178.032 13.8 178.131 13.441 178.131 C 13.099 178.131 12.788 178.041 12.556 177.894 C 12.32 178.07 11.98 178.181 11.602 178.181 C 11.247 178.181 10.927 178.084 10.693 177.927 C 10.587 177.943 10.475 177.951 10.361 177.951 C 9.51 177.951 8.82 177.483 8.82 176.903 C 8.82 176.325 9.51 175.856 10.361 175.856 C 10.408 175.856 10.454 175.857 10.499 175.86 C 10.609 175.171 11.466 174.636 12.507 174.636 Z " fill="rgb(255,255,255)"/></g><path d=" M 0.01 190.826 L 69.989 190.826 C 69.551 209.775 54.054 225 35 225 C 15.946 225 0.449 209.775 0.01 190.826 Z " fill="rgb(127,221,233)"/><path d=" M 1.217 199.17 L 68.783 199.17 C 64.754 214.052 51.157 225 35 225 C 18.843 225 5.246 214.052 1.217 199.17 Z " fill="rgb(76,207,223)"/><path d=" M 4.579 207.318 L 65.42 207.318 C 59.395 217.879 48.029 225 35 225 C 21.97 225 10.605 217.879 4.579 207.318 Z " fill="rgb(38,197,217)"/><path d=" M 10.629 215.117 L 59.371 215.117 C 53.069 221.233 44.475 225 35 225 C 25.524 225 16.931 221.233 10.629 215.117 Z " fill="rgb(49,187,203)"/><path d=" M 17.558 205.574 L 9.043 190.826 L 60.957 190.826 L 51.91 205.422 L 42.53 195.186 L 24.453 195.356 L 17.558 205.574 Z " fill="rgb(194,226,230)"/><path d=" M 21.893 190.826 L 27.458 200.591 L 28.795 197.963 L 35.33 209.343 L 41.488 197.237 L 45.195 203.693 L 49.424 195.378 C 48.362 193.633 46.996 192.091 45.401 190.826 L 24.043 190.826 L 21.893 190.826 L 21.893 190.826 Z " fill="rgb(207,239,243)"/><path d=" M 35.33 209.343 L 42.53 195.186 L 45.195 203.693 L 51.808 190.826 L 35.154 190.826 L 36.685 192.202 L 33.02 194.071 L 37.64 196.626 L 35.33 197.904 L 35.33 199.234 L 35.33 209.343 Z " fill="rgb(166,198,202)"/><path d=" M 17.558 205.574 L 20.392 210.712 L 26.313 198.597 L 21.893 190.826 L 9.146 191.004 L 17.558 205.574 Z " fill="rgb(207,239,243)"/><g><path d=" M 20.392 210.712 L 26.313 198.597 L 21.893 190.826 C 20.888 191.826 20.704 194.239 19.97 195.462 L 21.446 196.842 L 18.596 198.354 L 22.188 200.422 L 20.392 201.456 L 20.392 202.533 L 20.392 210.712 L 20.392 210.712 Z " fill="rgb(166,198,202)"/><path d=" M 51.91 205.422 L 48.951 210.668 L 45.371 203.346 L 49.424 195.378 L 51.808 190.826 L 60.957 190.826 L 51.91 205.422 Z " fill="rgb(166,198,202)"/></g><path d=" M 48.951 210.668 L 45.371 203.346 L 48.531 197.135 L 49.601 198.831 L 48.313 200.947 L 49.45 202.145 L 48.118 203.088 L 48.951 210.668 Z " fill="rgb(207,239,243)"/><path d=" M 9.146 190.826 L 60.957 190.826 L 60.957 191.093 L 9.146 191.093 L 9.146 190.826 Z " fill="rgb(179,179,179)"/></g><g><g><circle vector-effect="non-scaling-stroke" cx="202.40196078431376" cy="364.99987306820077" r="35" fill="rgb(103,185,204)"/><g><path d=" M 182.613 368.621 C 180.447 368.71 178.361 369.465 176.639 370.782 C 175.958 371.463 175.692 372.456 175.942 373.386 C 176.191 374.316 176.917 375.043 177.848 375.292 C 178.778 375.541 179.77 375.275 180.451 374.594 C 181.672 373.374 180.198 370.273 182.613 368.621 Z " fill="rgb(68,130,195)"/><path d=" M 195.161 345.957 C 193.712 344.344 191.801 343.218 189.688 342.73 C 188.729 342.638 187.794 343.065 187.235 343.85 C 186.676 344.635 186.579 345.659 186.98 346.535 C 187.381 347.412 188.219 348.007 189.179 348.097 C 190.897 348.26 192.348 345.149 195.161 345.957 Z " fill="rgb(68,130,195)"/></g><g><path d=" M 179.471 350.517 C 179.467 353.437 178.144 356.198 175.871 358.031 C 173.598 359.863 170.618 360.57 167.764 359.955 C 168.682 353.597 171.339 347.616 175.44 342.672 C 177.971 344.483 179.472 347.405 179.471 350.517 Z " fill="rgb(240,196,25)"/><path d=" M 237.402 365 C 237.412 377.512 230.733 389.074 219.89 395.317 C 227.631 389.461 231.92 380.113 231.31 370.426 C 230.701 360.738 225.275 352.002 216.861 347.162 C 226.438 348.53 234.402 355.23 237.39 364.433 L 237.39 364.445 C 237.402 364.626 237.402 364.819 237.402 365 Z " fill="rgb(68,130,195)"/><path d=" M 231.367 372.241 C 231.368 381.307 227.12 389.848 219.89 395.317 C 219.89 395.317 219.878 395.341 219.866 395.341 C 208.245 402.017 193.836 401.483 182.742 393.966 L 202.402 393.966 C 214.4 393.966 224.126 384.239 224.126 372.241 C 224.126 360.243 214.4 350.517 202.402 350.517 C 201.596 350.519 200.79 350.563 199.988 350.65 C 205.029 347.554 210.992 346.316 216.848 347.15 C 216.852 347.15 216.855 347.151 216.857 347.153 C 216.859 347.156 216.861 347.159 216.861 347.162 C 225.833 352.326 231.364 361.889 231.367 372.241 Z " fill="rgb(40,86,128)"/><path d=" M 224.126 372.241 C 224.108 384.232 214.392 393.947 202.402 393.965 L 182.742 393.965 C 179.797 391.962 177.175 389.52 174.969 386.724 L 202.402 386.724 C 210.304 386.727 216.749 380.395 216.887 372.494 C 217.025 364.593 210.805 358.04 202.907 357.767 C 195.01 357.494 188.352 363.602 187.943 371.493 C 188.175 362.955 192.707 355.114 199.988 350.65 C 200.79 350.563 201.595 350.518 202.402 350.517 C 214.392 350.535 224.108 360.251 224.126 372.241 Z " fill="rgb(68,130,195)"/></g><path d=" M 187.943 371.493 C 187.919 371.734 187.919 371.988 187.919 372.241" fill="rgb(68,130,195)"/><g><path d=" M 187.943 371.493 C 187.919 371.734 187.919 371.988 187.919 372.241" fill="rgb(68,130,195)"/></g></g></g><path d=" M 212.362 106.257 L 205.722 106.204 L 205.953 77.088 L 199.313 77.035 L 199.082 106.151 L 192.442 106.099 L 202.213 130 L 212.362 106.257 Z " fill="rgb(63,173,180)"/><path d=" M 106.15 180 L 106.15 186.667 L 77 186.667 L 77 193.333 L 106.15 193.333 L 106.15 200 L 118.075 195 L 130 190 L 106.15 180 Z " fill="rgb(63,173,180)"/><path d=" M 293.711 207.597 L 293.802 200.931 L 322.949 201.33 L 323.041 194.664 L 293.893 194.265 L 293.985 187.599 L 270 197.271 L 293.711 207.597 Z " fill="rgb(63,173,180)"/><path d=" M 192.363 293.972 L 199.029 293.889 L 199.389 323.037 L 206.055 322.955 L 205.695 293.807 L 212.362 293.725 L 202.068 270 L 192.363 293.972 Z " fill="rgb(63,173,180)"/></g></svg>