<?xml version="1.0" standalone="no"?><svg xmlns="http://www.w3.org/2000/svg" xmlns:xlink="http://www.w3.org/1999/xlink" style="isolation:isolate" viewBox="0 0 70.98 70.98" width="70.98" height="70.98"><defs><clipPath id="_clipPath_el4vWqm1gLmASIhVG9o0OsyQGa1bakLm"><rect width="70.98" height="70.98"/></clipPath></defs><g clip-path="url(#_clipPath_el4vWqm1gLmASIhVG9o0OsyQGa1bakLm)"><circle vector-effect="non-scaling-stroke" cx="35.490196078431374" cy="35.490196078431374" r="35" fill="rgb(250,250,250)" stroke-width="1.5" stroke="rgb(63,173,180)" stroke-linejoin="round" stroke-linecap="butt" stroke-miterlimit="1.414"/><g><path d=" M 21.292 17.332 L 23.908 17.332 L 23.908 54.648 L 21.292 54.648 L 21.292 17.332 Z " fill="rgb(207,216,220)"/><path d=" M 23.908 52.161 L 21.292 52.161 L 21.292 42.958 C 21.292 39.849 23.908 37.234 27.312 37.234 L 46.801 37.234 C 47.706 37.24 48.575 36.901 49.215 36.292 C 49.855 35.684 50.211 34.858 50.205 33.998 L 50.205 26.039 L 52.822 26.039 L 52.822 33.998 C 52.822 37.107 50.205 39.722 46.801 39.722 L 27.312 39.722 C 26.408 39.715 25.538 40.054 24.898 40.663 C 24.258 41.271 23.902 42.098 23.908 42.958 L 23.908 52.161 Z " fill="rgb(207,216,220)"/><path d=" M 17.368 16.088 C 17.368 13.352 19.722 11.113 22.6 11.113 C 25.478 11.113 27.833 13.352 27.833 16.088 C 27.833 18.825 25.478 21.064 22.6 21.064 C 19.722 21.064 17.368 18.825 17.368 16.088 Z  M 51.38 28.527 C 54.258 28.527 56.613 26.288 56.613 23.551 C 56.613 20.815 54.258 18.576 51.38 18.576 C 48.502 18.576 46.147 20.815 46.147 23.551 C 46.147 26.288 48.502 28.527 51.38 28.527 Z " fill="rgb(0,188,212)"/><path d=" M 27.833 55.892 C 27.833 58.641 25.491 60.868 22.6 60.868 C 19.709 60.868 17.368 58.641 17.368 55.892 C 17.368 53.143 19.709 50.917 22.6 50.917 C 25.491 50.917 27.833 53.143 27.833 55.892 Z " fill="rgb(0,151,167)"/></g><g transform="matrix(1,0,0,1,3.49,21.49)"><text transform="matrix(1,0,0,1,0,21.527)" style="font-family:'Titillium Web';font-weight:400;font-size:19px;font-style:normal;fill:#353535;stroke:none;">Coupler</text></g></g></svg>