<?xml version="1.0" standalone="no"?><svg xmlns="http://www.w3.org/2000/svg" xmlns:xlink="http://www.w3.org/1999/xlink" style="isolation:isolate" viewBox="0 0 102 102" width="102" height="102"><defs><clipPath id="_clipPath_5NWRnC6VONtEYi1Y8liArZG0NTDS109m"><rect width="102" height="102"/></clipPath></defs><g clip-path="url(#_clipPath_5NWRnC6VONtEYi1Y8liArZG0NTDS109m)"><circle vector-effect="non-scaling-stroke" cx="50.99999999999999" cy="51.000000000000014" r="49.99999999999999" fill="rgb(250,250,250)" stroke-width="2" stroke="rgb(63,173,180)" stroke-linejoin="round" stroke-linecap="butt" stroke-miterlimit="1.414"/><g><path d=" M 32.45 24.469 L 36.208 24.469 L 36.208 77.531 L 32.45 77.531 L 32.45 24.469 Z " fill="rgb(207,216,220)"/><path d=" M 36.208 73.994 L 32.45 73.994 L 32.45 60.909 C 32.45 56.487 36.208 52.769 41.098 52.769 L 69.094 52.769 C 70.393 52.777 71.642 52.295 72.561 51.43 C 73.48 50.565 73.992 49.39 73.983 48.166 L 73.983 36.85 L 77.742 36.85 L 77.742 48.166 C 77.742 52.588 73.983 56.306 69.094 56.306 L 41.098 56.306 C 39.798 56.297 38.549 56.779 37.63 57.644 C 36.711 58.509 36.199 59.685 36.208 60.909 L 36.208 73.994 Z " fill="rgb(207,216,220)"/><path d=" M 26.813 22.7 C 26.813 18.809 30.195 15.625 34.329 15.625 C 38.463 15.625 41.846 18.809 41.846 22.7 C 41.846 26.591 38.463 29.775 34.329 29.775 C 30.195 29.775 26.813 26.591 26.813 22.7 Z  M 75.671 40.388 C 79.805 40.388 83.188 37.204 83.188 33.313 C 83.188 29.421 79.805 26.238 75.671 26.238 C 71.537 26.238 68.154 29.421 68.154 33.313 C 68.154 37.204 71.537 40.388 75.671 40.388 Z " fill="rgb(0,188,212)"/><path d=" M 41.846 79.3 C 41.846 83.209 38.482 86.375 34.329 86.375 C 30.176 86.375 26.813 83.209 26.813 79.3 C 26.813 75.391 30.176 72.225 34.329 72.225 C 38.482 72.225 41.846 75.391 41.846 79.3 Z " fill="rgb(0,151,167)"/></g><g transform="matrix(1,0,0,1,9,29)"><text transform="matrix(1,0,0,1,0,27.192)" style="font-family:'Titillium Web';font-weight:400;font-size:24px;font-style:normal;letter-spacing:1;fill:#353535;stroke:none;">Coupler</text></g></g></svg>