<svg xmlns="http://www.w3.org/2000/svg" width="100" height="100" viewBox="0 0 70 70" >
<defs fill="none" stroke="none"><mask id="maskSivv4338x2rg"><rect x="35" y="0" width="35" height="70" rx="0" ry="0" fill="#ffffff"></rect></mask></defs><g class="content"><g class="base"><g fill="none" fill-rule="evenodd" stroke="none" class="main-fill">
    
    
  </g><g fill="none" transform="translate(19.09 17.818)" stroke="none" class="main-fill">
      <path d="M15.9090909,8.90909091 C23.1827273,8.90909091 30.5454545,7.37927273 30.5454545,4.45454545 C30.5454545,1.52981818 23.1827273,0 15.9090909,0 C8.63545455,0 1.27272727,1.52981818 1.27272727,4.45454545 C1.27272727,7.37927273 8.63545455,8.90909091 15.9090909,8.90909091 L15.9090909,8.90909091 Z" fill="none" stroke="none" class="main-fill"></path>
      <path d="M15.9090909,17.8181818 C23.1827273,17.8181818 30.5454545,16.2883636 30.5454545,13.3636364 L30.5454545,8.27272727 C30.5454545,7.92145455 30.261,7.63636364 29.9090909,7.63636364 C29.5571818,7.63636364 29.2727273,7.92145455 29.2727273,8.27272727 C29.2727273,9.57027273 24.0666364,11.4545455 15.9090909,11.4545455 C7.75154545,11.4545455 2.54545455,9.57027273 2.54545455,8.27272727 C2.54545455,7.92145455 2.26036364,7.63636364 1.90909091,7.63636364 C1.55781818,7.63636364 1.27272727,7.92145455 1.27272727,8.27272727 L1.27272727,13.3636364 C1.27272727,16.2883636 8.63545455,17.8181818 15.9090909,17.8181818 L15.9090909,17.8181818 Z" fill="none" stroke="none" class="main-fill"></path>
      <path d="M31.1818182,31.8181818 L22.9090909,31.8181818 L22.9090909,31.1818182 C22.9090909,30.8299091 22.6246364,30.5454545 22.2727273,30.5454545 L16.5454545,30.5454545 L16.5454545,26.7228182 C23.6059091,26.6362727 30.5454545,25.1121818 30.5454545,22.2727273 L30.5454545,17.1818182 C30.5454545,16.8305455 30.261,16.5454545 29.9090909,16.5454545 C29.5571818,16.5454545 29.2727273,16.8305455 29.2727273,17.1818182 C29.2727273,18.4793636 24.0666364,20.3636364 15.9090909,20.3636364 C7.75154545,20.3636364 2.54545455,18.4793636 2.54545455,17.1818182 C2.54545455,16.8305455 2.26036364,16.5454545 1.90909091,16.5454545 C1.55781818,16.5454545 1.27272727,16.8305455 1.27272727,17.1818182 L1.27272727,22.2727273 C1.27272727,25.1121818 8.21227273,26.6362727 15.2727273,26.7228182 L15.2727273,30.5454545 L9.54545455,30.5454545 C9.19418182,30.5454545 8.90909091,30.8299091 8.90909091,31.1818182 L8.90909091,31.8181818 L0.636363636,31.8181818 C0.285090909,31.8181818 0,32.1026364 0,32.4545455 C0,32.8064545 0.285090909,33.0909091 0.636363636,33.0909091 L8.90909091,33.0909091 L8.90909091,33.7272727 C8.90909091,34.0791818 9.19418182,34.3636364 9.54545455,34.3636364 L22.2727273,34.3636364 C22.6246364,34.3636364 22.9090909,34.0791818 22.9090909,33.7272727 L22.9090909,33.0909091 L31.1818182,33.0909091 C31.5337273,33.0909091 31.8181818,32.8064545 31.8181818,32.4545455 C31.8181818,32.1026364 31.5337273,31.8181818 31.1818182,31.8181818 L31.1818182,31.8181818 Z" fill="none" stroke="none" class="main-fill"></path>
    </g></g><g class="masked" mask="url('#maskSivv4338x2rg')"><g fill="none" fill-rule="evenodd" stroke="none" class="main-fill--darken">
    
    
  </g><g fill="none" transform="translate(19.09 17.818)" stroke="none" class="main-fill--darken">
      <path d="M15.9090909,8.90909091 C23.1827273,8.90909091 30.5454545,7.37927273 30.5454545,4.45454545 C30.5454545,1.52981818 23.1827273,0 15.9090909,0 C8.63545455,0 1.27272727,1.52981818 1.27272727,4.45454545 C1.27272727,7.37927273 8.63545455,8.90909091 15.9090909,8.90909091 L15.9090909,8.90909091 Z" fill="none" stroke="none" class="main-fill--darken"></path>
      <path d="M15.9090909,17.8181818 C23.1827273,17.8181818 30.5454545,16.2883636 30.5454545,13.3636364 L30.5454545,8.27272727 C30.5454545,7.92145455 30.261,7.63636364 29.9090909,7.63636364 C29.5571818,7.63636364 29.2727273,7.92145455 29.2727273,8.27272727 C29.2727273,9.57027273 24.0666364,11.4545455 15.9090909,11.4545455 C7.75154545,11.4545455 2.54545455,9.57027273 2.54545455,8.27272727 C2.54545455,7.92145455 2.26036364,7.63636364 1.90909091,7.63636364 C1.55781818,7.63636364 1.27272727,7.92145455 1.27272727,8.27272727 L1.27272727,13.3636364 C1.27272727,16.2883636 8.63545455,17.8181818 15.9090909,17.8181818 L15.9090909,17.8181818 Z" fill="none" stroke="none" class="main-fill--darken"></path>
      <path d="M31.1818182,31.8181818 L22.9090909,31.8181818 L22.9090909,31.1818182 C22.9090909,30.8299091 22.6246364,30.5454545 22.2727273,30.5454545 L16.5454545,30.5454545 L16.5454545,26.7228182 C23.6059091,26.6362727 30.5454545,25.1121818 30.5454545,22.2727273 L30.5454545,17.1818182 C30.5454545,16.8305455 30.261,16.5454545 29.9090909,16.5454545 C29.5571818,16.5454545 29.2727273,16.8305455 29.2727273,17.1818182 C29.2727273,18.4793636 24.0666364,20.3636364 15.9090909,20.3636364 C7.75154545,20.3636364 2.54545455,18.4793636 2.54545455,17.1818182 C2.54545455,16.8305455 2.26036364,16.5454545 1.90909091,16.5454545 C1.55781818,16.5454545 1.27272727,16.8305455 1.27272727,17.1818182 L1.27272727,22.2727273 C1.27272727,25.1121818 8.21227273,26.6362727 15.2727273,26.7228182 L15.2727273,30.5454545 L9.54545455,30.5454545 C9.19418182,30.5454545 8.90909091,30.8299091 8.90909091,31.1818182 L8.90909091,31.8181818 L0.636363636,31.8181818 C0.285090909,31.8181818 0,32.1026364 0,32.4545455 C0,32.8064545 0.285090909,33.0909091 0.636363636,33.0909091 L8.90909091,33.0909091 L8.90909091,33.7272727 C8.90909091,34.0791818 9.19418182,34.3636364 9.54545455,34.3636364 L22.2727273,34.3636364 C22.6246364,34.3636364 22.9090909,34.0791818 22.9090909,33.7272727 L22.9090909,33.0909091 L31.1818182,33.0909091 C31.5337273,33.0909091 31.8181818,32.8064545 31.8181818,32.4545455 C31.8181818,32.1026364 31.5337273,31.8181818 31.1818182,31.8181818 L31.1818182,31.8181818 Z" fill="none" stroke="none" class="main-fill--darken"></path>
    </g></g></g><style>
          .main-fill {fill: #3fadb4;}
          .main-fill--darken {fill: #2b777b;}
        </style></svg>