<svg xmlns="http://www.w3.org/2000/svg" width="70" height="70" viewBox="0 0 70 70" style="width: 100%; height: 100%;"><desc>Made with illustrio</desc>
  
<g class="base"><g fill="none" fill-rule="evenodd" stroke="none" class="main-stroke">
    
    <path fill="none" d="M32,24 L32,20 L29.715,20 C29.527,19.273 29.242,18.594 28.867,17.961 L30.484,16.344 L27.656,13.516 L26.041,15.133 C25.41,14.762 24,14.473 24,14.285 L24,12 L20,12 L20,14.285 C20,14.473 18.592,14.762 17.959,15.133 L16.344,13.516 L13.515,16.344 L15.13,17.961 C14.759,18.594 14.47,19.273 14.282,20 L12,20 L12,24 L14.282,24 C14.47,24.73 14.759,25.41 15.132,26.043 L13.515,27.66 L16.344,30.488 L17.961,28.871 C18.592,29.242 20,29.531 20,29.719 L20,32 L24,32 L24,29.719 C24,29.531 25.408,29.242 26.041,28.871 L27.656,30.488 L30.484,27.66 L28.867,26.043 C29.238,25.41 29.527,24.727 29.715,24 L32,24 L32,24 Z M22,26 C19.789,26 18,24.211 18,22 C18,19.793 19.789,18 22,18 C24.207,18 26,19.793 26,22 C26,24.211 24.207,26 22,26 Z M10.745,17.867 C10.27,19.156 9.999,21.801 9.999,21.801 C8.724,21.539 7.54,21.031 6.491,20.34 L4.929,21.902 L2.101,19.074 L3.663,17.512 C2.968,16.461 2.46,15.277 2.2,14 L0,14 L0,10 L2.2,10 C2.46,8.723 2.968,7.539 3.663,6.492 L2.101,4.93 L4.929,2.102 L6.492,3.664 C7.541,2.969 8,2.461 10,2.203 L10,0 L14,0 L14,2.203 C16,2.461 16.461,2.969 17.51,3.664 L19.071,2.102 L21.899,4.93 L20.337,6.492 C21.032,7.539 21.54,8.722 21.798,10 C21.798,10 19.157,10.273 17.864,10.746 C17.289,8.035 14.884,6 11.999,6 C8.685,6 5.999,8.688 5.999,12 C5.999,14.887 8.034,17.289 10.745,17.867 Z M9.999,12 C9.999,13.105 10.894,14 11.999,14 C13.104,14 13.999,13.105 13.999,12 C13.999,10.895 13.104,10 11.999,10 C10.894,10 9.999,10.895 9.999,12 Z" transform="translate(19 19)" stroke="none" class="main-stroke"></path>
  </g></g><style>
          .main-fill {fill: #353535;}
          .main-stroke {stroke: #353535;}
          .secondary-fill {fill: #d9d9d9;}
          .secondary-stroke {stroke: #d9d9d9;}

          .main-fill--darken {fill: #0f0f0f;}
          .main-stroke--darken {stroke: #0f0f0f;}
          .secondary-fill--darken {fill: #b3b3b3;}
          .secondary-stroke--darken {stroke: #b3b3b3;}

          .main-fill--darkener {fill: #000000;}
          .main-stroke--darkener {stroke: #000000;}
          .secondary-fill--darkener {fill: #999999;}
          .secondary-stroke--darkener {stroke: #999999;}
        </style></svg>