<?xml version="1.0" standalone="no"?><svg xmlns="http://www.w3.org/2000/svg" xmlns:xlink="http://www.w3.org/1999/xlink" style="isolation:isolate" viewBox="0 0 104.863 70" width="104.863" height="70"><defs><clipPath id="_clipPath_fCKmGlwJqQYtcwLsKL3lfNoIveBgWTZa"><rect width="104.863" height="70"/></clipPath></defs><g clip-path="url(#_clipPath_fCKmGlwJqQYtcwLsKL3lfNoIveBgWTZa)"><circle vector-effect="non-scaling-stroke" cx="69.86314452486111" cy="35" r="35" fill="rgb(135,220,255)"/><path d=" M 73.939 0.244 L 72.494 4.746 C 72.144 5.835 71.268 6.674 70.164 6.977 L 66.54 7.971 C 66.248 8.051 65.946 8.091 65.644 8.091 L 60.22 8.091 C 59.654 8.091 59.176 8.51 59.101 9.071 L 58.479 13.737 L 55.014 13.918 C 54.432 13.948 53.968 14.418 53.945 15.001 L 53.825 18.011 C 53.798 18.689 54.371 19.238 55.047 19.182 L 57.355 18.989 C 57.949 18.94 58.491 18.632 58.838 18.149 L 60.972 15.171 L 65.538 15.008 C 66.514 14.973 67.204 15.956 66.849 16.866 C 66.054 18.909 66.053 19.084 66.053 19.264 C 66.053 19.888 66.558 20.393 67.182 20.393 C 67.74 20.393 68.204 19.987 68.294 19.456 C 68.371 19.196 68.716 18.294 69.168 17.148 C 69.356 16.67 70.006 16.6 70.289 17.029 L 70.581 17.471 C 71.121 18.287 72.125 18.663 73.069 18.402 L 75.085 17.842 C 75.647 17.686 76.1 17.272 76.306 16.726 L 76.693 15.7 C 76.966 14.975 77.591 14.441 78.349 14.285 L 79.652 14.016 C 80.539 13.833 81.479 14.369 81.633 15.261 C 81.791 16.173 81.15 17.001 80.261 17.103 L 77.119 17.187 C 76.48 17.204 75.967 17.719 75.952 18.358 L 75.945 18.659 C 75.939 18.9 76.072 19.124 76.287 19.234 L 78.094 20.155 C 78.782 20.506 79.006 21.381 78.572 22.019 L 78.572 22.019 C 78.333 22.37 77.936 22.58 77.511 22.58 L 67.983 22.58 C 67.733 22.58 67.486 22.534 67.254 22.442 L 59.259 19.292 C 58.667 19.059 57.994 19.185 57.527 19.617 L 49.955 26.616 C 49.351 27.174 49.098 28.016 49.295 28.814 L 50.834 35.068 C 51.072 36.034 51.913 36.73 52.906 36.783 L 61.437 37.242 C 63.115 37.332 64.474 38.64 64.628 40.314 L 65.275 47.339 C 65.323 47.865 65.462 48.372 65.69 48.848 C 66.409 50.347 68.085 53.756 69.017 54.934 C 70.216 56.452 73.172 56.512 74.168 55.605 L 81.104 49.929 C 81.684 49.401 82.062 48.689 82.175 47.913 L 82.988 42.339 L 88.496 36.269 C 89.033 35.677 88.792 34.77 88.109 34.477 L 88.01 34.543 C 87.592 34.823 87.11 34.993 86.612 35.037 C 86.524 35.045 86.436 35.05 86.348 35.05 C 85.327 35.05 84.38 34.531 83.829 33.656 L 79.624 26.979 C 79.292 26.451 79.451 25.754 79.978 25.421 C 80.51 25.091 81.203 25.249 81.536 25.775 L 85.741 32.453 C 85.886 32.685 86.141 32.81 86.415 32.788 C 86.535 32.777 86.653 32.735 86.754 32.668 L 92.439 29.553 C 93.031 29.228 93.188 28.448 92.767 27.92 L 92.767 27.92 C 92.533 27.626 92.164 27.474 91.791 27.516 L 90.597 27.654 C 90.276 27.691 89.955 27.588 89.714 27.373 L 86.139 24.175 C 85.675 23.76 85.635 23.046 86.051 22.581 C 86.466 22.116 87.179 22.077 87.645 22.493 L 90.843 25.353 L 92.786 25.129 C 93.188 25.079 93.587 25.256 93.826 25.584 L 94.2 26.096 L 96.094 25.869 C 97.014 25.758 97.908 26.221 98.349 27.037 L 102.173 34.107 C 102.45 34.62 102.915 35.005 103.471 35.183 L 104.846 35.666 C 104.85 35.444 104.863 35.224 104.863 35 C 104.863 17.05 91.347 2.264 73.939 0.244 Z  M 88.559 19.564 C 88.367 19.695 88.146 19.758 87.929 19.758 C 87.566 19.758 87.21 19.584 86.993 19.261 L 84.641 15.78 C 84.291 15.264 84.427 14.562 84.944 14.213 C 85.459 13.862 86.163 14 86.511 14.516 L 88.863 17.997 C 89.212 18.513 89.077 19.216 88.559 19.564 Z " fill="rgb(190,232,110)"/><path d=" M 81.342 58.522 C 62.012 58.522 46.342 42.851 46.342 23.522 C 46.342 16.798 48.241 10.519 51.528 5.187 C 41.53 11.348 34.863 22.394 34.863 35 C 34.863 54.33 50.533 70 69.863 70 C 82.469 70 93.515 63.333 99.677 53.335 C 94.344 56.622 88.066 58.522 81.342 58.522 Z " fill="rgb(0,195,255)"/><g><path d=" M 85.104 53.488 C 84.848 53.488 84.59 53.401 84.379 53.223 C 83.901 52.822 83.839 52.11 84.241 51.632 L 87.204 48.104 C 87.605 47.628 88.318 47.565 88.795 47.966 C 89.273 48.368 89.335 49.08 88.933 49.557 L 85.97 53.086 C 85.747 53.351 85.426 53.488 85.104 53.488 Z " fill="rgb(190,232,110)"/><path d=" M 60.234 1.352 L 59.23 4.345 C 59.031 4.936 59.35 5.577 59.941 5.775 C 60.06 5.815 60.182 5.834 60.301 5.834 C 60.773 5.834 61.212 5.536 61.371 5.064 L 62.834 0.707 C 61.953 0.886 61.089 1.108 60.234 1.352 Z " fill="rgb(190,232,110)"/></g><path d=" M 40.725 54.388 L 41.702 45.513 C 41.78 44.817 41.53 44.123 41.025 43.637 L 35 38.002 C 35.512 44.029 37.546 49.621 40.725 54.388 Z " fill="rgb(175,215,85)"/><path d=" M 69.863 0 C 68.597 0 67.348 0.071 66.116 0.202 L 65.999 2.851 C 65.703 3.739 66.182 4.698 67.069 4.994 C 67.247 5.053 67.428 5.081 67.605 5.081 C 68.314 5.081 68.976 4.632 69.212 3.923 L 70.514 0.016 C 70.296 0.012 70.081 0 69.863 0 Z " fill="rgb(190,232,110)"/><path d=" M 15.75 45.093 L 15.75 40.093 L 35 40.093 L 35 35.093 L 15.75 35.093 L 15.75 30.093 L 5.262 35.088 L 0 37.593 L 15.75 45.093 Z " fill="rgb(63,173,180)"/></g></svg>