<svg xmlns="http://www.w3.org/2000/svg" width="70" height="70" viewBox="0 0 70 70" >
  
<defs fill="none" stroke="none"><mask id="maskSivv5e5t12wad"><rect x="35" y="0" width="35" height="70" rx="0" ry="0" fill="#ffffff"></rect></mask></defs><g class="content"><g class="base"><g fill="none" fill-rule="evenodd" stroke="none" class="main-fill">
    
    
  </g><g fill="none" transform="translate(17.818 18.455)" stroke="none" class="main-fill">
      <path d="M27.7779091 20.8536364C27.1466364 15.5667273 22.6354545 11.4545455 17.1818182 11.4545455 11.7281818 11.4545455 7.217 15.5667273 6.58636364 20.8536364 3.30336364 20.8650909.636363636 23.5397273.636363636 26.8252727.636363636 30.1184545 3.31545455 32.7975455 6.60863636 32.7975455L27.755 32.7975455C31.0481818 32.7975455 33.7272727 30.1184545 33.7272727 26.8252727 33.7272727 23.5397273 31.0609091 20.8657273 27.7779091 20.8536364L27.7779091 20.8536364zM4.96872727 5.86854545C5.09281818 5.99263636 5.25572727 6.055 5.41863636 6.055 5.58154545 6.055 5.74445455 5.99263636 5.86854545 5.86854545 6.11736364 5.61972727 6.11736364 5.21754545 5.86854545 4.96872727L4.06890909 3.16909091C3.82009091 2.92027273 3.41790909 2.92027273 3.16909091 3.16909091 2.92027273 3.41790909 2.92027273 3.82009091 3.16909091 4.06890909L4.96872727 5.86854545 4.96872727 5.86854545zM4.96872727 15.7678182L3.16909091 17.5674545C2.92027273 17.8162727 2.92027273 18.2184545 3.16909091 18.4672727 3.29318182 18.5913636 3.45609091 18.6537273 3.619 18.6537273 3.78190909 18.6537273 3.94481818 18.5913636 4.06890909 18.4672727L5.86854545 16.6676364C6.11736364 16.4188182 6.11736364 16.0166364 5.86854545 15.7678182 5.61972727 15.519 5.21690909 15.5196364 4.96872727 15.7678182L4.96872727 15.7678182zM16.2177273 6.055C16.3806364 6.055 16.5435455 5.99263636 16.6676364 5.86854545L18.4672727 4.06890909C18.7160909 3.82009091 18.7160909 3.41790909 18.4672727 3.16909091 18.2184545 2.92027273 17.8162727 2.92027273 17.5674545 3.16909091L15.7678182 4.96872727C15.519 5.21754545 15.519 5.61972727 15.7678182 5.86854545 15.8925455 5.99263636 16.0548182 6.055 16.2177273 6.055L16.2177273 6.055zM10.8181818 3.81818182C11.1694545 3.81818182 11.4545455 3.53309091 11.4545455 3.18181818L11.4545455.636363636C11.4545455.285090909 11.1694545 0 10.8181818 0 10.4669091 0 10.1818182.285090909 10.1818182.636363636L10.1818182 3.18181818C10.1818182 3.53309091 10.4669091 3.81818182 10.8181818 3.81818182L10.8181818 3.81818182zM3.18181818 11.4545455C3.53309091 11.4545455 3.81818182 11.1694545 3.81818182 10.8181818 3.81818182 10.4669091 3.53309091 10.1818182 3.18181818 10.1818182L.636363636 10.1818182C.285090909 10.1818182 0 10.4669091 0 10.8181818 0 11.1694545.285090909 11.4545455.636363636 11.4545455L3.18181818 11.4545455 3.18181818 11.4545455z" fill="none" stroke="none" class="main-fill"></path>
      <path d="M7.10627273,15.491 C7.22336364,15.5947273 7.37354545,15.6507273 7.52818182,15.6507273 C7.54918182,15.6507273 7.57018182,15.6500909 7.59181818,15.6475455 C7.76809091,15.6297273 7.92972727,15.5393636 8.03663636,15.3968182 C9.88909091,12.9372727 12.6916364,11.3056364 15.7258182,10.9206364 C15.9020909,10.8983636 16.0611818,10.8029091 16.1636364,10.6584545 C16.2667273,10.5133636 16.3049091,10.3326364 16.268,10.1582727 C15.729,7.59118182 13.4310909,5.72727273 10.8041818,5.72727273 C7.72418182,5.72727273 5.21881818,8.23327273 5.21881818,11.3132727 C5.21818182,12.9054545 5.90672727,14.4282727 7.10627273,15.491 L7.10627273,15.491 Z" fill="none" stroke="none" class="main-fill"></path>
    </g></g><g class="masked" mask="url('#maskSivv5e5t12wad')"><g fill="none" fill-rule="evenodd" stroke="none" class="main-fill--darken">
    
    
  </g><g fill="none" transform="translate(17.818 18.455)" stroke="none" class="main-fill--darken">
      <path d="M27.7779091 20.8536364C27.1466364 15.5667273 22.6354545 11.4545455 17.1818182 11.4545455 11.7281818 11.4545455 7.217 15.5667273 6.58636364 20.8536364 3.30336364 20.8650909.636363636 23.5397273.636363636 26.8252727.636363636 30.1184545 3.31545455 32.7975455 6.60863636 32.7975455L27.755 32.7975455C31.0481818 32.7975455 33.7272727 30.1184545 33.7272727 26.8252727 33.7272727 23.5397273 31.0609091 20.8657273 27.7779091 20.8536364L27.7779091 20.8536364zM4.96872727 5.86854545C5.09281818 5.99263636 5.25572727 6.055 5.41863636 6.055 5.58154545 6.055 5.74445455 5.99263636 5.86854545 5.86854545 6.11736364 5.61972727 6.11736364 5.21754545 5.86854545 4.96872727L4.06890909 3.16909091C3.82009091 2.92027273 3.41790909 2.92027273 3.16909091 3.16909091 2.92027273 3.41790909 2.92027273 3.82009091 3.16909091 4.06890909L4.96872727 5.86854545 4.96872727 5.86854545zM4.96872727 15.7678182L3.16909091 17.5674545C2.92027273 17.8162727 2.92027273 18.2184545 3.16909091 18.4672727 3.29318182 18.5913636 3.45609091 18.6537273 3.619 18.6537273 3.78190909 18.6537273 3.94481818 18.5913636 4.06890909 18.4672727L5.86854545 16.6676364C6.11736364 16.4188182 6.11736364 16.0166364 5.86854545 15.7678182 5.61972727 15.519 5.21690909 15.5196364 4.96872727 15.7678182L4.96872727 15.7678182zM16.2177273 6.055C16.3806364 6.055 16.5435455 5.99263636 16.6676364 5.86854545L18.4672727 4.06890909C18.7160909 3.82009091 18.7160909 3.41790909 18.4672727 3.16909091 18.2184545 2.92027273 17.8162727 2.92027273 17.5674545 3.16909091L15.7678182 4.96872727C15.519 5.21754545 15.519 5.61972727 15.7678182 5.86854545 15.8925455 5.99263636 16.0548182 6.055 16.2177273 6.055L16.2177273 6.055zM10.8181818 3.81818182C11.1694545 3.81818182 11.4545455 3.53309091 11.4545455 3.18181818L11.4545455.636363636C11.4545455.285090909 11.1694545 0 10.8181818 0 10.4669091 0 10.1818182.285090909 10.1818182.636363636L10.1818182 3.18181818C10.1818182 3.53309091 10.4669091 3.81818182 10.8181818 3.81818182L10.8181818 3.81818182zM3.18181818 11.4545455C3.53309091 11.4545455 3.81818182 11.1694545 3.81818182 10.8181818 3.81818182 10.4669091 3.53309091 10.1818182 3.18181818 10.1818182L.636363636 10.1818182C.285090909 10.1818182 0 10.4669091 0 10.8181818 0 11.1694545.285090909 11.4545455.636363636 11.4545455L3.18181818 11.4545455 3.18181818 11.4545455z" fill="none" stroke="none" class="main-fill--darken"></path>
      <path d="M7.10627273,15.491 C7.22336364,15.5947273 7.37354545,15.6507273 7.52818182,15.6507273 C7.54918182,15.6507273 7.57018182,15.6500909 7.59181818,15.6475455 C7.76809091,15.6297273 7.92972727,15.5393636 8.03663636,15.3968182 C9.88909091,12.9372727 12.6916364,11.3056364 15.7258182,10.9206364 C15.9020909,10.8983636 16.0611818,10.8029091 16.1636364,10.6584545 C16.2667273,10.5133636 16.3049091,10.3326364 16.268,10.1582727 C15.729,7.59118182 13.4310909,5.72727273 10.8041818,5.72727273 C7.72418182,5.72727273 5.21881818,8.23327273 5.21881818,11.3132727 C5.21818182,12.9054545 5.90672727,14.4282727 7.10627273,15.491 L7.10627273,15.491 Z" fill="none" stroke="none" class="main-fill--darken"></path>
    </g></g></g><style>
          .main-fill {fill: #3fadb4;}
          .main-stroke {stroke: #3fadb4;}
          .secondary-fill {fill: #fff;}
          .secondary-stroke {stroke: #fff;}

          .main-fill--darken {fill: #2b777b;}
          .main-stroke--darken {stroke: #2b777b;}
          .secondary-fill--darken {fill: #d9d9d9;}
          .secondary-stroke--darken {stroke: #d9d9d9;}

          .main-fill--darkener {fill: #1e5256;}
          .main-stroke--darkener {stroke: #1e5256;}
          .secondary-fill--darkener {fill: #bfbfbf;}
          .secondary-stroke--darkener {stroke: #bfbfbf;}
        </style></svg>