<svg xmlns="http://www.w3.org/2000/svg" width="100" height="100" viewBox="0 0 70 70" >
  
<defs fill="none" stroke="none"><mask id="maskSivjjwi8n6q2m"><rect x="35" y="0" width="35" height="70" rx="0" ry="0" fill="#ffffff"></rect></mask></defs><g class="content"><g class="base"><g fill="none" fill-rule="evenodd" stroke="none" class="main-fill">
    
    <path fill="none" d="M23.375,10 C22.461,6 20.578,2.945 17.984,0.301 C23.184,1.348 27.402,5 29.137,10 L23.375,10 Z M24,15 C24,16.727 23.766,19 23.375,20 L29.137,20 C29.691,19 30,16.754 30,15 C30,13.973 29.887,13 29.688,12 L23.762,12 C23.902,13 24,13.98 24,15 Z M22.773,22 C21.742,25 20.105,27.539 17.984,29.703 C22.449,28.801 26.184,26 28.254,22 L22.773,22 Z M8,15 C8,16.734 8.258,19 8.691,20 L21.304,20 C21.742,19 22,16.734 22,15 C22,13.977 21.891,13 21.734,12 L8.266,12 C8.109,13 8,13.977 8,15 Z M21.305,10 C20.25,6 18.023,2.742 15,0.273 C11.977,2.742 9.75,6 8.691,10 L21.305,10 Z M9.359,22 C10.566,25 12.507,27.695 15,29.727 C17.488,27.695 19.43,25 20.637,22 L9.359,22 Z M6.625,10 C7.539,6 9.418,2.945 12.016,0.301 C6.816,1.348 2.598,5 0.859,10 L6.625,10 Z M1.746,22 C3.812,26 7.551,28.801 12.016,29.703 C9.895,27.539 8.258,25 7.223,22 L1.746,22 Z M6,15 C6,13.98 6.098,13 6.238,12 L0.312,12 C0.113,13 0,13.973 0,15 C0,16.754 0.305,19 0.859,20 L6.625,20 C6.23,19 6,16.727 6,15 Z" transform="translate(20 20)" stroke="none" class="main-fill"></path>
  </g></g><g class="masked" mask="url('#maskSivjjwi8n6q2m')"><g fill="none" fill-rule="evenodd" stroke="none" class="main-fill--darken">
    
    <path fill="none" d="M23.375,10 C22.461,6 20.578,2.945 17.984,0.301 C23.184,1.348 27.402,5 29.137,10 L23.375,10 Z M24,15 C24,16.727 23.766,19 23.375,20 L29.137,20 C29.691,19 30,16.754 30,15 C30,13.973 29.887,13 29.688,12 L23.762,12 C23.902,13 24,13.98 24,15 Z M22.773,22 C21.742,25 20.105,27.539 17.984,29.703 C22.449,28.801 26.184,26 28.254,22 L22.773,22 Z M8,15 C8,16.734 8.258,19 8.691,20 L21.304,20 C21.742,19 22,16.734 22,15 C22,13.977 21.891,13 21.734,12 L8.266,12 C8.109,13 8,13.977 8,15 Z M21.305,10 C20.25,6 18.023,2.742 15,0.273 C11.977,2.742 9.75,6 8.691,10 L21.305,10 Z M9.359,22 C10.566,25 12.507,27.695 15,29.727 C17.488,27.695 19.43,25 20.637,22 L9.359,22 Z M6.625,10 C7.539,6 9.418,2.945 12.016,0.301 C6.816,1.348 2.598,5 0.859,10 L6.625,10 Z M1.746,22 C3.812,26 7.551,28.801 12.016,29.703 C9.895,27.539 8.258,25 7.223,22 L1.746,22 Z M6,15 C6,13.98 6.098,13 6.238,12 L0.312,12 C0.113,13 0,13.973 0,15 C0,16.754 0.305,19 0.859,20 L6.625,20 C6.23,19 6,16.727 6,15 Z" transform="translate(20 20)" stroke="none" class="main-fill--darken"></path>
  </g></g></g><style>
          .main-fill {fill: #3fadb4;}

          .main-fill--darken {fill: #2b777b;}
        </style></svg>