<?xml version="1.0" standalone="no"?><svg xmlns="http://www.w3.org/2000/svg" xmlns:xlink="http://www.w3.org/1999/xlink" style="isolation:isolate" viewBox="0 0 105 70" width="105" height="70"><defs><clipPath id="_clipPath_zG74rn9L08YMl0Rl5ghZGzWqFSYA1xlq"><rect width="105" height="70"/></clipPath></defs><g clip-path="url(#_clipPath_zG74rn9L08YMl0Rl5ghZGzWqFSYA1xlq)"><clipPath id="_clipPath_EgF3ToHbdlgzgzVRYyeX7Mk8xzWGKsnM"><rect x="0" y="0" width="105" height="70" transform="matrix(1,0,0,1,0,0)" fill="rgb(255,255,255)"/></clipPath><g clip-path="url(#_clipPath_EgF3ToHbdlgzgzVRYyeX7Mk8xzWGKsnM)"><g><path d=" M 35 0 C 54.33 0 70 15.67 70 35 C 70 54.33 54.33 70 35 70 C 15.67 70 0 54.33 0 35 C 0 15.67 15.67 0 35 0 Z " fill="rgb(177,227,251)"/><path d=" M 21.258 2.802 C 22.02 4.147 22.455 5.7 22.455 7.356 C 22.455 12.466 18.312 16.608 13.202 16.608 C 10.767 16.608 8.553 15.668 6.902 14.13 C 10.577 9.19 15.524 5.252 21.258 2.802 Z " fill="rgb(223,245,249)"/><path d=" M 19.666 3.53 C 20.426 4.706 20.866 6.107 20.866 7.61 C 20.866 11.771 17.494 15.143 13.334 15.143 C 11.204 15.143 9.281 14.258 7.911 12.837 C 11.097 8.948 15.103 5.758 19.666 3.53 Z " fill="rgb(232,248,251)"/><path d=" M 63.979 20.122 C 64.343 20.122 64.686 20.181 64.989 20.285 C 65.317 20.066 65.767 19.931 66.263 19.931 C 66.381 19.931 66.496 19.939 66.608 19.953 C 67.183 21.16 67.692 22.405 68.128 23.683 C 67.865 23.881 67.484 24.006 67.06 24.006 C 66.661 24.006 66.299 23.896 66.039 23.716 C 65.778 23.896 65.417 24.006 65.017 24.006 C 64.637 24.006 64.292 23.905 64.035 23.743 C 63.772 23.938 63.394 24.06 62.973 24.06 C 62.58 24.06 62.223 23.954 61.964 23.779 C 61.845 23.797 61.722 23.807 61.595 23.807 C 60.649 23.807 59.883 23.285 59.883 22.642 C 59.883 21.998 60.649 21.477 61.595 21.477 C 61.646 21.477 61.698 21.479 61.748 21.482 C 61.87 20.717 62.822 20.122 63.979 20.122 Z " fill="rgb(255,255,255)"/><path d=" M 18.009 4.396 C 18.75 5.361 19.191 6.569 19.191 7.88 C 19.191 11.038 16.631 13.598 13.473 13.598 C 11.693 13.598 10.104 12.784 9.055 11.509 C 11.621 8.677 14.644 6.269 18.009 4.396 Z " fill="rgb(252,254,254)"/><path d=" M 37.567 12.697 C 37.987 12.697 38.383 12.766 38.734 12.886 C 39.113 12.633 39.633 12.477 40.206 12.477 C 41.2 12.477 42.032 12.945 42.255 13.573 C 42.751 13.675 43.149 13.929 43.331 14.257 C 43.391 14.252 43.452 14.25 43.513 14.25 C 44.43 14.25 45.174 14.756 45.174 15.38 C 45.174 16.004 44.43 16.509 43.513 16.509 C 43.226 16.509 42.957 16.46 42.723 16.375 C 42.521 16.844 41.884 17.187 41.128 17.187 C 40.665 17.187 40.248 17.058 39.947 16.851 C 39.645 17.058 39.228 17.187 38.766 17.187 C 38.328 17.187 37.928 17.071 37.631 16.882 C 37.328 17.108 36.89 17.249 36.405 17.249 C 35.95 17.249 35.538 17.126 35.239 16.924 C 35.102 16.945 34.958 16.955 34.813 16.955 C 33.719 16.955 32.833 16.354 32.833 15.61 C 32.833 14.866 33.719 14.264 34.813 14.264 C 34.872 14.264 34.932 14.265 34.989 14.269 C 35.13 13.386 36.231 12.697 37.567 12.697 Z " fill="rgb(255,255,255)"/><g><path d=" M 36.016 5.65 C 36.016 5.65 36.809 5.48 37.471 5.607 C 38.135 5.734 38.827 6.285 39.576 6.328 C 40.324 6.37 40.169 6.087 40.169 6.087 C 40.169 6.087 39.689 6.158 39.561 5.748 C 39.434 5.339 39.957 5.013 40.762 4.449 C 41.567 3.884 41.722 3.319 41.567 2.966 C 41.567 2.966 41.425 3.192 40.762 3.546 C 40.098 3.899 39.618 4.549 39.096 5.013 C 38.573 5.48 38.544 5.508 38.051 5.409 C 37.556 5.31 36.497 5.155 36.016 5.65 Z " fill="rgb(0,0,0)"/><path d=" M 26.153 12.474 C 26.153 12.474 26.945 12.305 27.607 12.432 C 28.272 12.559 28.964 13.11 29.713 13.152 C 30.461 13.194 30.306 12.912 30.306 12.912 C 30.306 12.912 29.826 12.982 29.698 12.573 C 29.571 12.164 30.094 11.838 30.898 11.274 C 31.704 10.709 31.859 10.144 31.704 9.791 C 31.704 9.791 31.562 10.017 30.898 10.37 C 30.235 10.723 29.755 11.373 29.233 11.838 C 28.71 12.305 28.681 12.332 28.187 12.234 C 27.693 12.135 26.634 11.98 26.153 12.474 Z " fill="rgb(0,0,0)"/><path d=" M 40.084 20.998 C 40.084 20.998 40.876 20.829 41.539 20.955 C 42.203 21.082 42.895 21.634 43.644 21.676 C 44.392 21.718 44.236 21.435 44.236 21.435 C 44.236 21.435 43.756 21.507 43.628 21.097 C 43.502 20.687 44.025 20.362 44.829 19.798 C 45.635 19.233 45.79 18.668 45.635 18.314 C 45.635 18.314 45.493 18.541 44.829 18.894 C 44.165 19.247 43.685 19.897 43.164 20.362 C 42.641 20.829 42.612 20.857 42.118 20.758 C 41.624 20.658 40.564 20.504 40.084 20.998 Z " fill="rgb(0,0,0)"/></g><path d=" M 17.558 21.256 L 9.043 36.004 L 60.957 36.004 L 51.91 21.409 L 42.53 31.644 L 24.453 31.474 L 17.558 21.256 L 17.558 21.256 Z " fill="rgb(239,239,239)"/><path d=" M 21.893 36.004 L 27.458 26.239 L 28.795 28.867 L 35.33 17.488 L 41.488 29.594 L 45.195 23.137 L 49.424 31.452 C 48.362 33.198 46.996 34.74 45.401 36.004 L 24.043 36.004 L 21.893 36.004 L 21.893 36.004 L 21.893 36.004 Z " fill="rgb(255,255,255)"/><path d=" M 35.33 17.488 L 42.53 31.644 L 45.195 23.137 L 51.808 36.004 L 35.154 36.004 L 36.685 34.629 L 33.02 32.76 L 37.64 30.205 L 35.33 28.926 L 35.33 27.596 L 35.33 17.488 L 35.33 17.488 Z " fill="rgb(204,204,204)"/><path d=" M 17.558 21.256 L 20.392 16.119 L 26.313 28.234 L 21.893 36.004 L 9.146 35.826 L 17.558 21.256 L 17.558 21.256 Z " fill="rgb(255,255,255)"/><g><path d=" M 20.392 16.119 L 26.313 28.234 L 21.893 36.004 C 20.888 35.004 20.704 32.591 19.97 31.369 L 21.446 29.989 L 18.596 28.477 L 22.188 26.409 L 20.392 25.374 L 20.392 24.298 L 20.392 16.119 L 20.392 16.119 L 20.392 16.119 Z " fill="rgb(204,204,204)"/><path d=" M 51.91 21.409 L 48.951 16.163 L 45.371 23.485 L 49.424 31.452 L 51.808 36.004 L 60.957 36.004 L 51.91 21.409 L 51.91 21.409 Z " fill="rgb(204,204,204)"/></g><g><path d=" M 48.951 16.163 L 45.371 23.485 L 48.531 29.696 L 49.601 28 L 48.313 25.884 L 49.45 24.686 L 48.118 23.743 L 48.951 16.163 L 48.951 16.163 Z " fill="rgb(255,255,255)"/><path d=" M 12.507 19.636 C 12.834 19.636 13.142 19.689 13.416 19.782 C 13.711 19.586 14.116 19.464 14.563 19.464 C 15.335 19.464 15.984 19.828 16.157 20.318 C 16.544 20.396 16.855 20.595 16.996 20.85 C 17.042 20.846 17.089 20.845 17.137 20.845 C 17.35 20.845 17.553 20.88 17.731 20.943 L 17.558 21.256 L 16.798 22.573 C 16.7 22.556 16.608 22.53 16.522 22.499 C 16.365 22.865 15.868 23.131 15.279 23.131 C 14.92 23.131 14.595 23.032 14.36 22.871 C 14.125 23.032 13.8 23.131 13.441 23.131 C 13.099 23.131 12.788 23.041 12.556 22.894 C 12.32 23.07 11.98 23.181 11.602 23.181 C 11.247 23.181 10.927 23.084 10.693 22.927 C 10.587 22.943 10.475 22.951 10.361 22.951 C 9.51 22.951 8.82 22.483 8.82 21.903 C 8.82 21.325 9.51 20.856 10.361 20.856 C 10.408 20.856 10.454 20.857 10.499 20.86 C 10.609 20.171 11.466 19.636 12.507 19.636 Z " fill="rgb(255,255,255)"/></g><path d=" M 0.01 35.826 L 69.989 35.826 C 69.551 54.775 54.054 70 35 70 C 15.946 70 0.449 54.775 0.01 35.826 Z " fill="rgb(127,221,233)"/><path d=" M 1.217 44.17 L 68.783 44.17 C 64.754 59.052 51.157 70 35 70 C 18.843 70 5.246 59.052 1.217 44.17 Z " fill="rgb(76,207,223)"/><path d=" M 4.579 52.318 L 65.42 52.318 C 59.395 62.879 48.029 70 35 70 C 21.97 70 10.605 62.879 4.579 52.318 Z " fill="rgb(38,197,217)"/><path d=" M 10.629 60.117 L 59.371 60.117 C 53.069 66.233 44.475 70 35 70 C 25.524 70 16.931 66.233 10.629 60.117 Z " fill="rgb(49,187,203)"/><path d=" M 17.558 50.574 L 9.043 35.826 L 60.957 35.826 L 51.91 50.422 L 42.53 40.186 L 24.453 40.356 L 17.558 50.574 L 17.558 50.574 Z " fill="rgb(194,226,230)"/><path d=" M 21.893 35.826 L 27.458 45.591 L 28.795 42.963 L 35.33 54.343 L 41.488 42.237 L 45.195 48.693 L 49.424 40.378 C 48.362 38.633 46.996 37.091 45.401 35.826 L 24.043 35.826 L 21.893 35.826 L 21.893 35.826 L 21.893 35.826 Z " fill="rgb(207,239,243)"/><path d=" M 35.33 54.343 L 42.53 40.186 L 45.195 48.693 L 51.808 35.826 L 35.154 35.826 L 36.685 37.202 L 33.02 39.071 L 37.64 41.626 L 35.33 42.904 L 35.33 44.234 L 35.33 54.343 L 35.33 54.343 Z " fill="rgb(166,198,202)"/><path d=" M 17.558 50.574 L 20.392 55.712 L 26.313 43.597 L 21.893 35.826 L 9.146 36.004 L 17.558 50.574 L 17.558 50.574 Z " fill="rgb(207,239,243)"/><g><path d=" M 20.392 55.712 L 26.313 43.597 L 21.893 35.826 C 20.888 36.826 20.704 39.239 19.97 40.462 L 21.446 41.842 L 18.596 43.354 L 22.188 45.422 L 20.392 46.456 L 20.392 47.533 L 20.392 55.712 L 20.392 55.712 L 20.392 55.712 Z " fill="rgb(166,198,202)"/><path d=" M 51.91 50.422 L 48.951 55.668 L 45.371 48.346 L 49.424 40.378 L 51.808 35.826 L 60.957 35.826 L 51.91 50.422 L 51.91 50.422 Z " fill="rgb(166,198,202)"/></g><path d=" M 48.951 55.668 L 45.371 48.346 L 48.531 42.135 L 49.601 43.831 L 48.313 45.947 L 49.45 47.145 L 48.118 48.088 L 48.951 55.668 L 48.951 55.668 Z " fill="rgb(207,239,243)"/><path d=" M 9.146 35.826 L 60.957 35.826 L 60.957 36.093 L 9.146 36.093 L 9.146 35.826 L 9.146 35.826 Z " fill="rgb(179,179,179)"/><path d=" M 89.25 26.746 L 89.25 31.746 L 70 31.746 L 70 36.746 L 89.25 36.746 L 89.25 41.746 L 105 34.246 L 89.25 26.746 L 89.25 26.746 Z " fill="rgb(63,173,180)"/></g></g></g></svg>