<?xml version="1.0" standalone="no"?><svg xmlns="http://www.w3.org/2000/svg" xmlns:xlink="http://www.w3.org/1999/xlink" style="isolation:isolate" viewBox="0 0 105 70" width="105" height="70"><defs><clipPath id="_clipPath_755JljXx3nrsOOuMvLEAYzT8XZgtZBw4"><rect width="105" height="70"/></clipPath></defs><g clip-path="url(#_clipPath_755JljXx3nrsOOuMvLEAYzT8XZgtZBw4)"><path d=" M 89.25 27.5 L 89.25 32.5 L 70 32.5 L 70 37.5 L 89.25 37.5 L 89.25 42.5 L 99.738 37.505 L 105 35 L 89.25 27.5 Z " fill="rgb(63,173,180)"/><g><g><circle vector-effect="non-scaling-stroke" cx="35" cy="35" r="35" fill="rgb(141,217,255)"/></g><g style="opacity:0.3;"><g opacity="0.3"><path d=" M 0.805 27.54 C 0.282 29.945 0 32.439 0 35 C 0 37.561 0.283 40.055 0.805 42.46 C 10.003 50.044 32.794 55.417 59.473 55.417 C 60.81 55.417 62.134 55.399 63.451 55.372 C 67.568 49.632 70 42.602 70 35 C 70 27.398 67.568 20.367 63.451 14.628 C 62.134 14.601 60.81 14.583 59.473 14.583 C 32.794 14.583 10.003 19.956 0.805 27.54 Z " fill="rgb(255,255,244)"/></g></g><g style="opacity:0.4;"><g opacity="0.4"><path d=" M 0 35 C 0 42.396 2.3 49.252 6.215 54.903 C 18.877 58.465 36.723 61.048 57.179 62.074 C 65.005 55.655 70 45.912 70 35 C 70 30.346 69.084 25.907 67.434 21.845 C 39.087 22.51 14.634 26.12 0.197 31.296 C 0.068 32.513 0 33.748 0 35 Z " fill="rgb(255,255,244)"/></g></g><g><path d=" M 24.063 19.688 C 22.832 19.961 21.328 22.832 19.688 22.969 C 18.047 23.105 15.039 22.969 14.219 24.063 C 13.825 24.588 13.306 26.664 12.872 28.438 L 30.283 28.438 L 31.126 23.288 C 29.759 22.331 25.293 19.414 24.063 19.688 Z " fill="rgb(187,230,255)"/></g><g><path d=" M 0 35 C 0 54.33 15.67 70 35 70 C 54.33 70 70 54.33 70 35 C 70 32.756 69.78 30.564 69.377 28.438 L 0.623 28.438 C 0.22 30.564 0 32.756 0 35 Z " fill="rgb(59,135,197)"/></g><g><path d=" M 34.942 35 C 21.995 35 10.119 37.811 0.813 42.494 C 4.109 57.599 17.152 69.057 33.023 69.941 C 33.682 69.963 34.336 70 35.002 70 C 35.011 70 35.02 69.999 35.028 69.999 C 35.681 69.999 36.322 69.963 36.969 69.942 C 52.826 69.062 65.859 57.627 69.175 42.547 C 59.853 37.832 47.937 35 34.942 35 Z " fill="rgb(60,155,212)"/></g><g><path d=" M 25.931 12.57 C 25.587 12.57 25.261 12.638 24.95 12.736 C 23.962 11.316 22.323 10.383 20.462 10.383 C 18.601 10.383 16.963 11.316 15.975 12.736 C 15.663 12.638 15.338 12.57 14.994 12.57 C 13.181 12.57 11.712 14.039 11.712 15.851 L 29.212 15.851 C 29.212 14.039 27.743 12.57 25.931 12.57 Z " fill="rgb(255,255,255)"/></g><g><path d=" M 21.556 12.897 C 21.556 11.339 22.819 10.075 24.378 10.075 C 24.613 10.075 24.838 10.113 25.057 10.167 C 25.793 9.372 26.837 8.866 28.006 8.866 C 30.233 8.866 32.038 10.671 32.038 12.897 L 21.556 12.897 L 21.556 12.897 Z " fill="rgb(255,255,255)"/></g><g style="opacity:0.5;"><g opacity="0.5"><path d=" M 35 10.045 C 35 8.717 36.077 7.64 37.405 7.64 C 37.605 7.64 37.797 7.672 37.983 7.718 C 38.611 7.04 39.501 6.609 40.497 6.609 C 42.394 6.609 43.932 8.147 43.932 10.045 L 35 10.045 Z " fill="rgb(255,255,255)"/></g></g><g style="opacity:0.5;"><g opacity="0.5"><path d=" M 54.323 19.669 C 54.323 18.341 55.4 17.265 56.728 17.265 C 56.928 17.265 57.12 17.296 57.306 17.342 C 57.934 16.665 58.823 16.234 59.82 16.234 C 61.717 16.234 63.255 17.772 63.255 19.669 L 54.323 19.669 Z " fill="rgb(255,255,255)"/></g></g><g style="opacity:0.5;"><g opacity="0.5"><path d=" M 26.331 7.015 C 26.331 6.063 27.102 5.292 28.054 5.292 C 28.198 5.292 28.335 5.315 28.469 5.348 C 28.918 4.862 29.556 4.553 30.27 4.553 C 31.629 4.553 32.732 5.656 32.732 7.015 L 26.331 7.015 Z " fill="rgb(255,255,255)"/></g></g><g><path d=" M 47.624 17.5 C 47.624 15.738 49.052 14.31 50.814 14.31 C 51.08 14.31 51.334 14.352 51.581 14.413 C 52.413 13.514 53.593 12.943 54.915 12.943 C 57.432 12.943 59.473 14.983 59.473 17.5 L 47.624 17.5 Z " fill="rgb(255,255,255)"/></g><g><path d=" M 55.781 28.438 C 55.781 24.974 52.802 23.636 51.406 22.969 C 49.751 22.177 46.302 22.422 44.844 19.688 C 43.385 16.953 42.378 15.313 41.563 15.313 C 40.013 15.313 36.185 16.042 33.906 18.594 C 32.053 20.669 32.448 22.604 29.531 24.063 C 28.653 24.502 26.25 25.151 26.25 28.438 C 26.25 28.529 26.25 32.539 26.25 33.906 C 26.25 38.008 30.99 40.833 32.813 41.563 C 34.635 42.292 36.943 60.156 39.375 60.156 C 41.745 60.156 44.479 51.224 45.938 50.313 C 47.396 49.401 50.313 49.234 50.313 44.844 C 50.313 40.56 50.313 35 50.313 35 C 53.227 32.085 55.781 35.547 55.781 28.438 Z " fill="rgb(187,230,255)"/></g><g><path d=" M 12.872 28.438 C 12.691 29.176 12.524 29.864 12.388 30.362 C 12.156 31.215 12.29 32.118 12.761 32.867 C 14.183 35.129 17.213 40.072 17.5 41.563 C 18.525 46.895 20.781 47.578 21.875 50.313 C 22.443 51.732 25.361 50.859 26.25 50.313 C 27.504 49.541 29.531 40.469 29.531 40.469 L 30.283 28.438 L 12.872 28.438 Z " fill="rgb(117,195,240)"/></g><g><path d=" M 32.813 41.563 C 34.635 42.292 36.943 60.156 39.375 60.156 C 41.745 60.156 44.479 51.224 45.938 50.313 C 47.396 49.401 50.313 49.234 50.313 44.844 C 50.313 40.56 50.313 35 50.313 35 C 53.227 32.085 55.781 35.547 55.781 28.438 L 26.25 28.438 C 26.25 28.529 26.25 32.539 26.25 33.906 C 26.25 38.008 30.99 40.833 32.813 41.563 Z " fill="rgb(141,217,255)"/></g><g><path d=" M 24.063 19.688 C 22.832 19.961 21.328 22.832 19.688 22.969 C 18.047 23.105 15.039 22.969 14.219 24.063 C 13.941 24.433 13.601 25.578 13.272 26.841 C 14.86 26.967 15.295 25.43 15.631 24.883 C 15.996 24.29 18.001 24.564 19.368 24.381 C 20.736 24.199 20.644 25.247 21.999 25.566 C 23.353 25.885 23.607 22.787 24.245 22.194 C 24.883 21.602 29.531 24.063 30.579 24.837 L 30.947 24.382 L 31.126 23.288 C 29.759 22.331 25.293 19.414 24.063 19.688 Z " fill="rgb(255,255,255)"/></g><g><path d=" M 51.406 22.969 C 49.751 22.177 46.302 22.422 44.844 19.688 C 43.385 16.953 42.378 15.313 41.563 15.313 C 40.013 15.313 36.185 16.042 33.906 18.594 C 32.053 20.669 32.448 22.604 29.531 24.063 C 28.684 24.486 26.436 25.13 26.279 28.128 C 27.412 26.592 31.035 25.635 33.291 26.182 C 34.777 26.542 33.77 27.667 35.486 27.667 C 36.776 27.667 36.672 22.183 37.598 21.328 C 38.486 20.508 39.454 20.723 40.059 22.969 C 41.016 26.523 47.031 23.857 54.779 25.381 L 54.779 25.381 C 53.783 24.072 52.283 23.388 51.406 22.969 Z " fill="rgb(255,255,255)"/></g><g><path d=" M 0.404 29.668 L 69.596 29.668 C 69.533 29.254 69.454 28.846 69.377 28.438 L 0.623 28.438 C 0.546 28.846 0.467 29.254 0.404 29.668 Z " fill="rgb(255,255,255)"/></g><g><path d=" M 45.117 39.76 C 45.117 37.159 43.112 36.647 43.112 38.581 C 43.112 39.697 41.523 40.72 40.529 39.307 C 39.718 38.154 39.466 34.807 39.466 33.268 C 39.466 30.215 36.984 30.053 36.984 33.176 C 36.984 37.734 34.994 36.939 34.994 38.737 C 34.994 42.109 36.777 44.98 35 47.168 C 34.973 47.202 34.954 47.246 34.928 47.282 C 36.295 52.752 37.809 60.156 39.375 60.156 C 41.745 60.156 44.479 51.224 45.938 50.313 C 46.536 49.938 47.38 49.686 48.168 49.219 C 45.664 48.945 45.117 44.708 45.117 39.76 Z " fill="rgb(117,195,240)"/></g><g><path d=" M 25.361 41.357 C 25.361 37.917 25.566 35.912 24.199 35.319 C 22.987 34.794 21.636 36.47 21.28 35 C 20.626 32.298 20.599 31.38 19.724 31.38 C 18.867 31.38 18.525 32.733 18.525 36.094 C 18.525 41.162 19.049 41.959 17.714 42.539 C 18.813 46.99 20.852 47.755 21.875 50.313 C 22.443 51.732 25.361 50.859 26.25 50.313 C 27.091 49.795 28.278 45.551 28.969 42.807 C 28.346 44.297 25.361 44.393 25.361 41.357 Z " fill="rgb(90,176,226)"/></g></g></g></svg>