<svg xmlns="http://www.w3.org/2000/svg" width="100" height="100" viewBox="0 0 70 70" >
<defs fill="none" stroke="none"><mask id="maskSivjigit5c0zj"><rect x="35" y="0" width="35" height="70" rx="0" ry="0" fill="#ffffff"></rect></mask></defs><g class="content"><g class="base"><g fill="none" fill-rule="evenodd" stroke="none" class="main-fill">
    
    <path fill="none" d="M27.8,20.3 L27.8,16.5 C27.8,15.5 27.2,14.7 26.3,14.4 L26.3,14.3 L26.3,13.2 C26.4,5.9 20.5,0 13.2,0 C6,0 0.1,5.9 0.1,13.2 C0.1,20.5 6,26.4 13.3,26.4 L14.2,26.4 C14.4,26.4 14.5,26.3 14.6,26.2 C15.3,27.3 16,28.4 16.8,29.7 C16.9,29.9 17.2,30.1 17.5,30.1 L17.5,30.1 L24.7,30.1 C24.8,30.1 25,30.1 25.1,30 C28.7,27.7 27.9,20.5 27.8,20.3 L27.8,20.3 Z M6.9,13.3 C7.3,12.1 9.7,11.5 10.6,11.3 C11.1,11.2 13.6,10.5 13.8,8.9 C14,7.5 12.4,6.7 11.9,6.4 C11.1,5.9 10.7,5.4 10.6,4.8 C10.5,3.6 11.7,2.1 12.3,1.6 C12.6,1.6 12.7,1.5 13.1,1.5 C15.9,1.5 18.8,2.5 20.3,4.2 L20.3,4.2 C20.3,5.9 19.9,6.9 18.8,7.8 L18.8,7.4 C18.8,6.1 17.8,5.1 16.5,5.1 C15.2,5.1 14.2,6.1 14.2,7.4 L14.2,15.9 C13.6,15.1 12.8,14.4 12,14.3 C11.4,14.2 10.7,14.3 10.2,14.8 C9.6,15.3 9.4,15.9 9.5,16.6 L8.5,16 C7.5,15.2 6.6,14.1 6.9,13.3 L6.9,13.3 Z M24.3,28.5 L17.8,28.5 C16.8,26.8 15.8,25.2 14.9,23.8 L14.2,22.7 C12.4,20 10.2,16.6 11.1,15.8 C11.3,15.6 11.5,15.6 11.6,15.6 C12.4,15.8 13.5,17.4 14.1,18.4 C14.1,18.5 14.2,18.5 14.2,18.6 C14.3,18.9 14.6,19.1 14.9,19.1 C15.3,19.1 15.7,18.8 15.7,18.3 L15.7,7.4 C15.7,7 16,6.6 16.5,6.6 C16.9,6.6 17.3,6.9 17.3,7.4 L17.3,13.5 L17.3,13.9 L17.3,17 C17.3,17.4 17.6,17.8 18.1,17.8 C18.5,17.8 18.9,17.5 18.9,17 L18.9,13.9 L18.9,13.5 C18.9,13.1 19.2,12.7 19.7,12.7 C20.2,12.7 20.5,13 20.5,13.5 L20.5,15 L20.5,16.9 L20.5,18.4 C20.5,18.8 20.8,19.2 21.3,19.2 C21.7,19.2 22.1,18.9 22.1,18.4 L22.1,16.9 L22.1,15 C22.1,14.6 22.4,14.2 22.9,14.2 C23.3,14.2 23.7,14.5 23.7,15 L23.7,16.5 L23.7,18.4 L23.7,20 C23.7,20.4 24,20.8 24.5,20.8 C24.9,20.8 25.3,20.5 25.3,20 L25.3,18.5 L25.3,16.6 C25.3,16.2 25.6,15.8 26.1,15.8 C26.6,15.8 26.9,16.1 26.9,16.6 L26.9,20.5 C26.5,22.2 26.6,27 24.3,28.5 L24.3,28.5 Z" transform="translate(21 19)" stroke="none" class="main-fill"></path>
  </g></g><g class="masked" mask="url('#maskSivjigit5c0zj')"><g fill="none" fill-rule="evenodd" stroke="none" class="main-fill--darken">
    
    <path fill="none" d="M27.8,20.3 L27.8,16.5 C27.8,15.5 27.2,14.7 26.3,14.4 L26.3,14.3 L26.3,13.2 C26.4,5.9 20.5,0 13.2,0 C6,0 0.1,5.9 0.1,13.2 C0.1,20.5 6,26.4 13.3,26.4 L14.2,26.4 C14.4,26.4 14.5,26.3 14.6,26.2 C15.3,27.3 16,28.4 16.8,29.7 C16.9,29.9 17.2,30.1 17.5,30.1 L17.5,30.1 L24.7,30.1 C24.8,30.1 25,30.1 25.1,30 C28.7,27.7 27.9,20.5 27.8,20.3 L27.8,20.3 Z M6.9,13.3 C7.3,12.1 9.7,11.5 10.6,11.3 C11.1,11.2 13.6,10.5 13.8,8.9 C14,7.5 12.4,6.7 11.9,6.4 C11.1,5.9 10.7,5.4 10.6,4.8 C10.5,3.6 11.7,2.1 12.3,1.6 C12.6,1.6 12.7,1.5 13.1,1.5 C15.9,1.5 18.8,2.5 20.3,4.2 L20.3,4.2 C20.3,5.9 19.9,6.9 18.8,7.8 L18.8,7.4 C18.8,6.1 17.8,5.1 16.5,5.1 C15.2,5.1 14.2,6.1 14.2,7.4 L14.2,15.9 C13.6,15.1 12.8,14.4 12,14.3 C11.4,14.2 10.7,14.3 10.2,14.8 C9.6,15.3 9.4,15.9 9.5,16.6 L8.5,16 C7.5,15.2 6.6,14.1 6.9,13.3 L6.9,13.3 Z M24.3,28.5 L17.8,28.5 C16.8,26.8 15.8,25.2 14.9,23.8 L14.2,22.7 C12.4,20 10.2,16.6 11.1,15.8 C11.3,15.6 11.5,15.6 11.6,15.6 C12.4,15.8 13.5,17.4 14.1,18.4 C14.1,18.5 14.2,18.5 14.2,18.6 C14.3,18.9 14.6,19.1 14.9,19.1 C15.3,19.1 15.7,18.8 15.7,18.3 L15.7,7.4 C15.7,7 16,6.6 16.5,6.6 C16.9,6.6 17.3,6.9 17.3,7.4 L17.3,13.5 L17.3,13.9 L17.3,17 C17.3,17.4 17.6,17.8 18.1,17.8 C18.5,17.8 18.9,17.5 18.9,17 L18.9,13.9 L18.9,13.5 C18.9,13.1 19.2,12.7 19.7,12.7 C20.2,12.7 20.5,13 20.5,13.5 L20.5,15 L20.5,16.9 L20.5,18.4 C20.5,18.8 20.8,19.2 21.3,19.2 C21.7,19.2 22.1,18.9 22.1,18.4 L22.1,16.9 L22.1,15 C22.1,14.6 22.4,14.2 22.9,14.2 C23.3,14.2 23.7,14.5 23.7,15 L23.7,16.5 L23.7,18.4 L23.7,20 C23.7,20.4 24,20.8 24.5,20.8 C24.9,20.8 25.3,20.5 25.3,20 L25.3,18.5 L25.3,16.6 C25.3,16.2 25.6,15.8 26.1,15.8 C26.6,15.8 26.9,16.1 26.9,16.6 L26.9,20.5 C26.5,22.2 26.6,27 24.3,28.5 L24.3,28.5 Z" transform="translate(21 19)" stroke="none" class="main-fill--darken"></path>
  </g></g></g><style>
          .main-fill {fill: #3fadb4;}
          .main-fill--darken {fill: #2b777b;}

        </style></svg>