<?xml version="1.0" standalone="no"?><svg xmlns="http://www.w3.org/2000/svg" xmlns:xlink="http://www.w3.org/1999/xlink" style="isolation:isolate" viewBox="0 0 70 105" width="70" height="105"><defs><clipPath id="_clipPath_3KdfVXj8NhEre2NlagMsVMgsPauo7q28"><rect width="70" height="105"/></clipPath></defs><g clip-path="url(#_clipPath_3KdfVXj8NhEre2NlagMsVMgsPauo7q28)"><path d=" M 27.5 15.75 L 32.5 15.75 L 32.5 35 L 37.5 35 L 37.5 15.75 L 42.5 15.75 L 37.505 5.262 L 35 0 L 27.5 15.75 Z " fill="rgb(63,173,180)"/><g><circle vector-effect="non-scaling-stroke" cx="35" cy="70" r="35" fill="rgb(103,185,204)"/><g><path d=" M 15.211 73.621 C 13.045 73.71 10.959 74.465 9.237 75.783 C 8.556 76.464 8.29 77.456 8.54 78.386 C 8.789 79.316 9.515 80.043 10.446 80.292 C 11.376 80.541 12.368 80.276 13.049 79.595 C 14.27 78.374 12.796 75.273 15.211 73.621 Z " fill="rgb(68,130,195)"/><path d=" M 27.759 50.958 C 26.31 49.345 24.399 48.218 22.286 47.73 C 21.327 47.638 20.392 48.065 19.833 48.851 C 19.274 49.636 19.177 50.659 19.578 51.535 C 19.979 52.412 20.817 53.007 21.777 53.097 C 23.495 53.26 24.946 50.149 27.759 50.958 Z " fill="rgb(68,130,195)"/></g><g><path d=" M 12.069 55.517 C 12.065 58.437 10.742 61.198 8.469 63.031 C 6.196 64.863 3.216 65.571 0.362 64.955 C 1.28 58.597 3.937 52.617 8.038 47.672 C 10.569 49.483 12.07 52.405 12.069 55.517 Z " fill="rgb(240,196,25)"/><path d=" M 70 70 C 70.01 82.512 63.331 94.074 52.488 100.317 C 60.229 94.461 64.518 85.113 63.908 75.426 C 63.299 65.738 57.873 57.002 49.459 52.162 C 59.036 53.531 67.001 60.23 69.988 69.433 L 69.988 69.445 C 70 69.626 70 69.819 70 70 Z " fill="rgb(68,130,195)"/><path d=" M 63.966 77.241 C 63.966 86.307 59.718 94.848 52.488 100.317 C 52.488 100.317 52.476 100.341 52.464 100.341 C 40.843 107.017 26.434 106.483 15.34 98.966 L 35 98.966 C 46.998 98.966 56.724 89.239 56.724 77.241 C 56.724 65.243 46.998 55.517 35 55.517 C 34.194 55.519 33.388 55.563 32.586 55.65 C 37.627 52.554 43.59 51.316 49.447 52.15 C 49.45 52.15 49.453 52.151 49.455 52.153 C 49.457 52.156 49.459 52.159 49.459 52.162 C 58.431 57.326 63.962 66.889 63.966 77.241 Z " fill="rgb(40,86,128)"/><path d=" M 56.724 77.241 C 56.706 89.232 46.991 98.947 35 98.966 L 15.34 98.966 C 12.395 96.962 9.773 94.52 7.567 91.724 L 35 91.724 C 42.902 91.727 49.347 85.395 49.485 77.494 C 49.623 69.593 43.403 63.04 35.505 62.767 C 27.608 62.494 20.95 68.602 20.541 76.493 C 20.773 67.956 25.305 60.114 32.586 55.65 C 33.388 55.563 34.193 55.519 35 55.517 C 46.991 55.535 56.706 65.251 56.724 77.241 Z " fill="rgb(68,130,195)"/></g><path d=" M 20.541 76.493 C 20.517 76.734 20.517 76.988 20.517 77.241" fill="rgb(68,130,195)"/><g><path d=" M 20.541 76.493 C 20.517 76.734 20.517 76.988 20.517 77.241" fill="rgb(68,130,195)"/></g></g></g></svg>