<?xml version="1.0" encoding="iso-8859-1"?>
 
<svg version="1.1" id="Capa_1" xmlns="http://www.w3.org/2000/svg" xmlns:xlink="http://www.w3.org/1999/xlink" x="0px" y="0px" width="70px" height="70px"
	 viewBox="0 0 512 512" style="enable-background:new 0 0 512 512;" xml:space="preserve">
<g>
	<circle style="fill:#67B9CC;" cx="256" cy="256" r="256"/>
	<g>
		<path style="fill:#4482C3;" d="M111.258,282.483c-15.844,0.651-31.103,6.173-43.694,15.812c-4.981,4.981-6.926,12.24-5.103,19.044
			c1.823,6.804,7.137,12.118,13.941,13.941c6.804,1.823,14.063-0.122,19.044-5.103C104.372,317.251,93.593,294.571,111.258,282.483z
			"/>
		<path style="fill:#4482C3;" d="M203.035,116.718c-10.597-11.798-24.574-20.04-40.026-23.604
			c-7.016-0.673-13.858,2.45-17.945,8.193c-4.087,5.742-4.798,13.23-1.865,19.638c2.934,6.409,9.065,10.764,16.083,11.423
			C171.849,133.561,182.463,110.804,203.035,116.718z"/>
	</g>
	<g>
		<path style="fill:#F0C419;" d="M88.276,150.069c-0.03,21.355-9.709,41.554-26.334,54.957
			c-16.626,13.403-38.417,18.576-59.293,14.075c6.716-46.503,26.145-90.248,56.143-126.411
			C77.307,105.935,88.287,127.304,88.276,150.069z"/>
		<path style="fill:#4482C3;" d="M512,256c0.072,91.514-48.78,176.087-128.088,221.749c56.62-42.834,87.99-111.205,83.533-182.062
			s-44.148-134.758-105.69-170.159c70.054,10.01,128.306,59.015,150.157,126.323v0.088C512,253.263,512,254.676,512,256z"/>
		<path style="fill:#285680;" d="M467.862,308.966c0.005,66.306-31.07,128.782-83.95,168.783c0,0-0.088,0.177-0.177,0.177
			c-84.994,48.829-190.39,44.922-271.537-10.063H256c87.756,0,158.897-71.14,158.897-158.897S343.756,150.069,256,150.069
			c-5.898,0.011-11.791,0.335-17.655,0.971c36.868-22.644,80.487-31.699,123.321-25.6c0.024,0,0.046,0.009,0.063,0.025
			c0.017,0.017,0.026,0.039,0.025,0.063C427.381,163.301,467.839,233.245,467.862,308.966z"/>
		<path style="fill:#4482C3;" d="M414.897,308.966C414.765,396.667,343.702,467.73,256,467.862H112.199
			c-21.541-14.651-40.713-32.513-56.85-52.966H256c57.797,0.019,104.941-46.294,105.95-104.083
			c1.009-57.788-44.491-105.719-102.254-107.716c-57.763-1.998-106.465,42.675-109.451,100.395
			c1.696-62.446,34.842-119.803,88.099-152.452c5.864-0.636,11.757-0.961,17.655-0.971
			C343.702,150.201,414.765,221.264,414.897,308.966z"/>
	</g>
	<path id="SVGCleanerId_0" style="fill:#4482C3;" d="M150.246,303.492c-0.177,1.766-0.177,3.619-0.177,5.473"/>
	<g>
		<path id="SVGCleanerId_0_1_" style="fill:#4482C3;" d="M150.246,303.492c-0.177,1.766-0.177,3.619-0.177,5.473"/>
	</g>
</g>
<g>
</g>
<g>
</g>
<g>
</g>
<g>
</g>
<g>
</g>
<g>
</g>
<g>
</g>
<g>
</g>
<g>
</g>
<g>
</g>
<g>
</g>
<g>
</g>
<g>
</g>
<g>
</g>
<g>
</g>
</svg>
