<svg xmlns="http://www.w3.org/2000/svg" width="70" height="70" viewBox="0 0 70 70" style="width: 100%; height: 100%;"><desc>Made with illustrio</desc>
  
<g class="base"><g fill="none" fill-rule="evenodd" stroke="none" class="main-stroke">
    
    
    <path fill="none" d="M0,0.149132941 L0,34.7373682 L24.7058824,34.7373682 L24.7058824,8.38442706 L17.7058824,8.38442706 C17.2746951,8.38438588 16.8823962,7.99208529 16.8823529,7.56089765 L16.8823529,0.149132941 L0,0.149132941 Z M18.5294118,0.149132941 L18.5294118,6.73736824 L24.7058824,6.73736824 L18.5294118,0.149132941 Z M4.94117647,7.56089765 L12.3529412,7.56089765 C12.8091765,7.56089765 13.1764706,7.92819176 13.1764706,8.38442706 C13.1764706,8.84066235 12.8091765,9.20795647 12.3529412,9.20795647 L4.94117647,9.20795647 C4.48494118,9.20795647 4.11764706,8.84066235 4.11764706,8.38442706 C4.11764706,7.92819176 4.48494118,7.56089765 4.94117647,7.56089765 Z M4.94117647,12.5020741 L19.7647059,12.5020741 C20.2209412,12.5020741 20.5882353,12.8693682 20.5882353,13.3256035 C20.5882353,13.7818388 20.2209412,14.1491329 19.7647059,14.1491329 L4.94117647,14.1491329 C4.48494118,14.1491329 4.11764706,13.7818388 4.11764706,13.3256035 C4.11764706,12.8693682 4.48494118,12.5020741 4.94117647,12.5020741 Z M4.94117647,17.4432506 L19.7647059,17.4432506 C20.2209412,17.4432506 20.5882353,17.8105447 20.5882353,18.26678 C20.5882353,18.7230153 20.2209412,19.0903094 19.7647059,19.0903094 L4.94117647,19.0903094 C4.48494118,19.0903094 4.11764706,18.7230153 4.11764706,18.26678 C4.11764706,17.8105447 4.48494118,17.4432506 4.94117647,17.4432506 Z M4.94117647,22.3844271 L19.7647059,22.3844271 C20.2209412,22.3844271 20.5882353,22.7517212 20.5882353,23.2079565 C20.5882353,23.6641918 20.2209412,24.0314859 19.7647059,24.0314859 L4.94117647,24.0314859 C4.48494118,24.0314859 4.11764706,23.6641918 4.11764706,23.2079565 C4.11764706,22.7517212 4.48494118,22.3844271 4.94117647,22.3844271 Z M4.94117647,27.3256035 L19.7647059,27.3256035 C20.2209412,27.3256035 20.5882353,27.6928976 20.5882353,28.1491329 C20.5882353,28.6053682 20.2209412,28.9726624 19.7647059,28.9726624 L4.94117647,28.9726624 C4.48494118,28.9726624 4.11764706,28.6053682 4.11764706,28.1491329 C4.11764706,27.6928976 4.48494118,27.3256035 4.94117647,27.3256035 Z" transform="translate(22.647 17.557)" stroke="none" class="main-stroke"></path>
  </g></g><style>
          .main-fill {fill: #fff;}
          .main-stroke {stroke: #fff;}
          .secondary-fill {fill: #fff;}
          .secondary-stroke {stroke: #fff;}

          .main-fill--darken {fill: #d9d9d9;}
          .main-stroke--darken {stroke: #d9d9d9;}
          .secondary-fill--darken {fill: #d9d9d9;}
          .secondary-stroke--darken {stroke: #d9d9d9;}

          .main-fill--darkener {fill: #bfbfbf;}
          .main-stroke--darkener {stroke: #bfbfbf;}
          .secondary-fill--darkener {fill: #bfbfbf;}
          .secondary-stroke--darkener {stroke: #bfbfbf;}
        </style></svg>