<svg xmlns="http://www.w3.org/2000/svg" width="70" height="70" viewBox="0 0 70 70" style="width: 100%; height: 100%;"><desc>Made with illustrio</desc>
  
<g class="base"><g fill="none" fill-rule="evenodd" stroke="none" class="main-stroke">
    
    
  </g><g fill="none" transform="translate(22.4 14.467)" stroke="none" class="main-stroke">
      <circle cx="7.933" cy="25.2" r=".7" fill="none" stroke="none" class="main-stroke"></circle>
      <path d="M17.2666667,25.9 C18.2961333,25.9 19.1333333,25.0628 19.1333333,24.0333333 C19.1333333,23.0038667 18.2961333,22.1666667 17.2666667,22.1666667 C16.2372,22.1666667 15.4,23.0038667 15.4,24.0333333 C15.4,25.0628 16.2372,25.9 17.2666667,25.9 L17.2666667,25.9 Z" fill="none" stroke="none" class="main-stroke"></path>
      <circle cx="12.6" cy="21.7" r=".7" fill="none" stroke="none" class="main-stroke"></circle>
      <circle cx="11.433" cy="33.367" r=".7" fill="none" stroke="none" class="main-stroke"></circle>
      <path d="M18.508,29.1606 C18.1645333,29.2161333 17.6269333,29.4452667 17.1070667,29.6674 C16.3398667,29.9945333 15.5460667,30.3333333 14.9333333,30.3333333 C14.3943333,30.3333333 13.7629333,30.0318667 13.0951333,29.7136 C12.5155333,29.4368667 11.8654667,29.1181333 11.4954,29.1624667 C11.1566,29.2077333 10.5835333,29.75 10.1234,30.1854 C9.40706667,30.863 8.7304,31.5028 8.00333333,31.5028 C7.9478,31.5056 7.92586667,31.5009333 7.8876,31.4972 C7.23053333,31.4323333 6.73913333,30.7472667 6.26406667,30.0846 C5.98873333,29.7014667 5.6462,29.2236 5.42173333,29.1307333 C5.39606667,29.1204667 5.24346667,29.0668 4.7558,29.0668 C4.4072,29.0668 4.025,29.0938667 3.7436,29.1190667 C3.96293333,33.8151333 7.85166667,37.5666667 12.6,37.5666667 C17.3399333,37.5666667 21.2230667,33.8282 21.4559333,29.1452 C21.0228667,29.1274667 20.3457333,29.1041333 19.7246,29.1041333 C19.0059333,29.1041333 18.6662,29.1349333 18.508,29.1606 L18.508,29.1606 Z M11.4333333,35 C10.5326667,35 9.8,34.2673333 9.8,33.3666667 C9.8,32.466 10.5326667,31.7333333 11.4333333,31.7333333 C12.334,31.7333333 13.0666667,32.466 13.0666667,33.3666667 C13.0666667,34.2673333 12.334,35 11.4333333,35 L11.4333333,35 Z M15.5166667,33.3666667 C15.1946667,33.3666667 14.9333333,33.1053333 14.9333333,32.7833333 C14.9333333,32.4613333 15.1946667,32.2 15.5166667,32.2 C15.8386667,32.2 16.1,32.4613333 16.1,32.7833333 C16.1,33.1053333 15.8386667,33.3666667 15.5166667,33.3666667 L15.5166667,33.3666667 Z" fill="none" stroke="none" class="main-stroke"></path>
      <path d="M16.8,17.0655333 L16.8,15.1666667 L13.7666667,15.1666667 C13.5086,15.1666667 13.3,14.9576 13.3,14.7 C13.3,14.4424 13.5086,14.2333333 13.7666667,14.2333333 L16.8,14.2333333 L16.8,11.6666667 L13.7666667,11.6666667 C13.5086,11.6666667 13.3,11.4576 13.3,11.2 C13.3,10.9424 13.5086,10.7333333 13.7666667,10.7333333 L16.8,10.7333333 L16.8,8.16666667 L13.7666667,8.16666667 C13.5086,8.16666667 13.3,7.9576 13.3,7.7 C13.3,7.4424 13.5086,7.23333333 13.7666667,7.23333333 L16.8,7.23333333 L16.8,3.73333333 L17.2666667,3.73333333 C17.9102,3.73333333 18.4333333,3.20973333 18.4333333,2.56666667 L18.4333333,1.16666667 C18.4333333,0.5236 17.9102,0 17.2666667,0 L7.93333333,0 C7.29026667,0 6.76666667,0.5236 6.76666667,1.16666667 L6.76666667,2.56666667 C6.76666667,3.20973333 7.29026667,3.73333333 7.93333333,3.73333333 L8.4,3.73333333 L8.4,17.0655333 C3.49393333,18.83 0.233333333,23.4420667 0.233333333,28.7 C0.233333333,35.5189333 5.78106667,41.0666667 12.6,41.0666667 C19.4189333,41.0666667 24.9666667,35.5189333 24.9666667,28.7 C24.9666667,23.4420667 21.7060667,18.83 16.8,17.0655333 L16.8,17.0655333 Z M17.2666667,21.2333333 C18.8108667,21.2333333 20.0666667,22.4891333 20.0666667,24.0333333 C20.0666667,25.5775333 18.8108667,26.8333333 17.2666667,26.8333333 C15.7224667,26.8333333 14.4666667,25.5775333 14.4666667,24.0333333 C14.4666667,22.4891333 15.7224667,21.2333333 17.2666667,21.2333333 L17.2666667,21.2333333 Z M12.6,20.0666667 C13.5006667,20.0666667 14.2333333,20.7993333 14.2333333,21.7 C14.2333333,22.6006667 13.5006667,23.3333333 12.6,23.3333333 C11.6993333,23.3333333 10.9666667,22.6006667 10.9666667,21.7 C10.9666667,20.7993333 11.6993333,20.0666667 12.6,20.0666667 L12.6,20.0666667 Z M7.93333333,23.5666667 C8.834,23.5666667 9.56666667,24.2993333 9.56666667,25.2 C9.56666667,26.1006667 8.834,26.8333333 7.93333333,26.8333333 C7.03266667,26.8333333 6.3,26.1006667 6.3,25.2 C6.3,24.2993333 7.03266667,23.5666667 7.93333333,23.5666667 L7.93333333,23.5666667 Z M12.6,38.5 C7.196,38.5 2.8,34.1035333 2.8,28.7 C2.8,28.4643333 2.97546667,28.266 3.2088,28.2370667 C3.2424,28.2328667 4.0432,28.1339333 4.75533333,28.1339333 C5.23133333,28.1339333 5.5566,28.1768667 5.77826667,28.2688 C6.24866667,28.4638667 6.62386667,28.987 7.02193333,29.5414 C7.30893333,29.9408667 7.74246667,30.5456667 7.97906667,30.569 L7.98,30.569 C8.3594,30.569 8.98146667,29.9805333 9.48173333,29.5078 C10.1257333,28.8983333 10.7342667,28.3229333 11.3712667,28.2375333 C11.9728,28.1558667 12.7549333,28.518 13.4964667,28.8712667 C14.0163333,29.1190667 14.6052667,29.4 14.9333333,29.4 C15.3552,29.4 16.0911333,29.0859333 16.7407333,28.8087333 C17.3385333,28.5539333 17.9027333,28.3131333 18.3586667,28.2389333 C18.6414667,28.1927333 19.0885333,28.1708 19.7246,28.1708 C20.7624667,28.1708 21.91,28.2314667 21.9580667,28.2338 C22.2058667,28.2468667 22.4,28.4522 22.4,28.7 C22.4,34.1035333 18.0035333,38.5 12.6,38.5 L12.6,38.5 Z" fill="none" stroke="none" class="main-stroke"></path>
    </g></g><style>
          .main-fill {fill: #fff;}
          .main-stroke {stroke: #fff;}
          .secondary-fill {fill: #fff;}
          .secondary-stroke {stroke: #fff;}

          .main-fill--darken {fill: #d9d9d9;}
          .main-stroke--darken {stroke: #d9d9d9;}
          .secondary-fill--darken {fill: #d9d9d9;}
          .secondary-stroke--darken {stroke: #d9d9d9;}

          .main-fill--darkener {fill: #bfbfbf;}
          .main-stroke--darkener {stroke: #bfbfbf;}
          .secondary-fill--darkener {fill: #bfbfbf;}
          .secondary-stroke--darkener {stroke: #bfbfbf;}
        </style></svg>