<svg xmlns="http://www.w3.org/2000/svg" width="70" height="70" viewBox="0 0 70 70" style="width: 100%; height: 100%;"><desc>Made with illustrio</desc>
  
<g class="base"><g fill="none" fill-rule="evenodd" stroke="none" class="main-stroke">
    
    
    <path fill="none" d="M17.2941176,0.149132941 C14.1103558,0.149132941 11.5294118,2.73007412 11.5294118,5.91383882 C11.5294118,7.83698588 12.5525235,9.39596824 14,10.4432506 C9.97154118,11.7840388 7,15.5902271 7,19.9138388 L27.5882353,19.9138388 C27.5882353,15.5902271 24.6166941,11.7840388 20.5882353,10.4432506 C22.0357118,9.39596824 23.0588235,7.83698588 23.0588235,5.91383882 C23.0588235,2.73007412 20.4778795,0.149132941 17.2941176,0.149132941 Z M9.05882353,0.972662353 C6.25711306,0.972662353 4.11764706,3.12804471 4.11764706,5.91383882 C4.11764706,7.59655647 4.90269088,9.11510353 6.17647059,10.0314859 C2.63142682,11.2046447 0,14.4836094 0,18.26678 L5.48161765,18.26678 C6.01278712,14.7361826 8.21408782,11.6989176 11.2463235,9.92854471 C10.4327576,8.79796235 9.88235294,7.45557647 9.88235294,5.91383882 C9.88235294,4.27476247 10.4252186,2.75730659 11.3363971,1.52597118 C10.6514285,1.17689147 9.87155276,0.972662353 9.05882353,0.972662353 Z M25.5294118,0.972662353 C24.7166825,0.972662353 23.9368068,1.17689147 23.2518382,1.52597118 C24.1630167,2.75730659 24.7058824,4.27476247 24.7058824,5.91383882 C24.7058824,7.45557647 24.1554777,8.79796235 23.3419118,9.92854471 C26.3741475,11.6989176 28.5754482,14.7361826 29.1066176,18.26678 L34.5882353,18.26678 C34.5882353,14.4836094 31.9568076,11.2046447 28.4117647,10.0314859 C29.6855424,9.11510353 30.4705882,7.59655647 30.4705882,5.91383882 C30.4705882,3.12804471 28.331121,0.972662353 25.5294118,0.972662353 Z" transform="translate(17.706 24.969)" stroke="none" class="main-stroke"></path>
  </g></g><style>
          .main-fill {fill: #fff;}
          .main-stroke {stroke: #fff;}
          .secondary-fill {fill: #fff;}
          .secondary-stroke {stroke: #fff;}

          .main-fill--darken {fill: #d9d9d9;}
          .main-stroke--darken {stroke: #d9d9d9;}
          .secondary-fill--darken {fill: #d9d9d9;}
          .secondary-stroke--darken {stroke: #d9d9d9;}

          .main-fill--darkener {fill: #bfbfbf;}
          .main-stroke--darkener {stroke: #bfbfbf;}
          .secondary-fill--darkener {fill: #bfbfbf;}
          .secondary-stroke--darkener {stroke: #bfbfbf;}
        </style></svg>