<svg xmlns="http://www.w3.org/2000/svg" width="70" height="70" viewBox="0 0 70 70" style="width: 100%; height: 100%;"><desc>Made with illustrio</desc>
  
<defs fill="none" stroke="none"><mask id="maskSiwp1hyda8v"><rect x="35" y="0" width="35" height="70" rx="0" ry="0" fill="#ffffff"></rect></mask></defs><g class="content"><g class="base"><g fill="none" fill-rule="evenodd" stroke="none" class="main-fill">
    
    
    <path fill="none" d="M1.23529412,0.149132941 C0.550941588,0.149132941 0,0.700074735 0,1.38442706 L0,33.5020741 C0,34.1864266 0.550941588,34.7373682 1.23529412,34.7373682 L23.4705882,34.7373682 C24.1549408,34.7373682 24.7058824,34.1864266 24.7058824,33.5020741 L24.7058824,20.4414124 C24.0165396,21.7600612 23.5302496,22.6671208 23.4705882,22.7061182 C23.4723671,22.7877819 23.0459559,27.4800153 23.0459559,27.4800153 C22.9851494,28.1201604 22.5140876,28.7023709 21.9007353,28.8954565 L17.6672794,30.1950888 C17.2979372,30.3085358 16.8893921,30.2697887 16.5349265,30.1178829 C16.1909448,29.9704704 14.9773013,29.2119166 14.6948529,28.9597947 C14.4379711,28.7304945 14.2526436,28.4219719 14.1801471,28.0847947 L13.2150735,23.5553829 C13.0736443,22.9123378 13.3621476,22.1964227 13.9099265,21.8311182 C13.9099265,21.8311182 17.7004504,19.3070871 17.7444853,19.2833241 C17.7500375,19.0593035 21.9789442,12.0300567 24.1783088,8.38442706 L18.1176471,8.38442706 L17.2941176,8.38442706 C16.8393137,8.38438163 16.4706337,8.01570156 16.4705882,7.56089765 L16.4705882,6.73736824 L16.4705882,0.149132941 L1.23529412,0.149132941 Z M18.1176471,0.149132941 L18.1176471,6.73736824 L24.7058824,6.73736824 L18.1176471,0.149132941 Z M27.5882353,5.91383882 L19.3915441,19.3219271 C19.395857,19.3261925 19.4001463,19.3304818 19.4044118,19.3347947 L22.5698529,21.3164124 L29.6470588,7.14913294 L27.5882353,5.91383882 Z M3.29411765,10.0314859 L19.7647059,10.0314859 C20.1997851,10.0253341 20.6011029,10.4198912 20.6011029,10.8550153 C20.6011029,11.2901394 20.1997851,11.68468 19.7647059,11.6785447 L3.29411765,11.6785447 C2.86239018,11.6785447 2.46935294,11.2444747 2.47058824,10.8550153 C2.47182847,10.4680429 2.82070518,10.0314859 3.29411765,10.0314859 Z M3.29411765,13.3256035 L16.4705882,13.3256035 C16.9056675,13.3194518 17.3069853,13.7140088 17.3069853,14.1491329 C17.3069853,14.5842571 16.9056675,14.9787976 16.4705882,14.9726624 L3.29411765,14.9726624 C2.86239018,14.9726624 2.46935294,14.5385924 2.47058824,14.1491329 C2.47182847,13.7621606 2.82069859,13.3256035 3.29411765,13.3256035 Z M3.29411765,16.6197212 L16.0588235,16.6197212 C16.4939028,16.6135694 16.8952206,17.0081265 16.8952206,17.4432506 C16.8952206,17.8783624 16.4939028,18.2729565 16.0588235,18.26678 L3.29411765,18.26678 C2.86239018,18.26678 2.46935294,17.8326976 2.47058824,17.4432506 C2.47182847,17.05627 2.82069859,16.6197212 3.29411765,16.6197212 Z M18.5294118,20.7373682 L14.8235294,23.2079565 L15.7886029,27.7373682 L17.1654412,25.2153094 C17.0473042,24.9849649 16.9724265,24.7223464 16.9724265,24.4432506 C16.9724265,23.5336055 17.6779886,22.7961918 18.5551471,22.7961918 C19.4323055,22.7961918 20.1507353,23.5336055 20.1507353,24.4432506 C20.1507353,25.3484119 19.4392071,26.0830895 18.5680147,26.0903094 L18.5551471,26.0903094 L17.1783088,28.6252359 L21.4117647,27.3256035 L21.8235294,22.7961918 L18.5294118,20.7373682 Z M3.29411765,28.5608976 L12.3400735,28.5608976 C12.7751528,28.5547624 13.1764706,28.9493153 13.1764706,29.3844271 C13.1764706,29.8195388 12.7751528,30.2141329 12.3400735,30.2079565 L3.29411765,30.2079565 C2.86239018,30.2079565 2.47058618,29.7726388 2.47058824,29.3844271 C2.47059029,28.9962153 2.82025594,28.5608976 3.29411765,28.5608976 Z" transform="translate(20.176 17.557)" stroke="none" class="main-fill"></path>
  </g></g><g class="masked" mask="url('#maskSiwp1hyda8v')"><g fill="none" fill-rule="evenodd" stroke="none" class="main-fill--darken">
    
    
    <path fill="none" d="M1.23529412,0.149132941 C0.550941588,0.149132941 0,0.700074735 0,1.38442706 L0,33.5020741 C0,34.1864266 0.550941588,34.7373682 1.23529412,34.7373682 L23.4705882,34.7373682 C24.1549408,34.7373682 24.7058824,34.1864266 24.7058824,33.5020741 L24.7058824,20.4414124 C24.0165396,21.7600612 23.5302496,22.6671208 23.4705882,22.7061182 C23.4723671,22.7877819 23.0459559,27.4800153 23.0459559,27.4800153 C22.9851494,28.1201604 22.5140876,28.7023709 21.9007353,28.8954565 L17.6672794,30.1950888 C17.2979372,30.3085358 16.8893921,30.2697887 16.5349265,30.1178829 C16.1909448,29.9704704 14.9773013,29.2119166 14.6948529,28.9597947 C14.4379711,28.7304945 14.2526436,28.4219719 14.1801471,28.0847947 L13.2150735,23.5553829 C13.0736443,22.9123378 13.3621476,22.1964227 13.9099265,21.8311182 C13.9099265,21.8311182 17.7004504,19.3070871 17.7444853,19.2833241 C17.7500375,19.0593035 21.9789442,12.0300567 24.1783088,8.38442706 L18.1176471,8.38442706 L17.2941176,8.38442706 C16.8393137,8.38438163 16.4706337,8.01570156 16.4705882,7.56089765 L16.4705882,6.73736824 L16.4705882,0.149132941 L1.23529412,0.149132941 Z M18.1176471,0.149132941 L18.1176471,6.73736824 L24.7058824,6.73736824 L18.1176471,0.149132941 Z M27.5882353,5.91383882 L19.3915441,19.3219271 C19.395857,19.3261925 19.4001463,19.3304818 19.4044118,19.3347947 L22.5698529,21.3164124 L29.6470588,7.14913294 L27.5882353,5.91383882 Z M3.29411765,10.0314859 L19.7647059,10.0314859 C20.1997851,10.0253341 20.6011029,10.4198912 20.6011029,10.8550153 C20.6011029,11.2901394 20.1997851,11.68468 19.7647059,11.6785447 L3.29411765,11.6785447 C2.86239018,11.6785447 2.46935294,11.2444747 2.47058824,10.8550153 C2.47182847,10.4680429 2.82070518,10.0314859 3.29411765,10.0314859 Z M3.29411765,13.3256035 L16.4705882,13.3256035 C16.9056675,13.3194518 17.3069853,13.7140088 17.3069853,14.1491329 C17.3069853,14.5842571 16.9056675,14.9787976 16.4705882,14.9726624 L3.29411765,14.9726624 C2.86239018,14.9726624 2.46935294,14.5385924 2.47058824,14.1491329 C2.47182847,13.7621606 2.82069859,13.3256035 3.29411765,13.3256035 Z M3.29411765,16.6197212 L16.0588235,16.6197212 C16.4939028,16.6135694 16.8952206,17.0081265 16.8952206,17.4432506 C16.8952206,17.8783624 16.4939028,18.2729565 16.0588235,18.26678 L3.29411765,18.26678 C2.86239018,18.26678 2.46935294,17.8326976 2.47058824,17.4432506 C2.47182847,17.05627 2.82069859,16.6197212 3.29411765,16.6197212 Z M18.5294118,20.7373682 L14.8235294,23.2079565 L15.7886029,27.7373682 L17.1654412,25.2153094 C17.0473042,24.9849649 16.9724265,24.7223464 16.9724265,24.4432506 C16.9724265,23.5336055 17.6779886,22.7961918 18.5551471,22.7961918 C19.4323055,22.7961918 20.1507353,23.5336055 20.1507353,24.4432506 C20.1507353,25.3484119 19.4392071,26.0830895 18.5680147,26.0903094 L18.5551471,26.0903094 L17.1783088,28.6252359 L21.4117647,27.3256035 L21.8235294,22.7961918 L18.5294118,20.7373682 Z M3.29411765,28.5608976 L12.3400735,28.5608976 C12.7751528,28.5547624 13.1764706,28.9493153 13.1764706,29.3844271 C13.1764706,29.8195388 12.7751528,30.2141329 12.3400735,30.2079565 L3.29411765,30.2079565 C2.86239018,30.2079565 2.47058618,29.7726388 2.47058824,29.3844271 C2.47059029,28.9962153 2.82025594,28.5608976 3.29411765,28.5608976 Z" transform="translate(20.176 17.557)" stroke="none" class="main-fill--darken"></path>
  </g></g></g><style>
          .main-fill {fill: #3fadb4;}
          .main-stroke {stroke: #3fadb4;}
          .secondary-fill {fill: #fff;}
          .secondary-stroke {stroke: #fff;}

          .main-fill--darken {fill: #2b777b;}
          .main-stroke--darken {stroke: #2b777b;}
          .secondary-fill--darken {fill: #d9d9d9;}
          .secondary-stroke--darken {stroke: #d9d9d9;}

          .main-fill--darkener {fill: #1e5256;}
          .main-stroke--darkener {stroke: #1e5256;}
          .secondary-fill--darkener {fill: #bfbfbf;}
          .secondary-stroke--darkener {stroke: #bfbfbf;}
        </style></svg>