<svg xmlns="http://www.w3.org/2000/svg" width="70" height="70" viewBox="0 0 70 70" style="width: 100%; height: 100%;"><desc>Made with illustrio</desc>
  
<g class="base"><g fill="none" fill-rule="evenodd" stroke="none" class="main-stroke">
    
    <path fill="none" d="M15.9090909,0 C7.13681818,0 0,7.13681818 0,15.9090909 C0,24.6813636 7.13681818,31.8181818 15.9090909,31.8181818 C24.6813636,31.8181818 31.8181818,24.6813636 31.8181818,15.9090909 C31.8181818,7.13681818 24.6813636,0 15.9090909,0 L15.9090909,0 Z M21.4893636,12.4981818 L15.1257273,20.1345455 C15.0003636,20.2847273 14.819,20.3636364 14.6363636,20.3636364 C14.5148182,20.3636364 14.392,20.3286364 14.2838182,20.2567273 L10.4656364,17.7112727 C10.1735455,17.5159091 10.0946364,17.1213636 10.2893636,16.8286364 C10.4847273,16.5365455 10.8786364,16.4576364 11.172,16.6523636 L14.5141818,18.8809091 L20.5112727,11.6836364 C20.7365455,11.4138182 21.1368182,11.3769091 21.4079091,11.6021818 C21.6770909,11.8268182 21.714,12.2283636 21.4893636,12.4981818 L21.4893636,12.4981818 Z" transform="translate(19.09 19.09)" stroke="none" class="main-stroke"></path>
  </g></g><style>
          .main-fill {fill: #fff;}
          .main-stroke {stroke: #fff;}
          .secondary-fill {fill: #111;}
          .secondary-stroke {stroke: #111;}

          .main-fill--darken {fill: #d9d9d9;}
          .main-stroke--darken {stroke: #d9d9d9;}
          .secondary-fill--darken {fill: #000000;}
          .secondary-stroke--darken {stroke: #000000;}

          .main-fill--darkener {fill: #bfbfbf;}
          .main-stroke--darkener {stroke: #bfbfbf;}
          .secondary-fill--darkener {fill: #000000;}
          .secondary-stroke--darkener {stroke: #000000;}
        </style></svg>