<svg xmlns="http://www.w3.org/2000/svg" width="70" height="70" viewBox="0 0 70 70" style="width: 100%; height: 100%;"><desc>Made with illustrio</desc>
  
<g class="base"><g fill="none" fill-rule="evenodd" stroke="none" class="main-stroke">
    
    
  </g><g fill="none" transform="translate(26 20)" stroke="none" class="main-stroke">
      <path d="M17.6 5.9C18 4.8 18 3.6 17.5 2.5 16.7 1 15.2 0 13.5 0 12.9 0 12.2.1 11.7.4 10.6.9 9.8 1.8 9.4 2.9 9 4 9 5.2 9.5 6.2 10.2 7.7 11.8 8.7 13.5 8.7 14 8.7 14.5 8.6 14.9 8.4L15.6 9.8C15.7 10.1 16 10.2 16.3 10.2 16.4 10.2 16.5 10.2 16.6 10.1 17 9.9 17.1 9.5 16.9 9.1L16.2 7.6C16.8 7.3 17.3 6.7 17.6 5.9L17.6 5.9zM16.2 5.4C15.9 6.1 15.4 6.7 14.7 7 13.3 7.7 11.5 7 10.8 5.6 10.5 4.9 10.4 4.1 10.7 3.4 11 2.7 11.5 2.1 12.2 1.8 12.6 1.6 13 1.5 13.4 1.5 14.5 1.5 15.6 2.2 16 3.2 16.5 3.9 16.5 4.7 16.2 5.4L16.2 5.4zM9.6 9.5L7.9 9.5C8.5 8.9 8.8 8 8.8 7.1 8.8 5.1 7.2 3.4 5.1 3.4 3.1 3.4 1.4 5 1.4 7.1 1.4 8 1.7 8.8 2.3 9.5L.9 9.5C.5 9.5.2 9.8.2 10.2L.2 22C.2 22.4.5 22.7.9 22.7L1.6 22.7 1.6 29.3C1.6 29.7 1.9 30 2.3 30L4.5 30 4.5 24.1C4.5 23.7 4.8 23.4 5.2 23.4 5.6 23.4 5.9 23.7 5.9 24.1L5.9 30 8.1 30C8.5 30 8.8 29.7 8.8 29.3L8.8 22.7 9.5 22.7C9.9 22.7 10.2 22.4 10.2 22L10.2 10.3C10.4 9.8 10.1 9.5 9.6 9.5L9.6 9.5z" fill="none" stroke="none" class="main-stroke"></path>
    </g></g><style>
          .main-fill {fill: #353535;}
          .main-stroke {stroke: #353535;}
          .secondary-fill {fill: #d9d9d9;}
          .secondary-stroke {stroke: #d9d9d9;}

          .main-fill--darken {fill: #0f0f0f;}
          .main-stroke--darken {stroke: #0f0f0f;}
          .secondary-fill--darken {fill: #b3b3b3;}
          .secondary-stroke--darken {stroke: #b3b3b3;}

          .main-fill--darkener {fill: #000000;}
          .main-stroke--darkener {stroke: #000000;}
          .secondary-fill--darkener {fill: #999999;}
          .secondary-stroke--darkener {stroke: #999999;}
        </style></svg>