<svg xmlns="http://www.w3.org/2000/svg" width="70" height="70" viewBox="0 0 70 70" style="width: 100%; height: 100%;"><desc>Made with illustrio</desc>
  
<defs fill="none" stroke="none"><mask id="maskSivxrv2q71okr"><rect x="35" y="0" width="35" height="70" rx="0" ry="0" fill="#ffffff"></rect></mask></defs><g class="content"><g class="base"><g fill="none" fill-rule="evenodd" stroke="none" class="main-fill">
    
    
  </g><g fill="none" transform="translate(17.967 17.967)" stroke="none" class="main-fill">
      <polygon points="16.331 14.918 16.331 6.779 9.55 6.779 .058 14.918 .058 16.273 14.975 16.273" fill="none" stroke="none" class="main-fill"></polygon>
      <polygon points="14.975 17.745 6.838 17.745 6.838 24.524 14.975 34.018 16.331 34.018 16.331 19.099" fill="none" stroke="none" class="main-fill"></polygon>
      <polygon points="19.071 16.274 27.208 16.274 27.208 9.494 19.071 0 17.715 0 17.715 14.918" fill="none" stroke="none" class="main-fill"></polygon>
      <polygon points="17.687 19.099 17.687 27.237 24.467 27.237 33.96 19.099 33.96 17.745 19.042 17.745" fill="none" stroke="none" class="main-fill"></polygon>
    </g></g><g class="masked" mask="url('#maskSivxrv2q71okr')"><g fill="none" fill-rule="evenodd" stroke="none" class="main-fill--darken">
    
    
  </g><g fill="none" transform="translate(17.967 17.967)" stroke="none" class="main-fill--darken">
      <polygon points="16.331 14.918 16.331 6.779 9.55 6.779 .058 14.918 .058 16.273 14.975 16.273" fill="none" stroke="none" class="main-fill--darken"></polygon>
      <polygon points="14.975 17.745 6.838 17.745 6.838 24.524 14.975 34.018 16.331 34.018 16.331 19.099" fill="none" stroke="none" class="main-fill--darken"></polygon>
      <polygon points="19.071 16.274 27.208 16.274 27.208 9.494 19.071 0 17.715 0 17.715 14.918" fill="none" stroke="none" class="main-fill--darken"></polygon>
      <polygon points="17.687 19.099 17.687 27.237 24.467 27.237 33.96 19.099 33.96 17.745 19.042 17.745" fill="none" stroke="none" class="main-fill--darken"></polygon>
    </g></g></g><style>
          .main-fill {fill: #3fadb4;}
          .main-stroke {stroke: #3fadb4;}
          .secondary-fill {fill: #fff;}
          .secondary-stroke {stroke: #fff;}

          .main-fill--darken {fill: #2b777b;}
          .main-stroke--darken {stroke: #2b777b;}
          .secondary-fill--darken {fill: #d9d9d9;}
          .secondary-stroke--darken {stroke: #d9d9d9;}

          .main-fill--darkener {fill: #1e5256;}
          .main-stroke--darkener {stroke: #1e5256;}
          .secondary-fill--darkener {fill: #bfbfbf;}
          .secondary-stroke--darkener {stroke: #bfbfbf;}
        </style></svg>