<svg height="466pt" viewBox="0 -5 466.1 466" width="466pt" xmlns="http://www.w3.org/2000/svg"><g fill="#92d7e7"><path d="m378.101562 319.59375h-228c-19.601562 0-35.5-15.902344-35.5-35.5 0-19.601562 15.898438-35.5 35.5-35.5 19.597657 0 35.5 15.898438 35.5 35.5v4h-15v-4c0-11.300781-9.203124-20.5-20.5-20.5-11.300781 0-20.5 9.199219-20.5 20.5 0 11.296875 9.199219 20.5 20.5 20.5h228zm0 0"/><path d="m178.101562 352.59375h168v15h-168zm0 0"/><path d="m150.101562 455.59375c-19.601562 0-35.5-15.902344-35.5-35.5 0-19.601562 15.898438-35.5 35.5-35.5h132v15h-132c-11.300781 0-20.5 9.199219-20.5 20.5 0 11.296875 9.199219 20.5 20.5 20.5 11.296876 0 20.5-9.203125 20.5-20.5v-4h15v4c0 19.597656-15.902343 35.5-35.5 35.5zm0 0"/></g><path d="m362.101562 360.09375h16c35.296876 0 64 28.699219 64 64v16h-16c-35.300781 0-64-28.703125-64-64zm0 0" fill="#f4bb3a"/><path d="m250.101562 296.09375v16c0 35.296875-28.703124 64-64 64h-16v-16c0-35.300781 28.699219-64 64-64zm0 0" fill="#ed7c31"/><path d="m450.101562 104.09375c8.796876 0 16-7.203125 16-16 0-8.800781-7.203124-16-16-16-.402343 0-.800781.097656-1.203124.097656.703124-2.597656 1.101562-5.398437 1.203124-8.097656.199219-17.402344-13.703124-31.800781-31.101562-32-3.199219 0-6.398438.398438-9.5 1.296875-3.601562-21.699219-24.101562-36.398437-45.800781-32.796875-16.800781 2.796875-30 16-32.800781 32.796875-16.699219-5-34.296876 4.5-39.296876 21.203125-1.703124 5.699219-1.800781 11.796875-.203124 17.597656-.398438 0-.796876-.097656-1.199219-.097656-8.800781 0-16 7.199219-16 16 0 8.796875 7.199219 16 16 16zm0 0" fill="#e6e6e6"/><path d="m283.699219 184.09375c16.902343.898438 31.402343-12 32.402343-29-1-16.902344-15.5-29.902344-32.402343-29-5.699219 0-11.300781 1.398438-16.398438 4.097656-3.300781-23.898437-24.300781-41.398437-48.402343-40.300781 0-32-29-57.898437-64.796876-57.898437-35.800781 0-64.800781 25.898437-64.800781 57.898437v.601563c-21 2.300781-37.699219 18.699218-40.402343 39.601562-5.097657-2.703125-10.699219-4.101562-16.5-4.101562-16.898438-.898438-31.398438 12-32.398438 29 1 16.898437 15.5 29.898437 32.398438 29h251.300781zm0 0" fill="#e6e6e6"/><path d="m162.101562 367.59375h-100c-19.601562 0-35.5-15.902344-35.5-35.5 0-19.601562 15.898438-35.5 35.5-35.5 19.597657 0 35.5 15.898438 35.5 35.5v4h-15v-4c0-11.300781-9.203124-20.5-20.5-20.5-11.300781 0-20.5 9.199219-20.5 20.5 0 11.296875 9.199219 20.5 20.5 20.5h100zm0 0" fill="#92d7e7"/></svg>