<svg xmlns="http://www.w3.org/2000/svg" width="70" height="70" style="width:100%;height:100%"><defs fill="none"><mask id="maskSivv5e5t13yv2"><rect x="35" width="35" height="70" rx="0" ry="0" fill="#fff"/></mask></defs><g class="content"><g class="base"><g fill="none" class="main-fill"><path d="M21 34.363h-1.274a.637.637 0 0 0 0 1.272H21a.637.637 0 0 0 0-1.272zm29.272 0h-1.273a.636.636 0 1 0 0 1.272h1.273a.636.636 0 1 0 0-1.272zM34.999 21.635a.637.637 0 0 0 .636-.636v-1.273a.637.637 0 0 0-1.272 0V21c0 .351.285.636.636.636zm-9.9 4.101a.635.635 0 0 0 .45-1.086l-.9-.9a.636.636 0 1 0-.9.9l.9.9a.635.635 0 0 0 .45.186zm20.25-1.987l-.9.9a.636.636 0 1 0 .9.9l.9-.9a.636.636 0 1 0-.9-.9zm-10.35.432c-5.965 0-10.818 4.853-10.818 10.818 0 4.763 3.116 8.942 7.636 10.33v2.397c0 .352.285.637.637.637h5.09a.636.636 0 0 0 .637-.637V45.33a10.807 10.807 0 0 0 7.636-10.33c0-5.965-4.853-10.818-10.818-10.818zm3.818 11.454h-1.009l-1.086 1.087a.634.634 0 0 1-.45.186h-2.546a.635.635 0 0 1-.45-.186l-1.086-1.087h-1.01a.637.637 0 0 1 0-1.272h1.274c.168 0 .33.067.45.186l1.086 1.086h2.018l1.087-1.086a.634.634 0 0 1 .45-.186h1.272a.636.636 0 1 1 0 1.272zm-2.545 14h-2.546a.636.636 0 1 0 0 1.273h2.546a.636.636 0 1 0 0-1.273z" class="main-fill"/></g></g><g class="masked" mask="url('#maskSivv5e5t13yv2')"><g fill="none" class="main-fill--darken"><path d="M21 34.363h-1.274a.637.637 0 0 0 0 1.272H21a.637.637 0 0 0 0-1.272zm29.272 0h-1.273a.636.636 0 1 0 0 1.272h1.273a.636.636 0 1 0 0-1.272zM34.999 21.635a.637.637 0 0 0 .636-.636v-1.273a.637.637 0 0 0-1.272 0V21c0 .351.285.636.636.636zm-9.9 4.101a.635.635 0 0 0 .45-1.086l-.9-.9a.636.636 0 1 0-.9.9l.9.9a.635.635 0 0 0 .45.186zm20.25-1.987l-.9.9a.636.636 0 1 0 .9.9l.9-.9a.636.636 0 1 0-.9-.9zm-10.35.432c-5.965 0-10.818 4.853-10.818 10.818 0 4.763 3.116 8.942 7.636 10.33v2.397c0 .352.285.637.637.637h5.09a.636.636 0 0 0 .637-.637V45.33a10.807 10.807 0 0 0 7.636-10.33c0-5.965-4.853-10.818-10.818-10.818zm3.818 11.454h-1.009l-1.086 1.087a.634.634 0 0 1-.45.186h-2.546a.635.635 0 0 1-.45-.186l-1.086-1.087h-1.01a.637.637 0 0 1 0-1.272h1.274c.168 0 .33.067.45.186l1.086 1.086h2.018l1.087-1.086a.634.634 0 0 1 .45-.186h1.272a.636.636 0 1 1 0 1.272zm-2.545 14h-2.546a.636.636 0 1 0 0 1.273h2.546a.636.636 0 1 0 0-1.273z" class="main-fill--darken"/></g></g></g><style>.main-fill{fill:#3fadb4}.main-fill--darken{fill:#2b777b}</style></svg>