<svg xmlns="http://www.w3.org/2000/svg" viewBox="0 0 494.429 494.429" width="70" height="70"><circle cx="234.414" cy="244.8" r="219.2" fill="#ffbc00"/><path d="M80.014 89.6c85.6-85.6 224-85.6 309.6 0s85.6 224 0 309.6" fill="#fa0"/><path d="M76.014 347.2c0-1.6-1.6-4-2.4-4h-64c-.8 0-2.4 2.4-2.4 4s1.6 4 2.4 4h63.2c1.6 0 3.2-2.4 3.2-4z" fill="#0c9686"/><g fill="#17ccae"><path d="M76.014 419.2c0-1.6-1.6-4-2.4-4h-64c-.8 0-2.4 2.4-2.4 4s1.6 4 2.4 4h63.2c1.6 0 3.2-2.4 3.2-4zM110.414 494.4c-20 .8-37.6-15.2-37.6-36-.8-16.8 12.8-30.4 29.6-31.2 13.6 0 24.8 10.4 25.6 24 0 11.2-8.8 20.8-20 20.8-9.6 0-17.6-7.2-17.6-16.8 0-1.6 1.6-3.2 3.2-3.2s3.2 1.6 3.2 3.2c0 5.6 4.8 10.4 10.4 9.6 7.2 0 13.6-6.4 13.6-14.4 0-9.6-8.8-17.6-18.4-17.6-12.8 0-23.2 11.2-22.4 24 .8 16.8 14.4 29.6 31.2 28.8 20.8-.8 37.6-18.4 37.6-39.2-.8-27.2-20.8-49.6-48-48.8-1.6 0-5.6 0-5.6-1.6s4-6.4 5.6-6.4c30.4-.8 53.6 26.4 55.2 56.8-.8 26.4-20.8 47.2-45.6 48z"/><path d="M103.214 396c0 1.6-1.6 3.2-3.2 3.2h-81.6c-1.6 0-3.2-1.6-3.2-3.2v-.8c0-2.4 1.6-4 3.2-4h80.8c1.6 0 3.2 1.6 3.2 3.2v1.6h.8z"/></g><g fill="#0c9686"><path d="M110.414 272.8c-20-.8-37.6 15.2-37.6 36-.8 16.8 12.8 30.4 29.6 31.2 13.6 0 24.8-10.4 25.6-24 0-11.2-8.8-20.8-20-20.8-9.6 0-17.6 7.2-17.6 16.8 0 1.6 1.6 3.2 3.2 3.2s3.2-1.6 3.2-3.2c0-5.6 4.8-10.4 10.4-9.6 7.2 0 13.6 6.4 13.6 14.4 0 9.6-8.8 17.6-18.4 17.6-12.8 0-23.2-11.2-22.4-24 .8-16.8 14.4-29.6 31.2-28.8 20.8.8 37.6 18.4 37.6 39.2-.8 27.2-21.6 48.8-48.8 48-1.6 0-4.8.8-4.8 2.4 0 1.6 3.2 5.6 4.8 5.6 30.4.8 54.4-25.6 56-56-.8-26.4-20.8-47.2-45.6-48z"/><path d="M102.414 371.2c0-1.6-1.6-4-3.2-4h-81.6c-1.6 0-3.2 2.4-3.2 4s1.6 4 3.2 4h81.6c1.6 0 3.2-2.4 3.2-4z"/><circle cx="58.414" cy="327.2" r="3.2"/></g><circle cx="58.414" cy="439.2" r="3.2" fill="#17ccae"/><g fill="#0c9686"><circle cx="133.614" cy="383.2" r="3.2"/><path d="M206.414 347.2c0-1.6-1.6-4-2.4-4h-63.2c-1.6 0-2.4 2.4-2.4 4s1.6 4 2.4 4h63.2c.8 0 2.4-2.4 2.4-4z"/></g><g fill="#17ccae"><path d="M207.214 417.6c0-1.6-1.6-2.4-2.4-2.4h-66.4c-1.6 0-2.4 1.6-2.4 2.4v2.4c0 1.6 1.6 2.4 2.4 2.4h66.4c1.6 0 2.4-1.6 2.4-2.4v-2.4zM240.814 494.4c-20 .8-37.6-15.2-37.6-36-.8-16.8 12.8-30.4 29.6-31.2 13.6 0 25.6 10.4 25.6 24 0 11.2-8.8 20.8-20 20.8-9.6 0-17.6-7.2-17.6-16.8 0-1.6 1.6-3.2 3.2-3.2s3.2 1.6 3.2 3.2c0 5.6 4.8 10.4 10.4 9.6 7.2 0 13.6-6.4 13.6-14.4 0-9.6-8.8-17.6-18.4-17.6-12.8 0-23.2 11.2-22.4 24 .8 16.8 14.4 29.6 31.2 28.8 20.8-.8 37.6-18.4 37.6-39.2-.8-27.2-23.2-49.6-50.4-48.8-1.6 0-3.2 0-3.2-1.6s1.6-6.4 3.2-6.4c30.4-.8 56 26.4 57.6 56.8-.8 26.4-20.8 47.2-45.6 48z"/><path d="M231.214 396c0 1.6-1.6 3.2-3.2 3.2h-81.6c-1.6 0-3.2-1.6-3.2-3.2v-.8c0-1.6 1.6-3.2 3.2-3.2h80.8c1.6 0 3.2 1.6 3.2 3.2v.8h.8z"/></g><g fill="#0c9686"><path d="M240.814 272.8c-20-.8-37.6 15.2-37.6 36-.8 16.8 12.8 30.4 29.6 31.2 13.6 0 25.6-10.4 25.6-24 0-11.2-8.8-20.8-20-20.8-9.6 0-17.6 7.2-17.6 16.8 0 1.6 1.6 3.2 3.2 3.2s3.2-1.6 3.2-3.2c0-5.6 4.8-10.4 10.4-9.6 7.2 0 13.6 6.4 13.6 14.4 0 9.6-8.8 17.6-18.4 17.6-12.8 0-23.2-11.2-22.4-24 .8-16.8 14.4-29.6 31.2-28.8 20.8.8 37.6 18.4 37.6 39.2-.8 27.2-21.6 48.8-48.8 48-1.6 0-4.8.8-4.8 2.4 0 1.6 3.2 5.6 4.8 5.6 30.4.8 54.4-25.6 56-56-.8-26.4-20.8-47.2-45.6-48z"/><path d="M232.814 371.2c0-1.6-1.6-4-3.2-4h-81.6c-1.6 0-3.2 2.4-3.2 4s1.6 4 3.2 4h81.6c1.6 0 3.2-2.4 3.2-4z"/><circle cx="188.814" cy="327.2" r="3.2"/></g><circle cx="188.814" cy="439.2" r="3.2" fill="#17ccae"/><g fill="#0c9686"><circle cx="264.014" cy="383.2" r="3.2"/><path d="M336.814 347.2c0-1.6-1.6-4-2.4-4h-63.2c-1.6 0-2.4 2.4-2.4 4s1.6 4 2.4 4h63.2c.8 0 2.4-2.4 2.4-4z"/></g><g fill="#17ccae"><path d="M336.814 419.2c0-1.6-1.6-4-2.4-4h-63.2c-1.6 0-2.4 2.4-2.4 4s1.6 4 2.4 4h63.2c.8 0 2.4-2.4 2.4-4zM371.214 494.4c-20 .8-37.6-15.2-37.6-36-.8-16.8 12.8-30.4 29.6-31.2 13.6 0 25.6 10.4 25.6 24 0 11.2-8.8 20.8-20 20.8-9.6 0-17.6-7.2-17.6-16.8 0-1.6 1.6-3.2 3.2-3.2s3.2 1.6 3.2 3.2c0 5.6 4.8 10.4 10.4 9.6 7.2 0 13.6-6.4 13.6-14.4 0-9.6-8.8-17.6-18.4-17.6-12.8 0-23.2 11.2-22.4 24 .8 16.8 14.4 29.6 31.2 28.8 20.8-.8 37.6-18.4 37.6-39.2-.8-27.2-25.6-49.6-52.8-48.8-1.6 0-3.2-.8-3.2-2.4 0-1.6 1.6-5.6 3.2-5.6 30.4-.8 58.4 26.4 59.2 56.8 0 26.4-20 47.2-44.8 48z"/><path d="M359.214 396c0 1.6-1.6 3.2-3.2 3.2h-81.6c-1.6 0-3.2-1.6-3.2-3.2v-.8c0-1.6 1.6-3.2 3.2-3.2h80.8c1.6 0 3.2 1.6 3.2 3.2v.8h.8z"/></g><g fill="#0c9686"><path d="M371.214 272.8c-20-.8-37.6 15.2-37.6 36-.8 16.8 12.8 30.4 29.6 31.2 13.6 0 25.6-10.4 25.6-24 0-11.2-8.8-20.8-20-20.8-9.6 0-17.6 7.2-17.6 16.8 0 1.6 1.6 3.2 3.2 3.2s3.2-1.6 3.2-3.2c0-5.6 4.8-10.4 10.4-9.6 7.2 0 13.6 6.4 13.6 14.4 0 9.6-8.8 17.6-18.4 17.6-12.8 0-23.2-11.2-22.4-24 .8-16.8 14.4-29.6 31.2-28.8 20.8.8 37.6 18.4 37.6 39.2-.8 27.2-21.6 48.8-48.8 48-1.6 0-4.8.8-4.8 2.4 0 1.6 3.2 5.6 4.8 5.6 30.4.8 54.4-25.6 56-56-.8-26.4-20.8-47.2-45.6-48z"/><path d="M363.214 371.2c0-1.6-1.6-4-3.2-4h-81.6c-1.6 0-3.2 2.4-3.2 4s1.6 4 3.2 4h81.6c1.6 0 3.2-2.4 3.2-4z"/><circle cx="318.414" cy="327.2" r="3.2"/></g><circle cx="318.414" cy="439.2" r="3.2" fill="#17ccae"/><circle cx="394.414" cy="383.2" r="3.2" fill="#0c9686"/><path d="M487.214 128.8c0-71.2-57.6-128.8-129.6-128.8-50.4 0-93.6 28.8-115.2 71.2-4.8-.8-9.6-1.6-14.4-1.6-33.6 0-60.8 27.2-60.8 60.8 0 1.6-1.6 2.4-1.6 4-44.8 4.8-70.4 43.2-70.4 90.4v6.4c0 50.4 44 88 94.4 88h206.4c49.6 0 91.2-37.6 91.2-88v-28.8-73.6z" fill="#dcf9f6"/><path d="M487.214 146.4c0-71.2-57.6-128.8-129.6-128.8-50.4 0-93.6 28.8-115.2 71.2-4.8-.8-9.6-1.6-14.4-1.6-33.6 0-60.8 27.2-60.8 60.8 0 1.6-1.6 2.4-1.6 4-44.8 4.8-70.4 26.4-70.4 73.6v5.6c0 50.4 44 88 94.4 88h206.4c49.6 0 91.2-37.6 91.2-88v-28.8-56z" fill="#b3ddd7"/><path d="M191.214 319.2h204.8c49.6 0 91.2-37.6 91.2-88v-28.8V144" fill="#a6d1cc"/><g fill="#dcf9f6"><path d="M301.614 148c-4-.8-8-1.6-12-1.6-24 0-43.2 19.2-43.2 43.2 0 4 .8 8 1.6 12 4-28 25.6-50.4 53.6-53.6z"/><path d="M376.814 108c-4.8-2.4-10.4-4.8-16-5.6-32-5.6-63.2 15.2-68.8 47.2-.8 5.6-.8 11.2 0 16.8 11.2-36 46.4-60.8 84.8-58.4z"/></g><g fill="#b1ddd9"><path d="M146.414 218.4c0 2.4-1.6 4-4 4s-4-1.6-4-4 1.6-4 4-4c2.4-.8 4 1.6 4 4z"/><circle cx="153.614" cy="185.6" r="5.6"/><circle cx="228.014" cy="124" r="2.4"/></g><g fill="#dcf9f6"><path d="M294.414 91.2c0 3.2-3.2 6.4-6.4 6.4s-6.4-3.2-6.4-6.4 3.2-6.4 6.4-6.4 6.4 2.4 6.4 6.4zM341.614 38.4c0 1.6-1.6 3.2-3.2 3.2s-3.2-1.6-3.2-3.2 1.6-3.2 3.2-3.2 3.2.8 3.2 3.2zM377.614 48c0 5.6-4 9.6-9.6 9.6s-9.6-4-9.6-9.6 4-9.6 9.6-9.6c4.8 0 9.6 4 9.6 9.6z"/></g></svg>