<svg xmlns="http://www.w3.org/2000/svg" style="isolation:isolate" width="67.957" height="100.72"><defs><clipPath id="a"><path d="M0 0h67.957v100.72H0z"/></clipPath></defs><g clip-path="url(#a)"><clipPath id="b"><path fill="#FFF" d="M0 0h67.957v100.72H0z"/></clipPath><g clip-path="url(#b)"><path d="M37.821 85.062l-4.999-.061.234-19.248-4.999-.061-.235 19.249-5-.061 7.308 15.84 7.691-15.658z" fill="#3FADB4"/><circle vector-effect="non-scaling-stroke" cx="32.166" cy="34.658" r="31.034" fill="#FFBC00"/><path d="M10.307 12.685C22.426.566 42.02.566 54.139 12.685s12.119 31.714 0 43.833" fill="#FA0"/><path d="M9.741 49.156c0-.227-.227-.567-.34-.567H.34c-.113 0-.34.34-.34.567 0 .226.227.566.34.566h8.947c.227 0 .454-.34.454-.566z" fill="#0C9686"/><g fill="#17CCAE"><path d="M9.741 59.349c0-.226-.227-.566-.34-.566H.34c-.113 0-.34.34-.34.566 0 .227.227.567.34.567h8.947c.227 0 .454-.34.454-.567zM14.611 69.996c-2.832.113-5.324-2.152-5.324-5.097-.113-2.378 1.813-4.304 4.191-4.417a3.608 3.608 0 0 1 3.625 3.398c0 1.585-1.246 2.945-2.832 2.945-1.359 0-2.492-1.02-2.492-2.379 0-.226.227-.453.453-.453.227 0 .453.227.453.453 0 .793.68 1.472 1.473 1.359 1.019 0 1.925-.906 1.925-2.039 0-1.359-1.246-2.491-2.605-2.491-1.812 0-3.284 1.585-3.171 3.398.113 2.378 2.039 4.19 4.417 4.077 2.945-.113 5.323-2.605 5.323-5.55-.113-3.851-2.944-7.022-6.795-6.909-.227 0-.793 0-.793-.226 0-.227.566-.906.793-.906 4.304-.114 7.588 3.737 7.815 8.041-.114 3.738-2.945 6.683-6.456 6.796z"/><path d="M13.591 56.065a.487.487 0 0 1-.453.453H1.586a.487.487 0 0 1-.453-.453v-.114c0-.339.226-.566.453-.566h11.439c.227 0 .453.227.453.453v.227h.113z"/></g><g fill="#0C9686"><path d="M14.611 38.622c-2.832-.113-5.324 2.152-5.324 5.097-.113 2.379 1.813 4.304 4.191 4.417a3.608 3.608 0 0 0 3.625-3.398c0-1.585-1.246-2.944-2.832-2.944-1.359 0-2.492 1.019-2.492 2.378 0 .227.227.453.453.453a.486.486 0 0 0 .453-.453c0-.793.68-1.472 1.473-1.359 1.019 0 1.925.906 1.925 2.039 0 1.359-1.246 2.492-2.605 2.492-1.812 0-3.284-1.586-3.171-3.398.113-2.379 2.039-4.191 4.417-4.078 2.945.113 5.323 2.605 5.323 5.55-.113 3.851-3.058 6.909-6.909 6.796-.226 0-.679.113-.679.34 0 .226.453.792.679.792 4.304.114 7.702-3.624 7.929-7.928-.114-3.738-2.945-6.682-6.456-6.796z"/><path d="M13.478 52.554c0-.227-.226-.567-.453-.567H1.472c-.226 0-.453.34-.453.567 0 .226.227.566.453.566h11.553c.227 0 .453-.34.453-.566z"/><circle vector-effect="non-scaling-stroke" cx="7.249" cy="46.324" r=".453"/></g><circle vector-effect="non-scaling-stroke" cx="7.249" cy="62.181" r=".453" fill="#17CCAE"/><g fill="#0C9686"><circle vector-effect="non-scaling-stroke" cx="17.895" cy="54.252" r=".453"/><path d="M28.202 49.156c0-.227-.226-.567-.34-.567h-8.947c-.227 0-.34.34-.34.567 0 .226.226.566.34.566h8.947c.114 0 .34-.34.34-.566z"/></g><g fill="#17CCAE"><path d="M28.315 59.123c0-.227-.226-.34-.339-.34h-9.401c-.227 0-.34.226-.34.34v.34c0 .226.227.339.34.339h9.401c.226 0 .339-.226.339-.339v-.34zM33.072 69.996c-2.831.113-5.323-2.152-5.323-5.097-.113-2.378 1.812-4.304 4.191-4.417 1.925 0 3.624 1.472 3.624 3.398 0 1.585-1.246 2.945-2.831 2.945-1.359 0-2.492-1.02-2.492-2.379 0-.226.226-.453.453-.453s.453.227.453.453c0 .793.68 1.472 1.472 1.359 1.02 0 1.926-.906 1.926-2.039 0-1.359-1.246-2.491-2.605-2.491-1.812 0-3.285 1.585-3.171 3.398.113 2.378 2.038 4.19 4.417 4.077 2.945-.113 5.323-2.605 5.323-5.55-.113-3.851-3.285-7.022-7.135-6.909-.227 0-.453 0-.453-.226 0-.227.226-.906.453-.906 4.304-.114 7.928 3.737 8.154 8.041-.113 3.738-2.944 6.683-6.456 6.796z"/><path d="M31.713 56.065a.487.487 0 0 1-.453.453H19.708a.487.487 0 0 1-.453-.453v-.114c0-.226.226-.453.453-.453h11.439c.227 0 .453.227.453.453v.114h.113z"/></g><g fill="#0C9686"><path d="M33.072 38.622c-2.831-.113-5.323 2.152-5.323 5.097-.113 2.379 1.812 4.304 4.191 4.417 1.925 0 3.624-1.472 3.624-3.398 0-1.585-1.246-2.944-2.831-2.944-1.359 0-2.492 1.019-2.492 2.378 0 .227.226.453.453.453a.486.486 0 0 0 .453-.453c0-.793.68-1.472 1.472-1.359 1.02 0 1.926.906 1.926 2.039 0 1.359-1.246 2.492-2.605 2.492-1.812 0-3.285-1.586-3.171-3.398.113-2.379 2.038-4.191 4.417-4.078 2.945.113 5.323 2.605 5.323 5.55-.113 3.851-3.058 6.909-6.909 6.796-.226 0-.679.113-.679.34 0 .226.453.792.679.792 4.304.114 7.702-3.624 7.928-7.928-.113-3.738-2.944-6.682-6.456-6.796z"/><path d="M31.94 52.554c0-.227-.227-.567-.453-.567H19.934c-.226 0-.453.34-.453.567 0 .226.227.566.453.566h11.553c.226 0 .453-.34.453-.566z"/><circle vector-effect="non-scaling-stroke" cx="25.71" cy="46.324" r=".453"/></g><circle vector-effect="non-scaling-stroke" cx="25.71" cy="62.181" r=".453" fill="#17CCAE"/><g fill="#0C9686"><circle vector-effect="non-scaling-stroke" cx="36.357" cy="54.252" r=".453"/><path d="M46.664 49.156c0-.227-.227-.567-.34-.567h-8.948c-.226 0-.339.34-.339.567 0 .226.226.566.339.566h8.948c.113 0 .34-.34.34-.566z"/></g><g fill="#17CCAE"><path d="M46.664 59.349c0-.226-.227-.566-.34-.566h-8.948c-.226 0-.339.34-.339.566 0 .227.226.567.339.567h8.948c.113 0 .34-.34.34-.567zM51.534 69.996c-2.831.113-5.323-2.152-5.323-5.097-.113-2.378 1.812-4.304 4.191-4.417 1.925 0 3.624 1.472 3.624 3.398 0 1.585-1.246 2.945-2.832 2.945-1.359 0-2.491-1.02-2.491-2.379 0-.226.226-.453.453-.453.226 0 .453.227.453.453 0 .793.679 1.472 1.472 1.359 1.02 0 1.926-.906 1.926-2.039 0-1.359-1.246-2.491-2.605-2.491-1.813 0-3.285 1.585-3.172 3.398.114 2.378 2.039 4.19 4.417 4.077 2.945-.113 5.324-2.605 5.324-5.55-.113-3.851-3.625-7.022-7.476-6.909-.226 0-.453-.113-.453-.34 0-.226.227-.792.453-.792 4.304-.114 8.269 3.737 8.382 8.041 0 3.738-2.832 6.683-6.343 6.796z"/><path d="M49.835 56.065a.487.487 0 0 1-.453.453H37.829a.488.488 0 0 1-.453-.453v-.114c0-.226.227-.453.453-.453h11.44c.226 0 .453.227.453.453v.114h.113z"/></g><g fill="#0C9686"><path d="M51.534 38.622c-2.831-.113-5.323 2.152-5.323 5.097-.113 2.379 1.812 4.304 4.191 4.417 1.925 0 3.624-1.472 3.624-3.398 0-1.585-1.246-2.944-2.832-2.944-1.359 0-2.491 1.019-2.491 2.378 0 .227.226.453.453.453a.487.487 0 0 0 .453-.453c0-.793.679-1.472 1.472-1.359 1.02 0 1.926.906 1.926 2.039 0 1.359-1.246 2.492-2.605 2.492-1.813 0-3.285-1.586-3.172-3.398.114-2.379 2.039-4.191 4.417-4.078 2.945.113 5.324 2.605 5.324 5.55-.113 3.851-3.058 6.909-6.909 6.796-.227 0-.68.113-.68.34 0 .226.453.792.68.792 4.304.114 7.702-3.624 7.928-7.928-.113-3.738-2.945-6.682-6.456-6.796z"/><path d="M50.402 52.554c0-.227-.227-.567-.453-.567H38.396c-.227 0-.453.34-.453.567 0 .226.226.566.453.566h11.553c.226 0 .453-.34.453-.566z"/><circle vector-effect="non-scaling-stroke" cx="44.059" cy="46.324" r=".453"/></g><circle vector-effect="non-scaling-stroke" cx="44.059" cy="62.181" r=".453" fill="#17CCAE"/><circle vector-effect="non-scaling-stroke" cx="54.819" cy="54.252" r=".453" fill="#0C9686"/><path d="M67.957 18.235C67.957 8.155 59.802 0 49.609 0c-7.136 0-13.252 4.077-16.31 10.08-.68-.113-1.359-.226-2.039-.226a8.604 8.604 0 0 0-8.608 8.608c0 .226-.226.339-.226.566-6.343.68-9.967 6.116-9.967 12.799v.906c0 7.135 6.229 12.459 13.365 12.459h29.221c7.023 0 12.912-5.324 12.912-12.459v-4.078-10.42z" fill="#DCF9F6"/><path d="M67.957 20.727c0-10.08-8.155-18.235-18.348-18.235-7.136 0-13.252 4.077-16.31 10.08-.68-.113-1.359-.226-2.039-.226a8.603 8.603 0 0 0-8.608 8.607c0 .227-.226.34-.226.567-6.343.679-9.967 3.737-9.967 10.42v.793c0 7.135 6.229 12.459 13.365 12.459h29.221c7.023 0 12.912-5.324 12.912-12.459v-4.078-7.928z" fill="#B3DDD7"/><path d="M26.05 45.192h28.995c7.023 0 12.912-5.324 12.912-12.459v-4.078-8.268" fill="#A6D1CC"/><g fill="#DCF9F6"><path d="M41.68 20.953c-.566-.113-1.132-.226-1.699-.226a6.09 6.09 0 0 0-6.116 6.116c0 .566.114 1.133.227 1.699.566-3.964 3.624-7.135 7.588-7.589z"/><path d="M52.327 15.29c-.68-.339-1.472-.679-2.265-.792-4.531-.793-8.948 2.152-9.741 6.682a8.383 8.383 0 0 0 0 2.378c1.586-5.096 6.569-8.607 12.006-8.268z"/></g><g fill="#B1DDD9"><path d="M19.708 30.921c0 .339-.227.566-.567.566-.34 0-.566-.227-.566-.566 0-.34.226-.567.566-.567.34-.113.567.227.567.567z"/><circle vector-effect="non-scaling-stroke" cx="20.727" cy="26.277" r=".793"/><circle vector-effect="non-scaling-stroke" cx="31.26" cy="17.556" r=".34"/></g><g fill="#DCF9F6"><path d="M40.661 12.912c0 .453-.453.906-.906.906s-.906-.453-.906-.906.453-.906.906-.906.906.34.906.906zM47.344 5.437c0 .226-.227.453-.454.453a.488.488 0 0 1-.453-.453c0-.227.227-.453.453-.453.227 0 .454.113.454.453zM52.44 6.796c0 .793-.566 1.359-1.359 1.359s-1.359-.566-1.359-1.359.566-1.359 1.359-1.359c.68 0 1.359.566 1.359 1.359z"/></g></g></g></svg>