<svg xmlns="http://www.w3.org/2000/svg" width="70" height="70" style="width:100%;height:100%"><path d="M19 34.001c0 8.835 7.164 16 16 16s16-7.164 16-16-7.164-16-16-16-16 7.165-16 16zm19.465-7.457a1.907 1.907 0 0 1 0 2.699l-4.801 4.746 4.801 4.746a1.907 1.907 0 0 1 0 2.699 1.945 1.945 0 0 1-2.727 0l-6.156-6.098a1.907 1.907 0 0 1 0-2.699l6.156-6.094a1.942 1.942 0 0 1 2.727.001z" fill="none" fill-rule="evenodd"/><g class="clone"><g fill="none" fill-rule="evenodd" class="main-fill main-stroke" stroke-width="2"><path d="M19 34.001c0 8.835 7.164 16 16 16s16-7.164 16-16-7.164-16-16-16-16 7.165-16 16zm19.465-7.457a1.907 1.907 0 0 1 0 2.699l-4.801 4.746 4.801 4.746a1.907 1.907 0 0 1 0 2.699 1.945 1.945 0 0 1-2.727 0l-6.156-6.098a1.907 1.907 0 0 1 0-2.699l6.156-6.094a1.942 1.942 0 0 1 2.727.001z" class="main-fill main-stroke"/></g></g><g class="base"><g fill="none" fill-rule="evenodd" class="secondary-fill"><path d="M19 34.001c0 8.835 7.164 16 16 16s16-7.164 16-16-7.164-16-16-16-16 7.165-16 16zm19.465-7.457a1.907 1.907 0 0 1 0 2.699l-4.801 4.746 4.801 4.746a1.907 1.907 0 0 1 0 2.699 1.945 1.945 0 0 1-2.727 0l-6.156-6.098a1.907 1.907 0 0 1 0-2.699l6.156-6.094a1.942 1.942 0 0 1 2.727.001z" class="secondary-fill"/></g></g><style>.main-fill{fill:#eee}.main-stroke{stroke:#eee}.secondary-fill{fill:#fff}</style></svg>