<svg xmlns="http://www.w3.org/2000/svg" width="70" height="70"><path d="M51 35c0-8.835-7.164-16-16-16s-16 7.164-16 16 7.164 16 16 16 16-7.165 16-16zm-19.465 7.456a1.907 1.907 0 0 1 0-2.699l4.801-4.746-4.801-4.746a1.907 1.907 0 0 1 0-2.699 1.945 1.945 0 0 1 2.727 0l6.156 6.098a1.906 1.906 0 0 1 0 2.698l-6.156 6.094a1.941 1.941 0 0 1-2.727 0z" fill="none" fill-rule="evenodd"/><g class="clone"><g fill="none" fill-rule="evenodd" class="slider__main-fill slider__main-stroke" stroke-width="2"><path d="M51 35c0-8.835-7.164-16-16-16s-16 7.164-16 16 7.164 16 16 16 16-7.165 16-16zm-19.465 7.456a1.907 1.907 0 0 1 0-2.699l4.801-4.746-4.801-4.746a1.907 1.907 0 0 1 0-2.699 1.945 1.945 0 0 1 2.727 0l6.156 6.098a1.906 1.906 0 0 1 0 2.698l-6.156 6.094a1.941 1.941 0 0 1-2.727 0z" class="slider__main-fill slider__main-stroke"/></g></g><g class="base"><g fill="none" fill-rule="evenodd" class="slider__secondary-fill"><path d="M51 35c0-8.835-7.164-16-16-16s-16 7.164-16 16 7.164 16 16 16 16-7.165 16-16zm-19.465 7.456a1.907 1.907 0 0 1 0-2.699l4.801-4.746-4.801-4.746a1.907 1.907 0 0 1 0-2.699 1.945 1.945 0 0 1 2.727 0l6.156 6.098a1.906 1.906 0 0 1 0 2.698l-6.156 6.094a1.941 1.941 0 0 1-2.727 0z" class="slider__secondary-fill"/></g></g><style>.slider__main-fill{fill:#eee}.slider__main-stroke{stroke:#eee}.slider__secondary-fill{fill:#fff}</style></svg>