<svg xmlns="http://www.w3.org/2000/svg" width="70" height="70" style="width:100%;height:100%"><defs fill="none"><mask id="maskSivv4338xzv8"><rect x="35" width="35" height="70" rx="0" ry="0" fill="#fff"/></mask></defs><g class="content"><g class="base"><g fill="none" class="main-fill"><path d="M35 42a3.185 3.185 0 0 0-3.182 3.182A3.185 3.185 0 0 0 35 48.363a3.185 3.185 0 0 0 3.182-3.181A3.185 3.185 0 0 0 35 42z" class="main-fill"/><path d="M38.182 38.948V21A3.185 3.185 0 0 0 35 17.818 3.185 3.185 0 0 0 31.818 21v17.948A7.002 7.002 0 0 0 28 45.182c0 3.86 3.14 7 7 7s7-3.14 7-7a7.002 7.002 0 0 0-3.818-6.234zM35 49.636a4.46 4.46 0 0 1-4.455-4.454 4.457 4.457 0 0 1 3.819-4.404v-10.87a.637.637 0 0 1 1.272 0v10.87a4.458 4.458 0 0 1 3.819 4.404A4.46 4.46 0 0 1 35 49.636zm6.364-25.454H40.09a.636.636 0 1 1 0-1.273h1.273a.636.636 0 1 1 0 1.273zm0 2.545H40.09a.636.636 0 1 1 0-1.273h1.273a.636.636 0 1 1 0 1.273z" class="main-fill"/><path d="M41.364 29.273H40.09a.636.636 0 1 1 0-1.273h1.273a.636.636 0 1 1 0 1.273zm0 2.545H40.09a.636.636 0 1 1 0-1.273h1.273a.636.636 0 1 1 0 1.273zm0 2.545H40.09a.636.636 0 1 1 0-1.272h1.273a.636.636 0 1 1 0 1.272zm0 2.546H40.09a.636.636 0 1 1 0-1.273h1.273a.636.636 0 1 1 0 1.273z" class="main-fill"/></g></g><g class="masked" mask="url('#maskSivv4338xzv8')"><g fill="none" class="main-fill--darken"><path d="M35 42a3.185 3.185 0 0 0-3.182 3.182A3.185 3.185 0 0 0 35 48.363a3.185 3.185 0 0 0 3.182-3.181A3.185 3.185 0 0 0 35 42z" class="main-fill--darken"/><path d="M38.182 38.948V21A3.185 3.185 0 0 0 35 17.818 3.185 3.185 0 0 0 31.818 21v17.948A7.002 7.002 0 0 0 28 45.182c0 3.86 3.14 7 7 7s7-3.14 7-7a7.002 7.002 0 0 0-3.818-6.234zM35 49.636a4.46 4.46 0 0 1-4.455-4.454 4.457 4.457 0 0 1 3.819-4.404v-10.87a.637.637 0 0 1 1.272 0v10.87a4.458 4.458 0 0 1 3.819 4.404A4.46 4.46 0 0 1 35 49.636zm6.364-25.454H40.09a.636.636 0 1 1 0-1.273h1.273a.636.636 0 1 1 0 1.273zm0 2.545H40.09a.636.636 0 1 1 0-1.273h1.273a.636.636 0 1 1 0 1.273z" class="main-fill--darken"/><path d="M41.364 29.273H40.09a.636.636 0 1 1 0-1.273h1.273a.636.636 0 1 1 0 1.273zm0 2.545H40.09a.636.636 0 1 1 0-1.273h1.273a.636.636 0 1 1 0 1.273zm0 2.545H40.09a.636.636 0 1 1 0-1.272h1.273a.636.636 0 1 1 0 1.272zm0 2.546H40.09a.636.636 0 1 1 0-1.273h1.273a.636.636 0 1 1 0 1.273z" class="main-fill--darken"/></g></g></g><style>.main-fill{fill:#3fadb4}.main-fill--darken{fill:#2b777b}</style></svg>