<svg xmlns="http://www.w3.org/2000/svg" width="70" height="70" style="width:100%;height:100%"><g class="base"><g fill="none" fill-rule="evenodd" class="main-stroke"><path d="M50.272 21.636H19.726a.637.637 0 0 0-.636.636v25.455c0 .352.285.636.636.636h30.546a.636.636 0 0 0 .636-.636V22.272a.636.636 0 0 0-.636-.636zM29.165 38.465a.637.637 0 0 1-1.059.706l-2.545-3.818a.636.636 0 0 1 0-.706l2.545-3.818a.636.636 0 1 1 1.059.706L26.855 35l2.31 3.465zm5.185 3.023a.635.635 0 1 1-1.247-.25l2.545-12.727a.637.637 0 0 1 1.248.25L34.35 41.488zm10.088-6.135l-2.546 3.818a.635.635 0 0 1-.882.176.636.636 0 0 1-.177-.882L43.143 35l-2.31-3.465a.636.636 0 1 1 1.06-.707l2.545 3.818a.637.637 0 0 1 0 .707z" class="main-stroke"/></g></g><style>.main-stroke{stroke:#353535}</style></svg>