<svg xmlns="http://www.w3.org/2000/svg" width="70" height="70" style="width:100%;height:100%"><g class="base"><g fill="none" fill-rule="evenodd" class="main-stroke"><path d="M47.74 23.488H22.21a2.56 2.56 0 0 0-2.552 2.552v17.87a2.56 2.56 0 0 0 2.553 2.553h25.528a2.55 2.55 0 0 0 2.54-2.553l.013-17.87a2.56 2.56 0 0 0-2.553-2.552zm-17.87 3.829c2.118 0 3.829 1.71 3.829 3.829s-1.71 3.83-3.83 3.83a3.824 3.824 0 0 1-3.829-3.83c0-2.119 1.71-3.83 3.83-3.83zm7.658 15.317H22.21v-1.277c0-2.553 5.105-3.957 7.658-3.957s7.659 1.404 7.659 3.957v1.277zm4.914-5.106h2.095l1.926 2.553-2.54 2.54a9.6 9.6 0 0 1-3.485-5.093 9.427 9.427 0 0 1-.357-2.553c0-.88.127-1.736.356-2.553a9.554 9.554 0 0 1 3.484-5.092l2.542 2.54-1.928 2.552h-2.093a7.72 7.72 0 0 0-.447 2.553c0 .894.166 1.749.447 2.553z" class="main-stroke"/></g></g><style>.main-stroke{stroke:#353535}</style></svg>