<svg xmlns="http://www.w3.org/2000/svg" style="isolation:isolate" width="400" height="400"><defs><clipPath id="a"><path d="M0 0h400v400H0z"/></clipPath></defs><g clip-path="url(#a)"><circle vector-effect="non-scaling-stroke" cx="202.402" cy="197.598" r="57.598" fill="#E8E8E8" stroke-width="6" stroke="#3FADB4" stroke-linejoin="round" stroke-miterlimit="1.414"/><text transform="translate(157.402 202.152)" font-family="Titillium Web" font-weight="700" font-size="24" letter-spacing="1.5">Coupler</text><circle vector-effect="non-scaling-stroke" cx="364.209" cy="189.658" r="31.034" fill="#FFBC00"/><path d="M342.35 167.685c12.119-12.119 31.713-12.119 43.832 0s12.119 31.714 0 43.833" fill="#FA0"/><path d="M341.783 204.156c0-.227-.226-.567-.339-.567h-9.061c-.114 0-.34.34-.34.567 0 .226.226.566.34.566h8.947c.227 0 .453-.34.453-.566z" fill="#0C9686"/><g fill="#17CCAE"><path d="M341.783 214.349c0-.226-.226-.566-.339-.566h-9.061c-.114 0-.34.34-.34.566 0 .227.226.567.34.567h8.947c.227 0 .453-.34.453-.567zM346.654 224.996c-2.832.113-5.324-2.152-5.324-5.097-.113-2.378 1.812-4.304 4.191-4.417a3.607 3.607 0 0 1 3.624 3.398c0 1.585-1.246 2.945-2.831 2.945-1.359 0-2.492-1.02-2.492-2.379 0-.226.227-.453.453-.453.227 0 .453.227.453.453 0 .793.68 1.473 1.473 1.359 1.019 0 1.925-.906 1.925-2.038 0-1.36-1.246-2.492-2.605-2.492-1.812 0-3.285 1.585-3.171 3.398.113 2.378 2.038 4.19 4.417 4.077 2.945-.113 5.323-2.605 5.323-5.55-.113-3.851-2.945-7.022-6.796-6.909-.226 0-.792 0-.792-.226 0-.227.566-.906.792-.906 4.304-.114 7.589 3.737 7.816 8.041-.114 3.738-2.945 6.683-6.456 6.796z"/><path d="M345.634 211.065a.487.487 0 0 1-.453.453h-11.553a.488.488 0 0 1-.453-.453v-.114c0-.339.227-.566.453-.566h11.44c.226 0 .453.227.453.453v.227h.113z"/></g><g fill="#0C9686"><path d="M346.654 193.622c-2.832-.113-5.324 2.152-5.324 5.097-.113 2.379 1.812 4.304 4.191 4.417a3.607 3.607 0 0 0 3.624-3.397c0-1.586-1.246-2.945-2.831-2.945-1.359 0-2.492 1.019-2.492 2.378 0 .227.227.453.453.453a.486.486 0 0 0 .453-.453c0-.793.68-1.472 1.473-1.359 1.019 0 1.925.906 1.925 2.039 0 1.359-1.246 2.492-2.605 2.492-1.812 0-3.285-1.586-3.171-3.398.113-2.379 2.038-4.191 4.417-4.078 2.945.114 5.323 2.605 5.323 5.55-.113 3.851-3.058 6.909-6.909 6.796-.226 0-.679.113-.679.34 0 .226.453.792.679.792 4.304.114 7.702-3.624 7.929-7.928-.114-3.738-2.945-6.682-6.456-6.796z"/><path d="M345.521 207.554c0-.227-.227-.567-.453-.567h-11.553c-.226 0-.453.34-.453.567 0 .226.227.566.453.566h11.553c.226 0 .453-.34.453-.566z"/><circle vector-effect="non-scaling-stroke" cx="339.292" cy="201.324" r=".453"/></g><circle vector-effect="non-scaling-stroke" cx="339.292" cy="217.181" r=".453" fill="#17CCAE"/><g fill="#0C9686"><circle vector-effect="non-scaling-stroke" cx="349.938" cy="209.253" r=".453"/><path d="M360.245 204.156c0-.227-.226-.567-.34-.567h-8.947c-.227 0-.34.34-.34.567 0 .226.226.566.34.566h8.947c.114 0 .34-.34.34-.566z"/></g><g fill="#17CCAE"><path d="M360.358 214.123c0-.227-.226-.34-.339-.34h-9.401c-.227 0-.34.227-.34.34v.34c0 .226.227.339.34.339h9.401c.226 0 .339-.226.339-.339v-.34zM365.115 224.996c-2.831.113-5.323-2.152-5.323-5.097-.113-2.378 1.812-4.304 4.191-4.417 1.925 0 3.624 1.472 3.624 3.398 0 1.585-1.246 2.945-2.831 2.945-1.36 0-2.492-1.02-2.492-2.379 0-.226.226-.453.453-.453.226 0 .453.227.453.453 0 .793.679 1.473 1.472 1.359 1.02 0 1.926-.906 1.926-2.038 0-1.36-1.246-2.492-2.605-2.492-1.812 0-3.285 1.585-3.172 3.398.114 2.378 2.039 4.19 4.418 4.077 2.944-.113 5.323-2.605 5.323-5.55-.113-3.851-3.285-7.022-7.136-6.909-.226 0-.453 0-.453-.226 0-.227.227-.906.453-.906 4.304-.114 7.929 3.737 8.155 8.041-.113 3.738-2.945 6.683-6.456 6.796z"/><path d="M363.756 211.065a.487.487 0 0 1-.453.453H351.75a.488.488 0 0 1-.453-.453v-.114c0-.226.227-.453.453-.453h11.44c.226 0 .453.227.453.453v.114h.113z"/></g><g fill="#0C9686"><path d="M365.115 193.622c-2.831-.113-5.323 2.152-5.323 5.097-.113 2.379 1.812 4.304 4.191 4.417 1.925 0 3.624-1.472 3.624-3.397 0-1.586-1.246-2.945-2.831-2.945-1.36 0-2.492 1.019-2.492 2.378 0 .227.226.453.453.453a.487.487 0 0 0 .453-.453c0-.793.679-1.472 1.472-1.359 1.02 0 1.926.906 1.926 2.039 0 1.359-1.246 2.492-2.605 2.492-1.812 0-3.285-1.586-3.172-3.398.114-2.379 2.039-4.191 4.418-4.078 2.944.114 5.323 2.605 5.323 5.55-.113 3.851-3.058 6.909-6.909 6.796-.227 0-.68.113-.68.34 0 .226.453.792.68.792 4.304.114 7.702-3.624 7.928-7.928-.113-3.738-2.945-6.682-6.456-6.796z"/><path d="M363.983 207.554c0-.227-.227-.567-.453-.567h-11.553c-.227 0-.453.34-.453.567 0 .226.226.566.453.566h11.553c.226 0 .453-.34.453-.566z"/><circle vector-effect="non-scaling-stroke" cx="357.753" cy="201.324" r=".453"/></g><circle vector-effect="non-scaling-stroke" cx="357.753" cy="217.181" r=".453" fill="#17CCAE"/><g fill="#0C9686"><circle vector-effect="non-scaling-stroke" cx="368.4" cy="209.253" r=".453"/><path d="M378.707 204.156c0-.227-.227-.567-.34-.567h-8.948c-.226 0-.34.34-.34.567 0 .226.227.566.34.566h8.948c.113 0 .34-.34.34-.566z"/></g><g fill="#17CCAE"><path d="M378.707 214.349c0-.226-.227-.566-.34-.566h-8.948c-.226 0-.34.34-.34.566 0 .227.227.567.34.567h8.948c.113 0 .34-.34.34-.567zM383.577 224.996c-2.832.113-5.323-2.152-5.323-5.097-.114-2.378 1.812-4.304 4.19-4.417 1.926 0 3.625 1.472 3.625 3.398 0 1.585-1.246 2.945-2.832 2.945-1.359 0-2.492-1.02-2.492-2.379 0-.226.227-.453.454-.453.226 0 .453.227.453.453 0 .793.679 1.473 1.472 1.359 1.019 0 1.925-.906 1.925-2.038 0-1.36-1.245-2.492-2.605-2.492-1.812 0-3.284 1.585-3.171 3.398.113 2.378 2.039 4.19 4.417 4.077 2.945-.113 5.324-2.605 5.324-5.55-.114-3.851-3.625-7.022-7.476-6.909-.226 0-.453-.113-.453-.34 0-.226.227-.792.453-.792 4.304-.114 8.268 3.737 8.382 8.041 0 3.738-2.832 6.683-6.343 6.796z"/><path d="M381.878 211.065a.487.487 0 0 1-.453.453h-11.553a.488.488 0 0 1-.453-.453v-.114c0-.226.227-.453.453-.453h11.44c.226 0 .453.227.453.453v.114h.113z"/></g><g fill="#0C9686"><path d="M383.577 193.622c-2.832-.113-5.323 2.152-5.323 5.097-.114 2.379 1.812 4.304 4.19 4.417 1.926 0 3.625-1.472 3.625-3.397 0-1.586-1.246-2.945-2.832-2.945-1.359 0-2.492 1.019-2.492 2.378 0 .227.227.453.454.453a.487.487 0 0 0 .453-.453c0-.793.679-1.472 1.472-1.359 1.019 0 1.925.906 1.925 2.039 0 1.359-1.245 2.492-2.605 2.492-1.812 0-3.284-1.586-3.171-3.398.113-2.379 2.039-4.191 4.417-4.078 2.945.114 5.324 2.605 5.324 5.55-.114 3.851-3.058 6.909-6.909 6.796-.227 0-.68.113-.68.34 0 .226.453.792.68.792 4.304.114 7.701-3.624 7.928-7.928-.113-3.738-2.945-6.682-6.456-6.796z"/><path d="M382.444 207.554c0-.227-.226-.567-.453-.567h-11.552c-.227 0-.453.34-.453.567 0 .226.226.566.453.566h11.552c.227 0 .453-.34.453-.566z"/><circle vector-effect="non-scaling-stroke" cx="376.102" cy="201.324" r=".453"/></g><circle vector-effect="non-scaling-stroke" cx="376.102" cy="217.181" r=".453" fill="#17CCAE"/><circle vector-effect="non-scaling-stroke" cx="386.862" cy="209.253" r=".453" fill="#0C9686"/><path d="M400 173.235c0-10.08-8.155-18.235-18.348-18.235-7.136 0-13.252 4.077-16.31 10.08-.68-.113-1.359-.226-2.039-.226a8.604 8.604 0 0 0-8.608 8.608c0 .226-.226.34-.226.566-6.343.68-9.967 6.116-9.967 12.799v.906c0 7.135 6.229 12.459 13.365 12.459h29.221c7.022 0 12.912-5.324 12.912-12.459v-4.078-10.42z" fill="#DCF9F6"/><path d="M400 175.727c0-10.08-8.155-18.235-18.348-18.235-7.136 0-13.252 4.077-16.31 10.08-.68-.113-1.359-.226-2.039-.226a8.604 8.604 0 0 0-8.608 8.608c0 .226-.226.339-.226.566-6.343.679-9.967 3.737-9.967 10.42v.793c0 7.135 6.229 12.459 13.365 12.459h29.221c7.022 0 12.912-5.324 12.912-12.459v-4.078-7.928z" fill="#B3DDD7"/><path d="M358.093 200.192h28.995c7.022 0 12.912-5.324 12.912-12.459v-4.078-8.268" fill="#A6D1CC"/><g fill="#DCF9F6"><path d="M373.723 175.954c-.566-.114-1.132-.227-1.699-.227a6.09 6.09 0 0 0-6.116 6.116c0 .566.113 1.133.227 1.699.566-3.964 3.624-7.135 7.588-7.588z"/><path d="M384.37 170.29c-.68-.339-1.473-.679-2.265-.792-4.531-.793-8.948 2.152-9.741 6.682a8.39 8.39 0 0 0 0 2.379c1.586-5.097 6.569-8.608 12.006-8.269z"/></g><g fill="#B1DDD9"><path d="M351.75 185.921c0 .339-.226.566-.566.566-.34 0-.566-.227-.566-.566 0-.34.226-.567.566-.567.34-.113.566.227.566.567z"/><circle vector-effect="non-scaling-stroke" cx="352.77" cy="181.277" r=".793"/><circle vector-effect="non-scaling-stroke" cx="363.303" cy="172.556" r=".34"/></g><g fill="#DCF9F6"><path d="M372.704 167.912c0 .453-.453.906-.906.906s-.906-.453-.906-.906.453-.906.906-.906.906.34.906.906zM379.386 160.437a.487.487 0 0 1-.453.453.488.488 0 0 1-.453-.453c0-.227.227-.453.453-.453.227 0 .453.113.453.453zM384.483 161.796c0 .793-.566 1.359-1.359 1.359s-1.359-.566-1.359-1.359.566-1.359 1.359-1.359c.68 0 1.359.566 1.359 1.359z"/></g><g><circle vector-effect="non-scaling-stroke" cx="202.402" cy="35" r="35" fill="#285680"/><path d="M202.402 0c-4.864 0-9.493.993-13.702 2.786-.192 1.145-1.149 3.101-1.12 3.725.135.027 8.899-8.931 7.811-2.884-.701 3.892-7.864 3.869-7.556 7.788 7.526 2.951 10.151-5.603 16.544-5.568 2.132.012 7.594-3.36 8.635-2.673 4.22 2.78-.964 12.633-4.193 9.354-3.104-3.105-7.533 1.087-7.334 5.928 1.614.072 2.303-4.582 3.754-3.029 1.598 1.71 1.021 5.153-1.19 5.944-2.226.795-10.955-5.902-8.811-.826 2.359 5.634-7.065 9.987 2.448 7.716 4.485-1.076 2.994 2.337 5.11 3.966 2.52 1.934 1.405-2.673 3.242-1.971 2.673 1.034-.46 3.699 3.726 1.764 4.911-2.24 3.066 1.253 4.57 3.536 2.819 4.263 9.748 8.355 13.379 2.721.856-1.329.307-11.836 5.697-4.788 3.423 4.478 2.248-5.29 2.712-7.856C232.028 10.854 218.486 0 202.402 0z" fill="#24AE5F"/><path d="M207.132 50.789l-6.455-4.838-4.326.171-4.489-1.413-3.513-2.422-7.969 1.842-3.287 1.589-3.657 4.927 1.294 5.774c.37.477.752.944 1.146 1.401l6.768 3.16 4.568.616 2.718 5.579.082.561A34.907 34.907 0 0 0 202.402 70c3.01 0 5.931-.38 8.719-1.096l.918-5.484 4.175-3.388 1.734-5.408-8.716-.036-2.1-3.799z" fill="#FAC176"/><path d="M167.855 40.608c.166-.014.188-.029.202-.043 1.566-1.564 2.869-1.826 4.174-4.173 1.304-2.348-.261-2.348 0-6.261.26-3.912-.261-2.086 0-6.26.094-1.501-.064-2.327-1.889-2.917A34.888 34.888 0 0 0 167.402 35c0 1.909.158 3.781.453 5.608z" fill="#88C057"/><path d="M203.609 63.966c-1.307-.101-6.135-1.609-7.242-3.621-1.106-2.012-3.52-5.431-3.62-4.828-.069.411-10.996-3.31-18.503-5.959l-.808 1.087 1.294 5.774c.37.477.752.944 1.146 1.401l6.768 3.16 4.568.616 2.718 5.579.082.561A34.907 34.907 0 0 0 202.402 70c3.01 0 5.931-.38 8.719-1.096l.696-4.158a32.348 32.348 0 0 1-2.174-.78c-3.319-1.308-4.727.1-6.034 0z" fill="#FAC176"/><path d="M216.214 60.032l1.734-5.408-8.716-.036-2.101-3.799-6.455-4.838-4.327.171-4.488-1.413-3.513-2.422-7.969 1.842-3.286 1.589-2.849 3.838c7.507 2.651 18.434 6.372 18.503 5.961.1-.603 2.514 2.816 3.62 4.828 1.107 2.012 5.935 3.52 7.242 3.621 1.307.1 2.715-1.308 6.034 0 .851.335 1.56.588 2.174.78l.222-1.326 4.175-3.388zM215.587 2.598c-.234 4.418-.406 7.61-.406 7.61l-6.745 6.744s6.322 9.061 6.745 10.115c.421 1.054 5.689 2.319 6.744 1.686 1.053-.632 5.058-4.004 6.744-1.686 1.173 1.614 1.022 3.022 1.744 4.013.497.007 1.119.342 1.893 1.122a68.46 68.46 0 0 0 3.458.92c.37-2.16.096-6.014.361-7.489-2.909-10.488-10.584-18.976-20.538-23.035z" fill="#88C057"/><path d="M219.697 4.593c-.22 4.169-.398 7.476-.398 7.476l-4.828 4.828s4.526 6.487 4.828 7.241c.301.754 4.073 1.659 4.827 1.207.754-.453 3.621-2.867 4.828-1.207 1.207 1.659.452 3.017 2.413 3.621 1.658.51 3.943 1.016 4.617 1.161.01-1.342.013-2.584.14-3.287-2.492-8.994-8.494-16.515-16.427-21.04z" fill="#FAC176"/></g><g><path d="M35 155c19.33 0 35 15.67 35 35s-15.67 35-35 35-35-15.67-35-35 15.67-35 35-35z" fill="#B1E3FB"/><path d="M21.258 157.802a9.253 9.253 0 0 1-8.056 13.806 9.21 9.21 0 0 1-6.3-2.478 35.115 35.115 0 0 1 14.356-11.328z" fill="#DFF5F9"/><path d="M19.666 158.53a7.532 7.532 0 0 1-11.755 9.307 35.144 35.144 0 0 1 11.755-9.307z" fill="#E8F8FB"/><path d="M63.979 175.122c.364 0 .707.059 1.01.163.328-.219.778-.354 1.274-.354.118 0 .233.008.345.022a34.802 34.802 0 0 1 1.52 3.73c-.263.198-.644.323-1.068.323-.399 0-.761-.11-1.021-.29-.261.18-.622.29-1.022.29a1.86 1.86 0 0 1-.982-.263c-.263.195-.641.317-1.062.317-.393 0-.75-.106-1.009-.281a2.463 2.463 0 0 1-.369.028c-.946 0-1.712-.522-1.712-1.165 0-.644.766-1.165 1.712-1.165.051 0 .103.002.153.005.122-.765 1.074-1.36 2.231-1.36z" fill="#FFF"/><path d="M18.009 159.396a5.718 5.718 0 0 1-8.954 7.113 35.164 35.164 0 0 1 8.954-7.113z" fill="#FCFEFE"/><path d="M37.567 167.697c.42 0 .816.069 1.167.189.379-.253.899-.408 1.472-.408.994 0 1.826.467 2.049 1.095.496.102.894.356 1.076.684.06-.005.121-.007.182-.007.917 0 1.661.506 1.661 1.13 0 .624-.744 1.129-1.661 1.129-.287 0-.556-.049-.79-.134-.202.469-.839.812-1.595.812-.463 0-.88-.129-1.181-.336-.302.207-.719.336-1.181.336-.438 0-.838-.116-1.135-.305-.303.226-.741.367-1.226.367-.455 0-.867-.123-1.166-.325a2.829 2.829 0 0 1-.426.031c-1.094 0-1.98-.601-1.98-1.345s.886-1.346 1.98-1.346c.059 0 .119.001.176.005.141-.883 1.242-1.572 2.578-1.572z" fill="#FFF"/><path d="M36.016 160.65s.793-.17 1.455-.043c.664.127 1.356.678 2.105.721.748.042.593-.241.593-.241s-.48.071-.608-.339c-.127-.409.396-.735 1.201-1.299.805-.565.96-1.13.805-1.483 0 0-.142.226-.805.58-.664.353-1.144 1.003-1.666 1.467-.523.467-.552.495-1.045.396-.495-.099-1.554-.254-2.035.241zM26.153 167.474s.792-.169 1.454-.042c.665.127 1.357.678 2.106.72.748.042.593-.24.593-.24s-.48.07-.608-.339c-.127-.409.396-.735 1.2-1.299.806-.565.961-1.13.806-1.483 0 0-.142.226-.806.579-.663.353-1.143 1.003-1.665 1.468-.523.467-.552.494-1.046.396-.494-.099-1.553-.254-2.034.24zM40.084 175.998s.792-.169 1.455-.043c.664.127 1.356.679 2.105.721.748.042.592-.241.592-.241s-.48.072-.608-.338c-.126-.41.397-.735 1.201-1.299.806-.565.961-1.13.806-1.484 0 0-.142.227-.806.58s-1.144 1.003-1.665 1.468c-.523.467-.552.495-1.046.396-.494-.1-1.554-.254-2.034.24z"/><path d="M17.558 176.256l-8.515 14.748h51.914l-9.047-14.595-9.38 10.235-18.077-.17-6.895-10.218z" fill="#EFEFEF"/><path d="M21.893 191.004l5.565-9.765 1.337 2.628 6.535-11.379 6.158 12.106 3.707-6.457 4.229 8.315a17.254 17.254 0 0 1-4.023 4.552H21.893z" fill="#FFF"/><path d="M35.33 172.488l7.2 14.156 2.665-8.507 6.613 12.867H35.154l1.531-1.375-3.665-1.869 4.62-2.555-2.31-1.279v-11.438z" fill="#CCC"/><path d="M17.558 176.256l2.834-5.137 5.921 12.115-4.42 7.77-12.747-.178 8.412-14.57z" fill="#FFF"/><g fill="#CCC"><path d="M20.392 171.119l5.921 12.115-4.42 7.77c-1.005-1-1.189-3.413-1.923-4.635l1.476-1.38-2.85-1.512 3.592-2.068-1.796-1.035v-9.255zM51.91 176.409l-2.959-5.246-3.58 7.322 4.053 7.967 2.384 4.552h9.149l-9.047-14.595z"/></g><g fill="#FFF"><path d="M48.951 171.163l-3.58 7.322 3.16 6.211 1.07-1.696-1.288-2.116 1.137-1.198-1.332-.943.833-7.58zM12.507 174.636c.327 0 .635.053.909.146.295-.196.7-.318 1.147-.318.772 0 1.421.364 1.594.854.387.078.698.277.839.532a1.792 1.792 0 0 1 .735.093l-.173.313-.76 1.317a1.639 1.639 0 0 1-.276-.074c-.157.366-.654.632-1.243.632-.359 0-.684-.099-.919-.26-.235.161-.56.26-.919.26-.342 0-.653-.09-.885-.237-.236.176-.576.287-.954.287-.355 0-.675-.097-.909-.254a2.236 2.236 0 0 1-.332.024c-.851 0-1.541-.468-1.541-1.048 0-.578.69-1.047 1.541-1.047.047 0 .093.001.138.004.11-.689.967-1.224 2.008-1.224z"/></g><path d="M.01 190.826h69.979C69.551 209.775 54.054 225 35 225 15.946 225 .449 209.775.01 190.826z" fill="#7FDDE9"/><path d="M1.217 199.17h67.566C64.754 214.052 51.157 225 35 225S5.246 214.052 1.217 199.17z" fill="#4CCFDF"/><path d="M4.579 207.318H65.42C59.395 217.879 48.029 225 35 225c-13.03 0-24.395-7.121-30.421-17.682z" fill="#26C5D9"/><path d="M10.629 215.117h48.742C53.069 221.233 44.475 225 35 225c-9.476 0-18.069-3.767-24.371-9.883z" fill="#31BBCB"/><path d="M17.558 205.574l-8.515-14.748h51.914l-9.047 14.596-9.38-10.236-18.077.17-6.895 10.218z" fill="#C2E2E6"/><path d="M21.893 190.826l5.565 9.765 1.337-2.628 6.535 11.38 6.158-12.106 3.707 6.456 4.229-8.315a17.286 17.286 0 0 0-4.023-4.552H21.893z" fill="#CFEFF3"/><path d="M35.33 209.343l7.2-14.157 2.665 8.507 6.613-12.867H35.154l1.531 1.376-3.665 1.869 4.62 2.555-2.31 1.278v11.439z" fill="#A6C6CA"/><path d="M17.558 205.574l2.834 5.138 5.921-12.115-4.42-7.771-12.747.178 8.412 14.57z" fill="#CFEFF3"/><g fill="#A6C6CA"><path d="M20.392 210.712l5.921-12.115-4.42-7.771c-1.005 1-1.189 3.413-1.923 4.636l1.476 1.38-2.85 1.512 3.592 2.068-1.796 1.034v9.256zM51.91 205.422l-2.959 5.246-3.58-7.322 4.053-7.968 2.384-4.552h9.149l-9.047 14.596z"/></g><path d="M48.951 210.668l-3.58-7.322 3.16-6.211 1.07 1.696-1.288 2.116 1.137 1.198-1.332.943.833 7.58z" fill="#CFEFF3"/><path d="M9.146 190.826h51.811v.267H9.146v-.267z" fill="#B3B3B3"/></g><g><circle vector-effect="non-scaling-stroke" cx="202.402" cy="365" r="35" fill="#67B9CC"/><g fill="#4482C3"><path d="M182.613 368.621a10.547 10.547 0 0 0-5.974 2.161 2.694 2.694 0 0 0 1.209 4.51 2.695 2.695 0 0 0 2.603-.698c1.221-1.22-.253-4.321 2.162-5.973zM195.161 345.957a10.545 10.545 0 0 0-5.473-3.227 2.695 2.695 0 1 0-.509 5.367c1.718.163 3.169-2.948 5.982-2.14z"/></g><path d="M179.471 350.517a9.67 9.67 0 0 1-11.707 9.438 34.88 34.88 0 0 1 7.676-17.283 9.643 9.643 0 0 1 4.031 7.845z" fill="#F0C419"/><path d="M237.402 365a34.95 34.95 0 0 1-17.512 30.317 28.932 28.932 0 0 0-3.029-48.155 25.354 25.354 0 0 1 20.529 17.271v.012c.012.181.012.374.012.555z" fill="#4482C3"/><path d="M231.367 372.241a28.929 28.929 0 0 1-11.477 23.076s-.012.024-.024.024a35.053 35.053 0 0 1-37.124-1.375h19.66c11.998 0 21.724-9.727 21.724-21.725 0-11.998-9.726-21.724-21.724-21.724-.806.002-1.612.046-2.414.133a25.378 25.378 0 0 1 16.869-3.497c.002.003.004.006.004.009a28.946 28.946 0 0 1 14.506 25.079z" fill="#285680"/><path d="M224.126 372.241c-.018 11.991-9.734 21.706-21.724 21.724h-19.66a34.907 34.907 0 0 1-7.773-7.241h27.433c7.902.003 14.347-6.329 14.485-14.23.138-7.901-6.082-14.454-13.98-14.727-7.897-.273-14.555 5.835-14.964 13.726a25.253 25.253 0 0 1 12.045-20.843 22.633 22.633 0 0 1 2.414-.133c11.99.018 21.706 9.734 21.724 21.724zM187.943 371.493c-.024.241-.024.495-.024.748" fill="#4482C3"/><g><path d="M187.943 371.493c-.024.241-.024.495-.024.748" fill="#4482C3"/></g></g><path d="M212.362 106.257l-6.64-.053.231-29.116-6.64-.053-.231 29.116-6.64-.052L202.213 130l10.149-23.743zM106.15 180v6.667H77v6.666h29.15V200l11.925-5L130 190l-23.85-10zM293.711 207.597l.091-6.666 29.147.399.092-6.666-29.148-.399.092-6.666L270 197.271l23.711 10.326zM192.363 293.972l6.666-.083.36 29.148 6.666-.082-.36-29.148 6.667-.082L202.068 270l-9.705 23.972z" fill="#3FADB4"/></g></svg>