<svg xmlns="http://www.w3.org/2000/svg" style="isolation:isolate" width="87" height="87"><defs><clipPath id="a"><path d="M0 0h87v87H0z"/></clipPath></defs><g clip-path="url(#a)"><circle vector-effect="non-scaling-stroke" cx="43.5" cy="43.5" r="42.5" fill="#FAFAFA" stroke-width="2" stroke="#3FADB4" stroke-linejoin="round" stroke-miterlimit="1.414"/><path d="M28.419 20.484h2.946v46.032h-2.946V20.484z" fill="#CFD8DC"/><path d="M31.365 63.447h-2.946V52.096c0-3.836 2.946-7.062 6.778-7.062h21.944a3.73 3.73 0 0 0 2.717-1.161 4.054 4.054 0 0 0 1.115-2.831v-9.817h2.946v9.817c0 3.836-2.946 7.061-6.778 7.061H35.197a3.724 3.724 0 0 0-2.718 1.161 4.043 4.043 0 0 0-1.114 2.832v11.351z" fill="#CFD8DC"/><path d="M24 18.95c0-3.376 2.651-6.138 5.892-6.138 3.24 0 5.891 2.762 5.891 6.138s-2.651 6.138-5.891 6.138c-3.241 0-5.892-2.762-5.892-6.138zm38.296 15.344c3.24 0 5.892-2.762 5.892-6.138 0-3.375-2.652-6.137-5.892-6.137-3.241 0-5.892 2.762-5.892 6.137 0 3.376 2.651 6.138 5.892 6.138z" fill="#00BCD4"/><path d="M35.783 68.05c0 3.391-2.636 6.138-5.891 6.138S24 71.441 24 68.05s2.637-6.137 5.892-6.137c3.255 0 5.891 2.746 5.891 6.137z" fill="#0097A7"/><g><text transform="translate(4 50.926)" font-family="Titillium Web" font-weight="400" font-size="22" letter-spacing="1" fill="#353535">Coupler</text></g></g></svg>