<svg xmlns="http://www.w3.org/2000/svg" style="isolation:isolate" width="70.98" height="70.98"><defs><clipPath id="a"><path d="M0 0h70.98v70.98H0z"/></clipPath></defs><g clip-path="url(#a)"><circle vector-effect="non-scaling-stroke" cx="35.49" cy="35.49" r="35" fill="#FAFAFA" stroke-width="1.5" stroke="#3FADB4" stroke-linejoin="round" stroke-miterlimit="1.414"/><path d="M21.292 17.332h2.616v37.316h-2.616V17.332z" fill="#CFD8DC"/><path d="M23.908 52.161h-2.616v-9.203c0-3.109 2.616-5.724 6.02-5.724h19.489a3.47 3.47 0 0 0 2.414-.942c.64-.608.996-1.434.99-2.294v-7.959h2.617v7.959c0 3.109-2.617 5.724-6.021 5.724H27.312a3.466 3.466 0 0 0-2.414.941 3.135 3.135 0 0 0-.99 2.295v9.203z" fill="#CFD8DC"/><path d="M17.368 16.088c0-2.736 2.354-4.975 5.232-4.975s5.233 2.239 5.233 4.975c0 2.737-2.355 4.976-5.233 4.976-2.878 0-5.232-2.239-5.232-4.976zM51.38 28.527c2.878 0 5.233-2.239 5.233-4.976 0-2.736-2.355-4.975-5.233-4.975-2.878 0-5.233 2.239-5.233 4.975 0 2.737 2.355 4.976 5.233 4.976z" fill="#00BCD4"/><path d="M27.833 55.892c0 2.749-2.342 4.976-5.233 4.976-2.891 0-5.232-2.227-5.232-4.976s2.341-4.975 5.232-4.975 5.233 2.226 5.233 4.975z" fill="#0097A7"/><g><text transform="translate(3.49 43.017)" font-family="Titillium Web" font-weight="400" font-size="19" fill="#353535">Coupler</text></g></g></svg>