<svg xmlns="http://www.w3.org/2000/svg" style="isolation:isolate" width="102" height="102"><defs><clipPath id="a"><path d="M0 0h102v102H0z"/></clipPath></defs><g clip-path="url(#a)"><circle vector-effect="non-scaling-stroke" cx="51" cy="51" r="50" fill="#FAFAFA" stroke-width="2" stroke="#3FADB4" stroke-linejoin="round" stroke-miterlimit="1.414"/><path d="M32.45 24.469h3.758v53.062H32.45V24.469z" fill="#CFD8DC"/><path d="M36.208 73.994H32.45V60.909c0-4.422 3.758-8.14 8.648-8.14h27.996a5.018 5.018 0 0 0 3.467-1.339c.919-.865 1.431-2.04 1.422-3.264V36.85h3.759v11.316c0 4.422-3.759 8.14-8.648 8.14H41.098a5.013 5.013 0 0 0-3.468 1.338c-.919.865-1.431 2.041-1.422 3.265v13.085z" fill="#CFD8DC"/><path d="M26.813 22.7c0-3.891 3.382-7.075 7.516-7.075s7.517 3.184 7.517 7.075-3.383 7.075-7.517 7.075-7.516-3.184-7.516-7.075zm48.858 17.688c4.134 0 7.517-3.184 7.517-7.075 0-3.892-3.383-7.075-7.517-7.075s-7.517 3.183-7.517 7.075c0 3.891 3.383 7.075 7.517 7.075z" fill="#00BCD4"/><path d="M41.846 79.3c0 3.909-3.364 7.075-7.517 7.075-4.153 0-7.516-3.166-7.516-7.075 0-3.909 3.363-7.075 7.516-7.075 4.153 0 7.517 3.166 7.517 7.075z" fill="#0097A7"/><g><text transform="translate(9 56.192)" font-family="Titillium Web" font-weight="400" font-size="24" letter-spacing="1" fill="#353535">Coupler</text></g></g></svg>