<svg xmlns="http://www.w3.org/2000/svg" width="100" height="100" viewBox="0 0 70 70"><defs fill="none"><mask id="maskSiwp1hyda68yh"><rect x="35" width="35" height="70" rx="0" ry="0" fill="#fff"/></mask></defs><g class="content"><g class="coupler__base"><g fill="none" fill-rule="evenodd" class="coupler__main-fill"><path d="M17.706 17.706v11.53h4.941v11.529h-4.941v11.53h11.53v-4.942h11.529v4.941h11.53V40.765h-4.942v-11.53h4.941V17.707h-11.53v4.941H29.236v-4.94H17.706zm4.414 4.118h2.702c.162 0 .296.134.296.296v2.702a.298.298 0 0 1-.296.296H22.12a.298.298 0 0 1-.296-.296V22.12c0-.162.134-.296.296-.296zm23.058 0h2.703c.161 0 .296.134.296.296v2.702a.298.298 0 0 1-.296.296h-2.703a.298.298 0 0 1-.296-.296V22.12c0-.162.135-.296.296-.296zm-15.943 2.47h11.53v4.942h4.941v11.529h-4.941v4.941h-11.53v-4.941h-4.94v-11.53h4.94v-4.94zM22.12 44.883h2.702c.162 0 .296.134.296.296v2.702a.298.298 0 0 1-.296.296H22.12a.298.298 0 0 1-.296-.296v-2.702c0-.162.134-.296.296-.296z" class="coupler__main-fill"/></g></g><g class="masked" mask="url('#maskSiwp1hyda68yh')"><g fill="none" fill-rule="evenodd" class="coupler__main-fill--darken"><path d="M17.706 17.706v11.53h4.941v11.529h-4.941v11.53h11.53v-4.942h11.529v4.941h11.53V40.765h-4.942v-11.53h4.941V17.707h-11.53v4.941H29.236v-4.94H17.706zm4.414 4.118h2.702c.162 0 .296.134.296.296v2.702a.298.298 0 0 1-.296.296H22.12a.298.298 0 0 1-.296-.296V22.12c0-.162.134-.296.296-.296zm23.058 0h2.703c.161 0 .296.134.296.296v2.702a.298.298 0 0 1-.296.296h-2.703a.298.298 0 0 1-.296-.296V22.12c0-.162.135-.296.296-.296zm-15.943 2.47h11.53v4.942h4.941v11.529h-4.941v4.941h-11.53v-4.941h-4.94v-11.53h4.94v-4.94zM22.12 44.883h2.702c.162 0 .296.134.296.296v2.702a.298.298 0 0 1-.296.296H22.12a.298.298 0 0 1-.296-.296v-2.702c0-.162.134-.296.296-.296z" class="coupler__main-fill--darken"/></g></g></g><style>.coupler__main-fill{fill:#3fadb4}.coupler__main-fill--darken{fill:#2b777b}</style></svg>