<svg xmlns="http://www.w3.org/2000/svg" width="100" height="100" viewBox="0 0 70 70"><defs fill="none"><mask id="maskSivv4338x2rg"><rect x="35" width="35" height="70" rx="0" ry="0" fill="#fff"/></mask></defs><g class="content"><g class="base"><g fill="none" class="main-fill"><path d="M35 26.727c7.273 0 14.635-1.53 14.635-4.454 0-2.925-7.362-4.455-14.636-4.455-7.274 0-14.636 1.53-14.636 4.455 0 2.924 7.362 4.454 14.636 4.454z" class="main-fill"/><path d="M35 35.636c7.273 0 14.635-1.53 14.635-4.454V26.09a.636.636 0 1 0-1.272 0c0 1.297-5.206 3.182-13.364 3.182-8.157 0-13.364-1.885-13.364-3.182a.637.637 0 0 0-1.272 0v5.09c0 2.925 7.362 4.455 14.636 4.455z" class="main-fill"/><path d="M50.272 49.636h-8.273V49a.636.636 0 0 0-.636-.637h-5.728v-3.822c7.06-.087 14-1.61 14-4.45V35a.636.636 0 1 0-1.272 0c0 1.297-5.206 3.182-13.364 3.182-8.157 0-13.364-1.885-13.364-3.182a.637.637 0 0 0-1.272 0v5.09c0 2.84 6.94 4.364 14 4.45v3.823h-5.728A.636.636 0 0 0 28 49v.636h-8.273a.636.636 0 1 0 0 1.273H28v.636c0 .352.285.637.636.637h12.728a.636.636 0 0 0 .636-.637v-.636h8.273a.636.636 0 1 0 0-1.273z" class="main-fill"/></g></g><g class="masked" mask="url('#maskSivv4338x2rg')"><g fill="none" class="main-fill--darken"><path d="M35 26.727c7.273 0 14.635-1.53 14.635-4.454 0-2.925-7.362-4.455-14.636-4.455-7.274 0-14.636 1.53-14.636 4.455 0 2.924 7.362 4.454 14.636 4.454z" class="main-fill--darken"/><path d="M35 35.636c7.273 0 14.635-1.53 14.635-4.454V26.09a.636.636 0 1 0-1.272 0c0 1.297-5.206 3.182-13.364 3.182-8.157 0-13.364-1.885-13.364-3.182a.637.637 0 0 0-1.272 0v5.09c0 2.925 7.362 4.455 14.636 4.455z" class="main-fill--darken"/><path d="M50.272 49.636h-8.273V49a.636.636 0 0 0-.636-.637h-5.728v-3.822c7.06-.087 14-1.61 14-4.45V35a.636.636 0 1 0-1.272 0c0 1.297-5.206 3.182-13.364 3.182-8.157 0-13.364-1.885-13.364-3.182a.637.637 0 0 0-1.272 0v5.09c0 2.84 6.94 4.364 14 4.45v3.823h-5.728A.636.636 0 0 0 28 49v.636h-8.273a.636.636 0 1 0 0 1.273H28v.636c0 .352.285.637.636.637h12.728a.636.636 0 0 0 .636-.637v-.636h8.273a.636.636 0 1 0 0-1.273z" class="main-fill--darken"/></g></g></g><style>.main-fill{fill:#3fadb4}.main-fill--darken{fill:#2b777b}</style></svg>