<svg xmlns="http://www.w3.org/2000/svg" width="70" height="70" style="width:100%;height:100%"><g class="base"><g fill="none" fill-rule="evenodd" class="main-stroke"><path d="M51 43v-4h-2.285a7.826 7.826 0 0 0-.848-2.039l1.617-1.617-2.828-2.828-1.615 1.617c-.631-.371-2.041-.66-2.041-.848V31h-4v2.285c0 .188-1.408.477-2.041.848l-1.615-1.617-2.829 2.828 1.615 1.617A7.965 7.965 0 0 0 33.282 39H31v4h2.282c.188.73.477 1.41.85 2.043l-1.617 1.617 2.829 2.828 1.617-1.617c.631.371 2.039.66 2.039.848V51h4v-2.281c0-.188 1.408-.477 2.041-.848l1.615 1.617 2.828-2.828-1.617-1.617c.371-.633.66-1.316.848-2.043H51zm-10 2a4 4 0 1 1 0-8 4 4 0 0 1 0 8zm-11.255-8.133c-.475 1.289-.746 3.934-.746 3.934a10.057 10.057 0 0 1-3.508-1.461l-1.562 1.562-2.828-2.828 1.562-1.562A9.969 9.969 0 0 1 21.2 33H19v-4h2.2a9.918 9.918 0 0 1 1.463-3.508l-1.562-1.562 2.828-2.828 1.563 1.562C26.541 21.969 27 21.461 29 21.203V19h4v2.203c2 .258 2.461.766 3.51 1.461l1.561-1.562 2.828 2.828-1.562 1.562A9.87 9.87 0 0 1 40.798 29s-2.641.273-3.934.746A5.996 5.996 0 0 0 30.999 25a6 6 0 0 0-1.254 11.867zM28.999 31a2 2 0 1 0 3.999.001A2 2 0 0 0 28.999 31z" class="main-stroke"/></g></g><style>.main-stroke{stroke:#353535}</style></svg>