<svg xmlns="http://www.w3.org/2000/svg" style="isolation:isolate" width="104.863" height="70"><defs><clipPath id="a"><path d="M0 0h104.863v70H0z"/></clipPath></defs><g clip-path="url(#a)"><circle vector-effect="non-scaling-stroke" cx="69.863" cy="35" r="35" fill="#87DCFF"/><path d="M73.939.244l-1.445 4.502a3.389 3.389 0 0 1-2.33 2.231l-3.624.994c-.292.08-.594.12-.896.12H60.22a1.13 1.13 0 0 0-1.119.98l-.622 4.666-3.465.181a1.13 1.13 0 0 0-1.069 1.083l-.12 3.01a1.13 1.13 0 0 0 1.222 1.171l2.308-.193a2.033 2.033 0 0 0 1.483-.84l2.134-2.978 4.566-.163c.976-.035 1.666.948 1.311 1.858-.795 2.043-.796 2.218-.796 2.398a1.128 1.128 0 0 0 2.241.192c.077-.26.422-1.162.874-2.308a.635.635 0 0 1 1.121-.119l.292.442a2.26 2.26 0 0 0 2.488.931l2.016-.56a1.826 1.826 0 0 0 1.221-1.116l.387-1.026a2.255 2.255 0 0 1 1.656-1.415l1.303-.269c.887-.183 1.827.353 1.981 1.245a1.577 1.577 0 0 1-1.372 1.842l-3.142.084a1.2 1.2 0 0 0-1.167 1.171l-.007.301a.629.629 0 0 0 .342.575l1.807.921a1.283 1.283 0 1 1-.583 2.425h-9.528c-.25 0-.497-.046-.729-.138l-7.995-3.15a1.657 1.657 0 0 0-1.732.325l-7.572 6.999a2.256 2.256 0 0 0-.66 2.198l1.539 6.254a2.258 2.258 0 0 0 2.072 1.715l8.531.459a3.387 3.387 0 0 1 3.191 3.072l.647 7.025c.048.526.187 1.033.415 1.509.719 1.499 2.395 4.908 3.327 6.086 1.199 1.518 4.155 1.578 5.151.671l6.936-5.676c.58-.528.958-1.24 1.071-2.016l.813-5.574 5.508-6.07a1.128 1.128 0 0 0-.387-1.792l-.099.066a2.988 2.988 0 0 1-1.662.507 2.968 2.968 0 0 1-2.519-1.394l-4.205-6.677a1.131 1.131 0 0 1 .354-1.558 1.133 1.133 0 0 1 1.558.354l4.205 6.678a.716.716 0 0 0 1.013.215l5.685-3.115a1.089 1.089 0 0 0 .328-1.633 1.091 1.091 0 0 0-.976-.404l-1.194.138a1.132 1.132 0 0 1-.883-.281l-3.575-3.198a1.13 1.13 0 0 1 1.506-1.682l3.198 2.86 1.943-.224a1.12 1.12 0 0 1 1.04.455l.374.512 1.894-.227a2.256 2.256 0 0 1 2.255 1.168l3.824 7.07c.277.513.742.898 1.298 1.076l1.375.483c.004-.222.017-.442.017-.666 0-17.95-13.516-32.736-30.924-34.756zm14.62 19.32a1.124 1.124 0 0 1-1.566-.303l-2.352-3.481a1.127 1.127 0 0 1 .303-1.567 1.127 1.127 0 0 1 1.567.303l2.352 3.481a1.127 1.127 0 0 1-.304 1.567z" fill="#BEE86E"/><path d="M81.342 58.522c-19.33 0-35-15.671-35-35a34.824 34.824 0 0 1 5.186-18.335C41.53 11.348 34.863 22.394 34.863 35c0 19.33 15.67 35 35 35 12.606 0 23.652-6.667 29.814-16.665a34.827 34.827 0 0 1-18.335 5.187z" fill="#00C3FF"/><g fill="#BEE86E"><path d="M85.104 53.488a1.128 1.128 0 0 1-.863-1.856l2.963-3.528a1.128 1.128 0 1 1 1.729 1.453l-2.963 3.529a1.13 1.13 0 0 1-.866.402zM60.234 1.352L59.23 4.345a1.129 1.129 0 1 0 2.141.719L62.834.707c-.881.179-1.745.401-2.6.645z"/></g><path d="M40.725 54.388l.977-8.875a2.256 2.256 0 0 0-.677-1.876L35 38.002a34.78 34.78 0 0 0 5.725 16.386z" fill="#AFD755"/><path d="M69.863 0a35.41 35.41 0 0 0-3.747.202l-.117 2.649a1.694 1.694 0 1 0 3.213 1.072L70.514.016C70.296.012 70.081 0 69.863 0z" fill="#BEE86E"/><path d="M15.75 45.093v-5H35v-5H15.75v-5L5.262 35.088 0 37.593l15.75 7.5z" fill="#3FADB4"/></g></svg>