<svg xmlns="http://www.w3.org/2000/svg" width="70" height="70"><defs fill="none"><mask id="maskSivv5e5t12wad"><rect x="35" width="35" height="70" rx="0" ry="0" fill="#fff"/></mask></defs><g class="content"><g class="base"><g fill="none" class="main-fill"><path d="M45.596 39.309c-.631-5.287-5.143-9.4-10.596-9.4-5.454 0-9.965 4.113-10.596 9.4a5.978 5.978 0 0 0-5.95 5.971 5.979 5.979 0 0 0 5.973 5.973h21.146a5.979 5.979 0 0 0 5.972-5.973 5.978 5.978 0 0 0-5.95-5.971zm-22.81-14.985a.635.635 0 0 0 .9 0 .636.636 0 0 0 0-.9l-1.8-1.8a.636.636 0 1 0-.899.9l1.8 1.8zm0 9.899l-1.799 1.8a.636.636 0 1 0 .9.9l1.8-1.8a.636.636 0 1 0-.9-.9zm11.25-9.713a.635.635 0 0 0 .45-.186l1.8-1.8a.636.636 0 1 0-.9-.9l-1.8 1.8a.636.636 0 0 0 .45 1.086zm-5.4-2.237a.637.637 0 0 0 .637-.636V19.09a.637.637 0 0 0-1.273 0v2.546c0 .351.285.636.636.636zM21 29.91a.637.637 0 0 0 0-1.273h-2.546a.637.637 0 0 0 0 1.273H21z" class="main-fill"/><path d="M24.924 33.946a.636.636 0 0 0 .93-.094 11.5 11.5 0 0 1 7.69-4.476.635.635 0 0 0 .542-.763 5.606 5.606 0 0 0-5.464-4.43 5.592 5.592 0 0 0-5.585 5.585c0 1.592.688 3.115 1.887 4.178z" class="main-fill"/></g></g><g class="masked" mask="url('#maskSivv5e5t12wad')"><g fill="none" class="main-fill--darken"><path d="M45.596 39.309c-.631-5.287-5.143-9.4-10.596-9.4-5.454 0-9.965 4.113-10.596 9.4a5.978 5.978 0 0 0-5.95 5.971 5.979 5.979 0 0 0 5.973 5.973h21.146a5.979 5.979 0 0 0 5.972-5.973 5.978 5.978 0 0 0-5.95-5.971zm-22.81-14.985a.635.635 0 0 0 .9 0 .636.636 0 0 0 0-.9l-1.8-1.8a.636.636 0 1 0-.899.9l1.8 1.8zm0 9.899l-1.799 1.8a.636.636 0 1 0 .9.9l1.8-1.8a.636.636 0 1 0-.9-.9zm11.25-9.713a.635.635 0 0 0 .45-.186l1.8-1.8a.636.636 0 1 0-.9-.9l-1.8 1.8a.636.636 0 0 0 .45 1.086zm-5.4-2.237a.637.637 0 0 0 .637-.636V19.09a.637.637 0 0 0-1.273 0v2.546c0 .351.285.636.636.636zM21 29.91a.637.637 0 0 0 0-1.273h-2.546a.637.637 0 0 0 0 1.273H21z" class="main-fill--darken"/><path d="M24.924 33.946a.636.636 0 0 0 .93-.094 11.5 11.5 0 0 1 7.69-4.476.635.635 0 0 0 .542-.763 5.606 5.606 0 0 0-5.464-4.43 5.592 5.592 0 0 0-5.585 5.585c0 1.592.688 3.115 1.887 4.178z" class="main-fill--darken"/></g></g></g><style>.main-fill{fill:#3fadb4}.main-fill--darken{fill:#2b777b}</style></svg>