<svg xmlns="http://www.w3.org/2000/svg" width="100" height="100" viewBox="0 0 70 70"><defs fill="none"><mask id="maskSivjjwi8n6q2m"><rect x="35" width="35" height="70" rx="0" ry="0" fill="#fff"/></mask></defs><g class="content"><g class="base"><g fill="none" fill-rule="evenodd" class="main-fill"><path d="M43.375 30c-.914-4-2.797-7.055-5.391-9.699C43.184 21.348 47.402 25 49.137 30h-5.762zM44 35c0 1.727-.234 4-.625 5h5.762c.554-1 .863-3.246.863-5 0-1.027-.113-2-.312-3h-5.926c.14 1 .238 1.98.238 3zm-1.227 7c-1.031 3-2.668 5.539-4.789 7.703 4.465-.902 8.2-3.703 10.27-7.703h-5.481zM28 35c0 1.734.258 4 .691 5h12.613c.438-1 .696-3.266.696-5 0-1.023-.109-2-.266-3H28.266c-.157 1-.266 1.977-.266 3zm13.305-5c-1.055-4-3.282-7.258-6.305-9.727C31.977 22.742 29.75 26 28.691 30h12.614zM29.359 42c1.207 3 3.148 5.695 5.641 7.727C37.488 47.695 39.43 45 40.637 42H29.359zm-2.734-12c.914-4 2.793-7.055 5.391-9.699C26.816 21.348 22.598 25 20.859 30h5.766zm-4.879 12c2.066 4 5.805 6.801 10.27 7.703C29.895 47.539 28.258 45 27.223 42h-5.477zM26 35c0-1.02.098-2 .238-3h-5.926c-.199 1-.312 1.973-.312 3 0 1.754.305 4 .859 5h5.766C26.23 39 26 36.727 26 35z" class="main-fill"/></g></g><g class="masked" mask="url('#maskSivjjwi8n6q2m')"><g fill="none" fill-rule="evenodd" class="main-fill--darken"><path d="M43.375 30c-.914-4-2.797-7.055-5.391-9.699C43.184 21.348 47.402 25 49.137 30h-5.762zM44 35c0 1.727-.234 4-.625 5h5.762c.554-1 .863-3.246.863-5 0-1.027-.113-2-.312-3h-5.926c.14 1 .238 1.98.238 3zm-1.227 7c-1.031 3-2.668 5.539-4.789 7.703 4.465-.902 8.2-3.703 10.27-7.703h-5.481zM28 35c0 1.734.258 4 .691 5h12.613c.438-1 .696-3.266.696-5 0-1.023-.109-2-.266-3H28.266c-.157 1-.266 1.977-.266 3zm13.305-5c-1.055-4-3.282-7.258-6.305-9.727C31.977 22.742 29.75 26 28.691 30h12.614zM29.359 42c1.207 3 3.148 5.695 5.641 7.727C37.488 47.695 39.43 45 40.637 42H29.359zm-2.734-12c.914-4 2.793-7.055 5.391-9.699C26.816 21.348 22.598 25 20.859 30h5.766zm-4.879 12c2.066 4 5.805 6.801 10.27 7.703C29.895 47.539 28.258 45 27.223 42h-5.477zM26 35c0-1.02.098-2 .238-3h-5.926c-.199 1-.312 1.973-.312 3 0 1.754.305 4 .859 5h5.766C26.23 39 26 36.727 26 35z" class="main-fill--darken"/></g></g></g><style>.main-fill{fill:#3fadb4}.main-fill--darken{fill:#2b777b}</style></svg>