<svg xmlns="http://www.w3.org/2000/svg" width="70" height="70" viewBox="0 0 512 512"><path d="M255.997 0C397.385 0 512 114.615 512 255.997 512 397.385 397.385 512 255.997 512 114.615 512 0 397.385 0 255.997 0 114.615 114.615 0 255.997 0z" fill="#b1e3fb"/><path d="M155.487 20.498c5.571 9.832 8.752 21.196 8.752 33.306 0 37.374-30.3 67.674-67.674 67.674-17.809 0-34.004-6.879-46.084-18.126 26.884-36.136 63.066-64.934 105.006-82.854z" fill="#dff5f9"/><path d="M143.841 25.822c5.559 8.599 8.781 18.848 8.781 29.842 0 30.429-24.665 55.095-55.095 55.095-15.579 0-29.643-6.469-39.663-16.864 23.299-28.446 52.607-51.779 85.977-68.073z" fill="#e8f8fb"/><path d="M467.964 147.175c2.659 0 5.165.434 7.384 1.192 2.401-1.597 5.694-2.583 9.321-2.583.863 0 1.702.053 2.518.158a254.425 254.425 0 0 1 11.123 27.283c-1.925 1.45-4.714 2.36-7.813 2.36-2.923 0-5.565-.804-7.472-2.119-1.908 1.315-4.549 2.119-7.472 2.119-2.776 0-5.306-.734-7.185-1.925-1.919 1.426-4.684 2.324-7.766 2.324-2.876 0-5.482-.781-7.378-2.054-.869.129-1.773.2-2.7.2-6.921 0-12.526-3.815-12.526-8.523s5.606-8.517 12.526-8.517c.376 0 .751.012 1.121.035.887-5.594 7.855-9.95 16.319-9.95z" fill="#fff"/><path d="M131.72 32.155a41.677 41.677 0 0 1 8.652 25.481c0 23.098-18.725 41.823-41.823 41.823-13.025 0-24.648-5.952-32.32-15.279a257.158 257.158 0 0 1 65.491-52.025z" fill="#fcfefe"/><path d="M274.775 92.873c3.076 0 5.97.499 8.535 1.379 2.776-1.849 6.58-2.988 10.771-2.988 7.267 0 13.354 3.416 14.986 8.012 3.628.745 6.539 2.606 7.871 5.001.434-.035.88-.047 1.327-.047 6.709 0 12.151 3.698 12.151 8.265 0 4.561-5.441 8.259-12.151 8.259-2.096 0-4.062-.358-5.776-.986-1.479 3.434-6.14 5.94-11.669 5.94-3.381 0-6.433-.939-8.635-2.454-2.207 1.514-5.259 2.454-8.64 2.454-3.205 0-6.128-.845-8.3-2.231-2.219 1.655-5.418 2.688-8.969 2.688-3.328 0-6.339-.904-8.529-2.377a20.778 20.778 0 0 1-3.117.229c-8.001 0-14.481-4.402-14.481-9.844 0-5.436 6.48-9.844 14.481-9.844.434 0 .869.012 1.291.041 1.027-6.46 9.08-11.497 18.854-11.497z" fill="#fff"/><path d="M263.434 41.324s5.794-1.239 10.642-.311c4.854.927 9.914 4.96 15.391 5.271 5.477.305 4.338-1.761 4.338-1.761s-3.51.522-4.443-2.477c-.927-2.994 2.894-5.377 8.781-9.503 5.893-4.132 7.026-8.265 5.893-10.848 0 0-1.039 1.655-5.893 4.238s-8.365 7.337-12.186 10.736c-3.821 3.416-4.033 3.616-7.643 2.894-3.616-.722-11.364-1.855-14.88 1.761zM191.293 91.241s5.794-1.239 10.636-.311c4.86.927 9.92 4.96 15.397 5.271 5.477.305 4.338-1.761 4.338-1.761s-3.51.517-4.443-2.477c-.927-2.994 2.894-5.377 8.775-9.503 5.893-4.132 7.032-8.265 5.893-10.848 0 0-1.033 1.655-5.893 4.238-4.849 2.583-8.359 7.337-12.18 10.736-3.821 3.416-4.033 3.616-7.648 2.894-3.61-.722-11.359-1.854-14.875 1.761zM293.189 153.585s5.788-1.239 10.636-.311c4.86.927 9.92 4.96 15.397 5.271 5.471.305 4.332-1.761 4.332-1.761s-3.51.522-4.443-2.477c-.922-2.994 2.9-5.371 8.781-9.497 5.893-4.132 7.026-8.265 5.893-10.853 0 0-1.039 1.655-5.893 4.238s-8.365 7.337-12.18 10.742c-3.827 3.41-4.033 3.616-7.648 2.894-3.611-.729-11.365-1.862-14.875 1.754z"/><path fill="#efefef" d="M128.421 155.475L66.142 263.346h379.716l-66.177-106.755-68.601 74.864-132.225-1.244z"/><path d="M160.13 263.346l40.708-71.425 9.779 19.224 47.798-83.235 45.04 88.547 27.113-47.223 30.934 60.818a126.468 126.468 0 0 1-29.426 33.294H160.13z" fill="#fff"/><path fill="#ccc" d="M258.415 127.91l52.665 103.545 19.488-62.221 48.368 94.112H257.124l11.2-10.061-26.808-13.671 33.793-18.689-16.894-9.351v-9.727z"/><path fill="#fff" d="M128.421 155.475l20.733-37.579 43.308 88.612-32.332 56.838-93.237-1.303z"/><g fill="#ccc"><path d="M149.154 117.896l43.308 88.612-32.331 56.838c-7.349-7.314-8.693-24.965-14.064-33.904l10.795-10.096-20.844-11.059 26.274-15.127-13.137-7.566V117.896zM379.681 156.591l-21.642-38.372-26.18 53.557 29.643 58.276 17.434 33.294h66.922z"/></g><g fill="#fff"><path d="M358.039 118.219l-26.18 53.557 23.11 45.427 7.83-12.403-9.427-15.479 8.318-8.764-9.738-6.897zM91.482 143.624c2.389 0 4.643.387 6.645 1.068 2.16-1.438 5.119-2.324 8.388-2.324 5.653 0 10.396 2.659 11.663 6.24 2.829.575 5.101 2.031 6.134 3.898.335-.029.681-.041 1.033-.041 1.561 0 3.041.258 4.344.716l-1.268 2.295-5.559 9.632a12.548 12.548 0 0 1-2.019-.546c-1.145 2.677-4.778 4.625-9.087 4.625-2.63 0-5.007-.722-6.721-1.902-1.72 1.18-4.097 1.902-6.727 1.902-2.495 0-4.772-.657-6.469-1.732-1.726 1.286-4.215 2.096-6.979 2.096-2.594 0-4.937-.71-6.645-1.855-.781.117-1.597.176-2.43.176-6.228 0-11.27-3.428-11.27-7.666 0-4.232 5.042-7.66 11.27-7.66.34 0 .675.006 1.01.029.799-5.036 7.068-8.951 14.687-8.951z"/></g><path d="M.076 262.043h511.842C508.713 400.637 395.366 512 255.997 512 116.634 512 3.287 400.637.076 262.043z" fill="#7fdde9"/><path d="M8.899 323.072h494.203C473.629 431.923 374.175 512 255.997 512 137.825 512 38.371 431.923 8.899 323.072z" fill="#4ccfdf"/><path d="M33.494 382.669h445.007C434.43 459.917 351.3 512 255.997 512S77.565 459.917 33.494 382.669z" fill="#26c5d9"/><path d="M77.741 439.712H434.26C388.163 484.447 325.303 512 255.997 512s-132.16-27.553-178.256-72.288z" fill="#31bbcb"/><path fill="#c2e2e6" d="M128.421 369.914L66.142 262.043h379.716l-66.177 106.755-68.601-74.864-132.225 1.244z"/><path d="M160.13 262.043l40.708 71.425 9.779-19.224 47.798 83.235 45.04-88.547 27.113 47.223 30.934-60.818a126.468 126.468 0 0 0-29.426-33.294H160.13z" fill="#cfeff3"/><path fill="#a6c6ca" d="M258.415 397.479l52.665-103.545 19.488 62.221 48.368-94.112H257.124l11.2 10.061-26.808 13.671 33.793 18.69-16.894 9.35v9.727z"/><path fill="#cfeff3" d="M128.421 369.914l20.733 37.579 43.308-88.612-32.332-56.838-93.237 1.303z"/><g fill="#a6c6ca"><path d="M149.154 407.493l43.308-88.612-32.331-56.838c-7.349 7.314-8.693 24.965-14.064 33.904l10.795 10.096-20.844 11.059 26.274 15.127-13.137 7.566V407.493zM379.681 368.798l-21.642 38.372-26.18-53.557 29.643-58.276 17.434-33.294h66.922z"/></g><path fill="#cfeff3" d="M358.039 407.17l-26.18-53.557 23.11-45.427 7.83 12.403-9.427 15.479 8.318 8.764-9.738 6.897z"/><path fill="#b3b3b3" d="M66.893 262.043h378.965v1.955H66.893z"/></svg>