<svg xmlns="http://www.w3.org/2000/svg" style="isolation:isolate" width="105" height="70"><defs><clipPath id="a"><path d="M0 0h105v70H0z"/></clipPath></defs><g clip-path="url(#a)"><clipPath id="b"><path fill="#FFF" d="M0 0h105v70H0z"/></clipPath><g clip-path="url(#b)"><path d="M35 0c19.33 0 35 15.67 35 35S54.33 70 35 70 0 54.33 0 35 15.67 0 35 0z" fill="#B1E3FB"/><path d="M21.258 2.802a9.253 9.253 0 0 1-8.056 13.806 9.21 9.21 0 0 1-6.3-2.478A35.115 35.115 0 0 1 21.258 2.802z" fill="#DFF5F9"/><path d="M19.666 3.53a7.532 7.532 0 0 1-11.755 9.307A35.144 35.144 0 0 1 19.666 3.53z" fill="#E8F8FB"/><path d="M63.979 20.122c.364 0 .707.059 1.01.163.328-.219.778-.354 1.274-.354.118 0 .233.008.345.022a34.802 34.802 0 0 1 1.52 3.73c-.263.198-.644.323-1.068.323-.399 0-.761-.11-1.021-.29-.261.18-.622.29-1.022.29a1.86 1.86 0 0 1-.982-.263c-.263.195-.641.317-1.062.317-.393 0-.75-.106-1.009-.281a2.463 2.463 0 0 1-.369.028c-.946 0-1.712-.522-1.712-1.165 0-.644.766-1.165 1.712-1.165.051 0 .103.002.153.005.122-.765 1.074-1.36 2.231-1.36z" fill="#FFF"/><path d="M18.009 4.396a5.718 5.718 0 0 1-8.954 7.113 35.164 35.164 0 0 1 8.954-7.113z" fill="#FCFEFE"/><path d="M37.567 12.697c.42 0 .816.069 1.167.189.379-.253.899-.409 1.472-.409.994 0 1.826.468 2.049 1.096.496.102.894.356 1.076.684.06-.005.121-.007.182-.007.917 0 1.661.506 1.661 1.13 0 .624-.744 1.129-1.661 1.129-.287 0-.556-.049-.79-.134-.202.469-.839.812-1.595.812-.463 0-.88-.129-1.181-.336-.302.207-.719.336-1.181.336-.438 0-.838-.116-1.135-.305-.303.226-.741.367-1.226.367-.455 0-.867-.123-1.166-.325a2.829 2.829 0 0 1-.426.031c-1.094 0-1.98-.601-1.98-1.345s.886-1.346 1.98-1.346c.059 0 .119.001.176.005.141-.883 1.242-1.572 2.578-1.572z" fill="#FFF"/><path d="M36.016 5.65s.793-.17 1.455-.043c.664.127 1.356.678 2.105.721.748.042.593-.241.593-.241s-.48.071-.608-.339c-.127-.409.396-.735 1.201-1.299.805-.565.96-1.13.805-1.483 0 0-.142.226-.805.58-.664.353-1.144 1.003-1.666 1.467-.523.467-.552.495-1.045.396-.495-.099-1.554-.254-2.035.241zM26.153 12.474s.792-.169 1.454-.042c.665.127 1.357.678 2.106.72.748.042.593-.24.593-.24s-.48.07-.608-.339c-.127-.409.396-.735 1.2-1.299.806-.565.961-1.13.806-1.483 0 0-.142.226-.806.579-.663.353-1.143 1.003-1.665 1.468-.523.467-.552.494-1.046.396-.494-.099-1.553-.254-2.034.24zM40.084 20.998s.792-.169 1.455-.043c.664.127 1.356.679 2.105.721.748.042.592-.241.592-.241s-.48.072-.608-.338c-.126-.41.397-.735 1.201-1.299.806-.565.961-1.13.806-1.484 0 0-.142.227-.806.58s-1.144 1.003-1.665 1.468c-.523.467-.552.495-1.046.396-.494-.1-1.554-.254-2.034.24z"/><path d="M17.558 21.256L9.043 36.004h51.914L51.91 21.409l-9.38 10.235-18.077-.17-6.895-10.218z" fill="#EFEFEF"/><path d="M21.893 36.004l5.565-9.765 1.337 2.628 6.535-11.379 6.158 12.106 3.707-6.457 4.229 8.315a17.254 17.254 0 0 1-4.023 4.552H21.893z" fill="#FFF"/><path d="M35.33 17.488l7.2 14.156 2.665-8.507 6.613 12.867H35.154l1.531-1.375-3.665-1.869 4.62-2.555-2.31-1.279V17.488z" fill="#CCC"/><path d="M17.558 21.256l2.834-5.137 5.921 12.115-4.42 7.77-12.747-.178 8.412-14.57z" fill="#FFF"/><g fill="#CCC"><path d="M20.392 16.119l5.921 12.115-4.42 7.77c-1.005-1-1.189-3.413-1.923-4.635l1.476-1.38-2.85-1.512 3.592-2.068-1.796-1.035v-9.255zM51.91 21.409l-2.959-5.246-3.58 7.322 4.053 7.967 2.384 4.552h9.149L51.91 21.409z"/></g><g fill="#FFF"><path d="M48.951 16.163l-3.58 7.322 3.16 6.211L49.601 28l-1.288-2.116 1.137-1.198-1.332-.943.833-7.58zM12.507 19.636c.327 0 .635.053.909.146.295-.196.7-.318 1.147-.318.772 0 1.421.364 1.594.854.387.078.698.277.839.532a1.792 1.792 0 0 1 .735.093l-.173.313-.76 1.317a1.639 1.639 0 0 1-.276-.074c-.157.366-.654.632-1.243.632-.359 0-.684-.099-.919-.26-.235.161-.56.26-.919.26-.342 0-.653-.09-.885-.237-.236.176-.576.287-.954.287-.355 0-.675-.097-.909-.254a2.236 2.236 0 0 1-.332.024c-.851 0-1.541-.468-1.541-1.048 0-.578.69-1.047 1.541-1.047.047 0 .093.001.138.004.11-.689.967-1.224 2.008-1.224z"/></g><path d="M.01 35.826h69.979C69.551 54.775 54.054 70 35 70 15.946 70 .449 54.775.01 35.826z" fill="#7FDDE9"/><path d="M1.217 44.17h67.566C64.754 59.052 51.157 70 35 70S5.246 59.052 1.217 44.17z" fill="#4CCFDF"/><path d="M4.579 52.318H65.42C59.395 62.879 48.029 70 35 70c-13.03 0-24.395-7.121-30.421-17.682z" fill="#26C5D9"/><path d="M10.629 60.117h48.742C53.069 66.233 44.475 70 35 70c-9.476 0-18.069-3.767-24.371-9.883z" fill="#31BBCB"/><path d="M17.558 50.574L9.043 35.826h51.914L51.91 50.422l-9.38-10.236-18.077.17-6.895 10.218z" fill="#C2E2E6"/><path d="M21.893 35.826l5.565 9.765 1.337-2.628 6.535 11.38 6.158-12.106 3.707 6.456 4.229-8.315a17.286 17.286 0 0 0-4.023-4.552H21.893z" fill="#CFEFF3"/><path d="M35.33 54.343l7.2-14.157 2.665 8.507 6.613-12.867H35.154l1.531 1.376-3.665 1.869 4.62 2.555-2.31 1.278v11.439z" fill="#A6C6CA"/><path d="M17.558 50.574l2.834 5.138 5.921-12.115-4.42-7.771-12.747.178 8.412 14.57z" fill="#CFEFF3"/><g fill="#A6C6CA"><path d="M20.392 55.712l5.921-12.115-4.42-7.771c-1.005 1-1.189 3.413-1.923 4.636l1.476 1.38-2.85 1.512 3.592 2.068-1.796 1.034v9.256zM51.91 50.422l-2.959 5.246-3.58-7.322 4.053-7.968 2.384-4.552h9.149L51.91 50.422z"/></g><path d="M48.951 55.668l-3.58-7.322 3.16-6.211 1.07 1.696-1.288 2.116 1.137 1.198-1.332.943.833 7.58z" fill="#CFEFF3"/><path d="M9.146 35.826h51.811v.267H9.146v-.267z" fill="#B3B3B3"/><path d="M89.25 26.746v5H70v5h19.25v5l15.75-7.5-15.75-7.5z" fill="#3FADB4"/></g></g></svg>