<svg xmlns="http://www.w3.org/2000/svg" viewBox="0 0 512 512"><path fill="#80c7ea" d="M248.139 148.184l-55.53 4.88-28.79 31.37-43.19 10.45-21.25 35.14h81.58l51.859-14.187 50.332-20.44 21.56-33.678 3.759-49.785z"/><path fill="#bddef6" d="M372.269 184.434l-118.46 45.59h-72.85l30.85-45.42 61.69-9.8 34.97-62.87 44.56 30.17z"/><path fill="#2c9ccc" d="M180.959 230.024l-.118.44-37.11.235-15.142 33.417 43.337 93.985 72.783 142.784 35.06-43.191 9.25-46.27 55.67-13.88 27.58-53.98 35.51-18.51 11.08-95.03z"/><path fill="#2788b3" d="M244.709 500.885l-71.37-53.981-16.96-77.12-63.24-46.27 6.24-93.49h81.58l-18.41 68.81 43.18 38.56v49.351l30.09 43.189z"/><path d="M245.877 105.664c-3.003-20.044-20.291-35.416-41.172-35.416a41.473 41.473 0 0 0-17.05 3.653c-.33-23.61-19.561-42.65-43.249-42.65-18.821 0-34.827 12.021-40.779 28.802-4.39-4.63-10.594-7.522-17.477-7.522-13.303 0-24.087 10.784-24.087 24.087 0 .47.017.937.044 1.4a30.644 30.644 0 0 0-13.541-3.136c-17 0-30.782 13.782-30.782 30.782h228.093z" fill="#deeef9"/><path d="M283.15 71.026c2.418-16.138 16.337-28.514 33.148-28.514a33.39 33.39 0 0 1 13.727 2.941c.267-19.008 15.75-34.338 34.821-34.338 15.153 0 28.04 9.678 32.832 23.189 3.534-3.727 8.529-6.056 14.071-6.056 10.71 0 19.393 8.682 19.393 19.393 0 .379-.014.754-.035 1.127a24.674 24.674 0 0 1 10.902-2.525c13.687 0 24.783 11.096 24.783 24.783H283.15z" fill="#acd7f2"/><path fill="#80c7ea" d="M331.549 174.804l-19.25 22.47-36.49 6.16-22 26.59h90.88l42.485-14.892 12.675-24.178z"/><path fill="#bddef6" d="M418.859 230.024h-74.17l55.16-39.07z"/><path d="M504.5 237.523H7.5a7.5 7.5 0 0 1 0-15h497a7.5 7.5 0 0 1 0 15z" fill="#80c7ea"/></svg>