<svg xmlns="http://www.w3.org/2000/svg" style="isolation:isolate" width="105" height="70"><defs><clipPath id="a"><path d="M0 0h105v70H0z"/></clipPath></defs><g clip-path="url(#a)"><path d="M89.25 27.5v5H70v5h19.25v5l10.488-4.995L105 35l-15.75-7.5z" fill="#3FADB4"/><circle vector-effect="non-scaling-stroke" cx="35" cy="35" r="35" fill="#8DD9FF"/><path d="M.805 27.54A35.063 35.063 0 0 0 0 35c0 2.561.283 5.055.805 7.46 9.198 7.584 31.989 12.957 58.668 12.957 1.337 0 2.661-.018 3.978-.045A34.831 34.831 0 0 0 70 35a34.829 34.829 0 0 0-6.549-20.372 193.78 193.78 0 0 0-3.978-.045c-26.679 0-49.47 5.373-58.668 12.957z" fill="#FFFFF4" opacity=".3"/><path d="M0 35c0 7.396 2.3 14.252 6.215 19.903 12.662 3.562 30.508 6.145 50.964 7.171C65.005 55.655 70 45.912 70 35c0-4.654-.916-9.093-2.566-13.155-28.347.665-52.8 4.275-67.237 9.451A35.119 35.119 0 0 0 0 35z" fill="#FFFFF4" opacity=".4"/><path d="M24.063 19.688c-1.231.273-2.735 3.144-4.375 3.281-1.641.136-4.649 0-5.469 1.094-.394.525-.913 2.601-1.347 4.375h17.411l.843-5.15c-1.367-.957-5.833-3.874-7.063-3.6z" fill="#BBE6FF"/><path d="M0 35c0 19.33 15.67 35 35 35s35-15.67 35-35c0-2.244-.22-4.436-.623-6.562H.623A35.197 35.197 0 0 0 0 35z" fill="#3B87C5"/><path d="M34.942 35C21.995 35 10.119 37.811.813 42.494c3.296 15.105 16.339 26.563 32.21 27.447.659.022 1.313.059 1.979.059l.026-.001c.653 0 1.294-.036 1.941-.057 15.857-.88 28.89-12.315 32.206-27.395C59.853 37.832 47.937 35 34.942 35z" fill="#3C9BD4"/><path d="M25.931 12.57c-.344 0-.67.068-.981.166a5.456 5.456 0 0 0-8.975 0 3.255 3.255 0 0 0-.981-.166 3.281 3.281 0 0 0-3.282 3.281h17.5a3.281 3.281 0 0 0-3.281-3.281z" fill="#FFF"/><path d="M21.556 12.897a2.822 2.822 0 0 1 2.822-2.822c.235 0 .46.038.679.092a4.007 4.007 0 0 1 2.949-1.301 4.032 4.032 0 0 1 4.032 4.031H21.556z" fill="#FFF"/><path d="M35 10.045a2.405 2.405 0 0 1 2.405-2.405c.2 0 .392.032.578.078a3.417 3.417 0 0 1 2.514-1.109 3.435 3.435 0 0 1 3.435 3.436H35zM54.323 19.669a2.404 2.404 0 0 1 2.405-2.404c.2 0 .392.031.578.077a3.418 3.418 0 0 1 2.514-1.108 3.435 3.435 0 0 1 3.435 3.435h-8.932zM26.331 7.015c0-.952.771-1.723 1.723-1.723.144 0 .281.023.415.056a2.445 2.445 0 0 1 1.801-.795 2.463 2.463 0 0 1 2.462 2.462h-6.401z" fill="#FFF" opacity=".5"/><path d="M47.624 17.5a3.19 3.19 0 0 1 3.19-3.19c.266 0 .52.042.767.103a4.528 4.528 0 0 1 3.334-1.47 4.558 4.558 0 0 1 4.558 4.557H47.624z" fill="#FFF"/><path d="M55.781 28.438c0-3.464-2.979-4.802-4.375-5.469-1.655-.792-5.104-.547-6.562-3.281-1.459-2.735-2.466-4.375-3.281-4.375-1.55 0-5.378.729-7.657 3.281-1.853 2.075-1.458 4.01-4.375 5.469-.878.439-3.281 1.088-3.281 4.375v5.468c0 4.102 4.74 6.927 6.563 7.657 1.822.729 4.13 18.593 6.562 18.593 2.37 0 5.104-8.932 6.563-9.843 1.458-.912 4.375-1.079 4.375-5.469V35c2.914-2.915 5.468.547 5.468-6.562z" fill="#BBE6FF"/><path d="M12.872 28.438c-.181.738-.348 1.426-.484 1.924a3.142 3.142 0 0 0 .373 2.505c1.422 2.262 4.452 7.205 4.739 8.696 1.025 5.332 3.281 6.015 4.375 8.75.568 1.419 3.486.546 4.375 0 1.254-.772 3.281-9.844 3.281-9.844l.752-12.031H12.872z" fill="#75C3F0"/><path d="M32.813 41.563c1.822.729 4.13 18.593 6.562 18.593 2.37 0 5.104-8.932 6.563-9.843 1.458-.912 4.375-1.079 4.375-5.469V35c2.914-2.915 5.468.547 5.468-6.562H26.25v5.468c0 4.102 4.74 6.927 6.563 7.657z" fill="#8DD9FF"/><path d="M24.063 19.688c-1.231.273-2.735 3.144-4.375 3.281-1.641.136-4.649 0-5.469 1.094-.278.37-.618 1.515-.947 2.778 1.588.126 2.023-1.411 2.359-1.958.365-.593 2.37-.319 3.737-.502 1.368-.182 1.276.866 2.631 1.185 1.354.319 1.608-2.779 2.246-3.372.638-.592 5.286 1.869 6.334 2.643l.368-.455.179-1.094c-1.367-.957-5.833-3.874-7.063-3.6z" fill="#FFF"/><path d="M51.406 22.969c-1.655-.792-5.104-.547-6.562-3.281-1.459-2.735-2.466-4.375-3.281-4.375-1.55 0-5.378.729-7.657 3.281-1.853 2.075-1.458 4.01-4.375 5.469-.847.423-3.095 1.067-3.252 4.065 1.133-1.536 4.756-2.493 7.012-1.946 1.486.36.479 1.485 2.195 1.485 1.29 0 1.186-5.484 2.112-6.339.888-.82 1.856-.605 2.461 1.641.957 3.554 6.972.888 14.72 2.412-.996-1.309-2.496-1.993-3.373-2.412zM.404 29.668h69.192c-.063-.414-.142-.822-.219-1.23H.623c-.077.408-.156.816-.219 1.23z" fill="#FFF"/><path d="M45.117 39.76c0-2.601-2.005-3.113-2.005-1.179 0 1.116-1.589 2.139-2.583.726-.811-1.153-1.063-4.5-1.063-6.039 0-3.053-2.482-3.215-2.482-.092 0 4.558-1.99 3.763-1.99 5.561 0 3.372 1.783 6.243.006 8.431-.027.034-.046.078-.072.114 1.367 5.47 2.881 12.874 4.447 12.874 2.37 0 5.104-8.932 6.563-9.843.598-.375 1.442-.627 2.23-1.094-2.504-.274-3.051-4.511-3.051-9.459z" fill="#75C3F0"/><path d="M25.361 41.357c0-3.44.205-5.445-1.162-6.038-1.212-.525-2.563 1.151-2.919-.319-.654-2.702-.681-3.62-1.556-3.62-.857 0-1.199 1.353-1.199 4.714 0 5.068.524 5.865-.811 6.445 1.099 4.451 3.138 5.216 4.161 7.774.568 1.419 3.486.546 4.375 0 .841-.518 2.028-4.762 2.719-7.506-.623 1.49-3.608 1.586-3.608-1.45z" fill="#5AB0E2"/></g></svg>