<svg xmlns="http://www.w3.org/2000/svg" width="100" height="100" viewBox="0 0 70 70"><defs fill="none"><mask id="maskSivjigit5c0zj"><rect x="35" width="35" height="70" rx="0" ry="0" fill="#fff"/></mask></defs><g class="content"><g class="base"><g fill="none" fill-rule="evenodd" class="main-fill"><path d="M48.8 39.3v-3.8c0-1-.6-1.8-1.5-2.1V32.2c.1-7.3-5.8-13.2-13.1-13.2-7.2 0-13.1 5.9-13.1 13.2 0 7.3 5.9 13.2 13.2 13.2h.9c.2 0 .3-.1.4-.2.7 1.1 1.4 2.2 2.2 3.5.1.2.4.4.7.4h7.2c.1 0 .3 0 .4-.1 3.6-2.3 2.8-9.5 2.7-9.7zm-20.9-7c.4-1.2 2.8-1.8 3.7-2 .5-.1 3-.8 3.2-2.4.2-1.4-1.4-2.2-1.9-2.5-.8-.5-1.2-1-1.3-1.6-.1-1.2 1.1-2.7 1.7-3.2.3 0 .4-.1.8-.1 2.8 0 5.7 1 7.2 2.7 0 1.7-.4 2.7-1.5 3.6v-.4c0-1.3-1-2.3-2.3-2.3-1.3 0-2.3 1-2.3 2.3v8.5c-.6-.8-1.4-1.5-2.2-1.6-.6-.1-1.3 0-1.8.5-.6.5-.8 1.1-.7 1.8l-1-.6c-1-.8-1.9-1.9-1.6-2.7zm17.4 15.2h-6.5c-1-1.7-2-3.3-2.9-4.7l-.7-1.1c-1.8-2.7-4-6.1-3.1-6.9.2-.2.4-.2.5-.2.8.2 1.9 1.8 2.5 2.8 0 .1.1.1.1.2.1.3.4.5.7.5.4 0 .8-.3.8-.8V26.4c0-.4.3-.8.8-.8.4 0 .8.3.8.8V36c0 .4.3.8.8.8.4 0 .8-.3.8-.8v-3.5c0-.4.3-.8.8-.8s.8.3.8.8v4.9c0 .4.3.8.8.8.4 0 .8-.3.8-.8V34c0-.4.3-.8.8-.8.4 0 .8.3.8.8v5c0 .4.3.8.8.8.4 0 .8-.3.8-.8v-3.4c0-.4.3-.8.8-.8s.8.3.8.8v3.9c-.4 1.7-.3 6.5-2.6 8z" class="main-fill"/></g></g><g class="masked" mask="url('#maskSivjigit5c0zj')"><g fill="none" fill-rule="evenodd" class="main-fill--darken"><path d="M48.8 39.3v-3.8c0-1-.6-1.8-1.5-2.1V32.2c.1-7.3-5.8-13.2-13.1-13.2-7.2 0-13.1 5.9-13.1 13.2 0 7.3 5.9 13.2 13.2 13.2h.9c.2 0 .3-.1.4-.2.7 1.1 1.4 2.2 2.2 3.5.1.2.4.4.7.4h7.2c.1 0 .3 0 .4-.1 3.6-2.3 2.8-9.5 2.7-9.7zm-20.9-7c.4-1.2 2.8-1.8 3.7-2 .5-.1 3-.8 3.2-2.4.2-1.4-1.4-2.2-1.9-2.5-.8-.5-1.2-1-1.3-1.6-.1-1.2 1.1-2.7 1.7-3.2.3 0 .4-.1.8-.1 2.8 0 5.7 1 7.2 2.7 0 1.7-.4 2.7-1.5 3.6v-.4c0-1.3-1-2.3-2.3-2.3-1.3 0-2.3 1-2.3 2.3v8.5c-.6-.8-1.4-1.5-2.2-1.6-.6-.1-1.3 0-1.8.5-.6.5-.8 1.1-.7 1.8l-1-.6c-1-.8-1.9-1.9-1.6-2.7zm17.4 15.2h-6.5c-1-1.7-2-3.3-2.9-4.7l-.7-1.1c-1.8-2.7-4-6.1-3.1-6.9.2-.2.4-.2.5-.2.8.2 1.9 1.8 2.5 2.8 0 .1.1.1.1.2.1.3.4.5.7.5.4 0 .8-.3.8-.8V26.4c0-.4.3-.8.8-.8.4 0 .8.3.8.8V36c0 .4.3.8.8.8.4 0 .8-.3.8-.8v-3.5c0-.4.3-.8.8-.8s.8.3.8.8v4.9c0 .4.3.8.8.8.4 0 .8-.3.8-.8V34c0-.4.3-.8.8-.8.4 0 .8.3.8.8v5c0 .4.3.8.8.8.4 0 .8-.3.8-.8v-3.4c0-.4.3-.8.8-.8s.8.3.8.8v3.9c-.4 1.7-.3 6.5-2.6 8z" class="main-fill--darken"/></g></g></g><style>.main-fill{fill:#3fadb4}.main-fill--darken{fill:#2b777b}</style></svg>