<svg xmlns="http://www.w3.org/2000/svg" width="70" height="70" viewBox="0 0 512 512"><circle cx="256" cy="256" r="256" fill="#67b9cc"/><g fill="#4482c3"><path d="M111.258 282.483a77.089 77.089 0 0 0-43.694 15.812 19.715 19.715 0 1 0 27.882 27.882c8.926-8.926-1.853-31.606 15.812-43.694zM203.035 116.718a77.089 77.089 0 0 0-40.026-23.604 19.714 19.714 0 0 0-19.81 27.831 19.715 19.715 0 0 0 16.083 11.423c12.567 1.193 23.181-21.564 43.753-15.65z"/></g><path d="M88.276 150.069a70.722 70.722 0 0 1-85.627 69.032A255.112 255.112 0 0 1 58.792 92.69a70.506 70.506 0 0 1 29.484 57.379z" fill="#f0c419"/><path d="M512 256c.072 91.514-48.78 176.087-128.088 221.749 56.62-42.834 87.99-111.205 83.533-182.062s-44.148-134.758-105.69-170.159c70.054 10.01 128.306 59.015 150.157 126.323v.088c.088 1.324.088 2.737.088 4.061z" fill="#4482c3"/><path d="M467.862 308.966a211.615 211.615 0 0 1-83.95 168.783s-.088.177-.177.177c-84.994 48.829-190.39 44.922-271.537-10.063H256c87.756 0 158.897-71.14 158.897-158.897S343.756 150.069 256 150.069c-5.898.011-11.791.335-17.655.971a185.633 185.633 0 0 1 123.321-25.6c.024 0 .046.009.063.025a.083.083 0 0 1 .025.063c65.627 37.773 106.085 107.717 106.108 183.438z" fill="#285680"/><path d="M414.897 308.966C414.765 396.667 343.702 467.73 256 467.862H112.199a255.3 255.3 0 0 1-56.85-52.966H256c57.797.019 104.941-46.294 105.95-104.083 1.009-57.788-44.491-105.719-102.254-107.716-57.763-1.998-106.465 42.675-109.451 100.395 1.696-62.446 34.842-119.803 88.099-152.452a166.349 166.349 0 0 1 17.655-.971c87.703.132 158.766 71.195 158.898 158.897zM150.246 303.492c-.177 1.766-.177 3.619-.177 5.473M150.246 303.492c-.177 1.766-.177 3.619-.177 5.473" fill="#4482c3"/></svg>