<svg xmlns="http://www.w3.org/2000/svg" style="isolation:isolate" width="70" height="105"><defs><clipPath id="a"><path d="M0 0h70v105H0z"/></clipPath></defs><g clip-path="url(#a)"><path d="M27.5 15.75h5V35h5V15.75h5L37.505 5.262 35 0l-7.5 15.75z" fill="#3FADB4"/><circle vector-effect="non-scaling-stroke" cx="35" cy="70" r="35" fill="#67B9CC"/><g fill="#4482C3"><path d="M15.211 73.621a10.541 10.541 0 0 0-5.974 2.162 2.694 2.694 0 1 0 3.812 3.812c1.221-1.221-.253-4.322 2.162-5.974zM27.759 50.958a10.547 10.547 0 0 0-5.473-3.228 2.694 2.694 0 0 0-2.708 3.805 2.693 2.693 0 0 0 2.199 1.562c1.718.163 3.169-2.948 5.982-2.139z"/></g><path d="M12.069 55.517A9.67 9.67 0 0 1 .362 64.955a34.883 34.883 0 0 1 7.676-17.283 9.643 9.643 0 0 1 4.031 7.845z" fill="#F0C419"/><path d="M70 70a34.95 34.95 0 0 1-17.512 30.317 28.932 28.932 0 0 0-3.029-48.155 25.355 25.355 0 0 1 20.529 17.271v.012c.012.181.012.374.012.555z" fill="#4482C3"/><path d="M63.966 77.241a28.933 28.933 0 0 1-11.478 23.076s-.012.024-.024.024a35.053 35.053 0 0 1-37.124-1.375H35c11.998 0 21.724-9.727 21.724-21.725 0-11.998-9.726-21.724-21.724-21.724-.806.002-1.612.046-2.414.133a25.38 25.38 0 0 1 16.869-3.497c.002.003.004.006.004.009a28.95 28.95 0 0 1 14.507 25.079z" fill="#285680"/><path d="M56.724 77.241C56.706 89.232 46.991 98.947 35 98.966H15.34a34.934 34.934 0 0 1-7.773-7.242H35c7.902.003 14.347-6.329 14.485-14.23.138-7.901-6.082-14.454-13.98-14.727-7.897-.273-14.555 5.835-14.964 13.726A25.254 25.254 0 0 1 32.586 55.65 22.898 22.898 0 0 1 35 55.517c11.991.018 21.706 9.734 21.724 21.724zM20.541 76.493c-.024.241-.024.495-.024.748" fill="#4482C3"/><g><path d="M20.541 76.493c-.024.241-.024.495-.024.748" fill="#4482C3"/></g></g></svg>