<svg xmlns="http://www.w3.org/2000/svg" width="70" height="70" style="width:100%;height:100%"><g class="base"><g fill="none" fill-rule="evenodd" class="main-stroke"><path d="M22.647 17.706v34.588h24.706V25.941h-7c-.431 0-.824-.392-.824-.823v-7.412H22.647zm18.53 0v6.588h6.176l-6.177-6.588zm-13.589 7.412H35c.456 0 .823.367.823.823a.822.822 0 0 1-.823.824h-7.412a.822.822 0 0 1-.823-.824c0-.456.367-.823.823-.823zm0 4.941h14.824c.456 0 .823.367.823.824a.822.822 0 0 1-.823.823H27.588a.822.822 0 0 1-.823-.823c0-.457.367-.824.823-.824zm0 4.941h14.824c.456 0 .823.368.823.824a.822.822 0 0 1-.823.823H27.588a.822.822 0 0 1-.823-.823c0-.456.367-.824.823-.824zm0 4.941h14.824c.456 0 .823.368.823.824a.822.822 0 0 1-.823.823H27.588a.822.822 0 0 1-.823-.823c0-.456.367-.824.823-.824zm0 4.942h14.824c.456 0 .823.367.823.823a.822.822 0 0 1-.823.824H27.588a.822.822 0 0 1-.823-.824c0-.456.367-.823.823-.823z" class="main-stroke"/></g></g><style>.main-stroke{stroke:#fff}</style></svg>