<svg xmlns="http://www.w3.org/2000/svg" width="70" height="70" style="width:100%;height:100%"><g class="base"><g fill="none" transform="translate(22.4 14.467)" class="main-stroke"><circle cx="7.933" cy="25.2" r=".7" class="main-stroke"/><path d="M17.267 25.9c1.03 0 1.866-.837 1.866-1.867s-.837-1.866-1.866-1.866c-1.03 0-1.867.837-1.867 1.866 0 1.03.837 1.867 1.867 1.867z" class="main-stroke"/><circle cx="12.6" cy="21.7" r=".7" class="main-stroke"/><circle cx="11.433" cy="33.367" r=".7" class="main-stroke"/><path d="M18.508 29.16c-.343.056-.881.285-1.4.507-.768.328-1.562.666-2.175.666-.539 0-1.17-.301-1.838-.62-.58-.276-1.23-.595-1.6-.55-.338.045-.911.587-1.372 1.022-.716.678-1.393 1.318-2.12 1.318-.055.003-.077-.002-.115-.006-.657-.065-1.149-.75-1.624-1.412-.275-.384-.618-.861-.842-.954-.026-.01-.179-.064-.666-.064-.349 0-.731.027-1.012.052.219 4.696 4.108 8.448 8.856 8.448 4.74 0 8.623-3.739 8.856-8.422a44.764 44.764 0 0 0-1.731-.04c-.72 0-1.059.03-1.217.056zM11.433 35c-.9 0-1.633-.733-1.633-1.633 0-.901.733-1.634 1.633-1.634.901 0 1.634.733 1.634 1.634 0 .9-.733 1.633-1.634 1.633zm4.084-1.633a.584.584 0 1 1 0-1.167.584.584 0 0 1 0 1.167z" class="main-stroke"/><path d="M16.8 17.066v-1.9h-3.033a.467.467 0 1 1 0-.933H16.8v-2.566h-3.033a.467.467 0 1 1 0-.934H16.8V8.167h-3.033a.467.467 0 1 1 0-.934H16.8v-3.5h.467c.643 0 1.166-.523 1.166-1.166v-1.4C18.433.524 17.91 0 17.267 0H7.933C7.29 0 6.767.524 6.767 1.167v1.4c0 .643.523 1.166 1.166 1.166H8.4v13.333A12.312 12.312 0 0 0 .233 28.7c0 6.819 5.548 12.367 12.367 12.367 6.819 0 12.367-5.548 12.367-12.367 0-5.258-3.26-9.87-8.167-11.634zm.467 4.167c1.544 0 2.8 1.256 2.8 2.8 0 1.545-1.256 2.8-2.8 2.8a2.803 2.803 0 0 1-2.8-2.8c0-1.544 1.255-2.8 2.8-2.8zM12.6 20.067c.9 0 1.633.732 1.633 1.633 0 .9-.732 1.633-1.633 1.633-.9 0-1.633-.732-1.633-1.633 0-.9.732-1.633 1.633-1.633zm-4.667 3.5c.901 0 1.634.732 1.634 1.633 0 .9-.733 1.633-1.634 1.633-.9 0-1.633-.732-1.633-1.633 0-.9.733-1.633 1.633-1.633zM12.6 38.5c-5.404 0-9.8-4.396-9.8-9.8 0-.236.175-.434.409-.463.033-.004.834-.103 1.546-.103.476 0 .802.043 1.023.135.47.195.846.718 1.244 1.272.287.4.72 1.005.957 1.028h.001c.38 0 1.001-.588 1.502-1.061.644-.61 1.252-1.185 1.89-1.27.6-.082 1.383.28 2.124.633.52.248 1.11.529 1.437.529.422 0 1.158-.314 1.808-.591.598-.255 1.162-.496 1.618-.57.282-.046.73-.068 1.366-.068 1.037 0 2.185.06 2.233.063a.467.467 0 0 1 .442.466c0 5.404-4.396 9.8-9.8 9.8z" class="main-stroke"/></g></g><style>.main-stroke{stroke:#fff}</style></svg>