<svg xmlns="http://www.w3.org/2000/svg" width="70" height="70" style="width:100%;height:100%"><g class="base"><g fill="none" fill-rule="evenodd" class="main-stroke"><path d="M35 25.118a5.765 5.765 0 0 0-5.765 5.765c0 1.923 1.024 3.482 2.471 4.53-4.028 1.34-7 5.146-7 9.47h20.588c0-4.324-2.971-8.13-7-9.47 1.448-1.048 2.47-2.607 2.47-4.53A5.765 5.765 0 0 0 35 25.118zm-8.235.824c-2.802 0-4.941 2.155-4.941 4.94 0 1.684.785 3.202 2.058 4.118-3.545 1.174-6.176 4.453-6.176 8.236h5.482c.53-3.53 2.732-6.568 5.764-8.338-.813-1.131-1.364-2.473-1.364-4.015 0-1.64.543-3.157 1.454-4.388a5.026 5.026 0 0 0-2.277-.553zm16.47 0c-.812 0-1.592.204-2.277.553a7.356 7.356 0 0 1 1.454 4.388c0 1.542-.55 2.884-1.364 4.015 3.032 1.77 5.233 4.807 5.765 8.338h5.481c0-3.783-2.631-7.062-6.176-8.236 1.274-.916 2.059-2.434 2.059-4.117 0-2.786-2.14-4.941-4.942-4.941z" class="main-stroke"/></g></g><style>.main-stroke{stroke:#fff}</style></svg>