<svg xmlns="http://www.w3.org/2000/svg" width="70" height="70" style="width:100%;height:100%"><defs fill="none"><mask id="maskSiwp1hyda8v"><rect x="35" width="35" height="70" rx="0" ry="0" fill="#fff"/></mask></defs><g class="content"><g class="base"><g fill="none" fill-rule="evenodd" class="main-fill"><path d="M21.411 17.706c-.684 0-1.235.551-1.235 1.235V51.06c0 .684.55 1.235 1.235 1.235h22.236c.684 0 1.235-.55 1.235-1.235V38c-.69 1.318-1.176 2.225-1.235 2.264.001.082-.425 4.774-.425 4.774a1.688 1.688 0 0 1-1.145 1.415l-4.234 1.3c-.37.114-.778.075-1.132-.077-.344-.148-1.558-.906-1.84-1.158a1.648 1.648 0 0 1-.515-.875l-.965-4.53a1.69 1.69 0 0 1 .695-1.724s3.79-2.524 3.834-2.548c.006-.224 4.235-7.253 6.434-10.899H37.47a.824.824 0 0 1-.823-.823v-7.412H21.41zm16.883 0v6.588h6.588l-6.588-6.588zm9.47 5.765l-8.196 13.408.012.013 3.166 1.981 7.077-14.167-2.059-1.235zM23.47 27.588h16.47c.436-.006.837.389.837.824 0 .435-.401.83-.836.824H23.47c-.433 0-.826-.435-.824-.824 0-.387.35-.824.823-.824zm0 3.295h13.177c.435-.007.836.388.836.823 0 .435-.401.83-.836.824H23.47c-.432 0-.825-.434-.823-.824 0-.387.35-.823.823-.823zm0 3.294h12.765c.435-.006.836.388.836.823 0 .435-.401.83-.836.824H23.47c-.432 0-.825-.434-.823-.824 0-.387.35-.823.823-.823zm15.235 4.117L35 40.765l.965 4.53 1.376-2.523a1.693 1.693 0 0 1-.193-.772c0-.91.706-1.647 1.583-1.647s1.596.738 1.596 1.647c0 .905-.712 1.64-1.583 1.647h-.013l-1.377 2.535 4.234-1.3.412-4.529-3.295-2.059zM23.47 46.118h9.046c.435-.006.836.388.836.823 0 .436-.4.83-.836.824H23.47c-.432 0-.823-.435-.823-.824 0-.388.35-.823.823-.823z" class="main-fill"/></g></g><g class="masked" mask="url('#maskSiwp1hyda8v')"><g fill="none" fill-rule="evenodd" class="main-fill--darken"><path d="M21.411 17.706c-.684 0-1.235.551-1.235 1.235V51.06c0 .684.55 1.235 1.235 1.235h22.236c.684 0 1.235-.55 1.235-1.235V38c-.69 1.318-1.176 2.225-1.235 2.264.001.082-.425 4.774-.425 4.774a1.688 1.688 0 0 1-1.145 1.415l-4.234 1.3c-.37.114-.778.075-1.132-.077-.344-.148-1.558-.906-1.84-1.158a1.648 1.648 0 0 1-.515-.875l-.965-4.53a1.69 1.69 0 0 1 .695-1.724s3.79-2.524 3.834-2.548c.006-.224 4.235-7.253 6.434-10.899H37.47a.824.824 0 0 1-.823-.823v-7.412H21.41zm16.883 0v6.588h6.588l-6.588-6.588zm9.47 5.765l-8.196 13.408.012.013 3.166 1.981 7.077-14.167-2.059-1.235zM23.47 27.588h16.47c.436-.006.837.389.837.824 0 .435-.401.83-.836.824H23.47c-.433 0-.826-.435-.824-.824 0-.387.35-.824.823-.824zm0 3.295h13.177c.435-.007.836.388.836.823 0 .435-.401.83-.836.824H23.47c-.432 0-.825-.434-.823-.824 0-.387.35-.823.823-.823zm0 3.294h12.765c.435-.006.836.388.836.823 0 .435-.401.83-.836.824H23.47c-.432 0-.825-.434-.823-.824 0-.387.35-.823.823-.823zm15.235 4.117L35 40.765l.965 4.53 1.376-2.523a1.693 1.693 0 0 1-.193-.772c0-.91.706-1.647 1.583-1.647s1.596.738 1.596 1.647c0 .905-.712 1.64-1.583 1.647h-.013l-1.377 2.535 4.234-1.3.412-4.529-3.295-2.059zM23.47 46.118h9.046c.435-.006.836.388.836.823 0 .436-.4.83-.836.824H23.47c-.432 0-.823-.435-.823-.824 0-.388.35-.823.823-.823z" class="main-fill--darken"/></g></g></g><style>.main-fill{fill:#3fadb4}.main-fill--darken{fill:#2b777b}</style></svg>