<svg xmlns="http://www.w3.org/2000/svg" width="70" height="70" style="width:100%;height:100%"><g class="base"><g fill="none" class="main-stroke"><path d="M43.6 25.9c.4-1.1.4-2.3-.1-3.4-.8-1.5-2.3-2.5-4-2.5-.6 0-1.3.1-1.8.4-1.1.5-1.9 1.4-2.3 2.5-.4 1.1-.4 2.3.1 3.3.7 1.5 2.3 2.5 4 2.5.5 0 1-.1 1.4-.3l.7 1.4c.1.3.4.4.7.4.1 0 .2 0 .3-.1.4-.2.5-.6.3-1l-.7-1.5c.6-.3 1.1-.9 1.4-1.7zm-1.4-.5c-.3.7-.8 1.3-1.5 1.6-1.4.7-3.2 0-3.9-1.4-.3-.7-.4-1.5-.1-2.2.3-.7.8-1.3 1.5-1.6.4-.2.8-.3 1.2-.3 1.1 0 2.2.7 2.6 1.7.5.7.5 1.5.2 2.2zm-6.6 4.1h-1.7c.6-.6.9-1.5.9-2.4 0-2-1.6-3.7-3.7-3.7-2 0-3.7 1.6-3.7 3.7 0 .9.3 1.7.9 2.4h-1.4c-.4 0-.7.3-.7.7V42c0 .4.3.7.7.7h.7v6.6c0 .4.3.7.7.7h2.2v-5.9c0-.4.3-.7.7-.7.4 0 .7.3.7.7V50h2.2c.4 0 .7-.3.7-.7v-6.6h.7c.4 0 .7-.3.7-.7V30.3c.2-.5-.1-.8-.6-.8z" class="main-stroke"/></g></g><style>.main-stroke{stroke:#353535}</style></svg>