<svg xmlns="http://www.w3.org/2000/svg" width="70" height="70" style="width:100%;height:100%"><defs fill="none"><mask id="maskSivxrv2q71okr"><rect x="35" width="35" height="70" rx="0" ry="0" fill="#fff"/></mask></defs><g class="content"><g class="base"><g fill="none" class="main-fill"><path class="main-fill" d="M34.298 32.885v-8.139h-6.781l-9.492 8.139v1.355h14.917zM32.942 35.712h-8.137v6.779l8.137 9.494h1.356V37.066zM37.038 34.241h8.137v-6.78l-8.137-9.494h-1.356v14.918zM35.654 37.066v8.138h6.78l9.493-8.138v-1.354H37.009z"/></g></g><g class="masked" mask="url('#maskSivxrv2q71okr')"><g fill="none" class="main-fill--darken"><path class="main-fill--darken" d="M34.298 32.885v-8.139h-6.781l-9.492 8.139v1.355h14.917zM32.942 35.712h-8.137v6.779l8.137 9.494h1.356V37.066zM37.038 34.241h8.137v-6.78l-8.137-9.494h-1.356v14.918zM35.654 37.066v8.138h6.78l9.493-8.138v-1.354H37.009z"/></g></g></g><style>.main-fill{fill:#3fadb4}.main-fill--darken{fill:#2b777b}</style></svg>