<svg xmlns="http://www.w3.org/2000/svg" height="512pt" viewBox="0 0 512 512" width="512pt"><path d="M512 256c0 141.387-114.613 256-256 256S0 397.387 0 256 114.613 0 256 0s256 114.613 256 256zm0 0" fill="#ffe955"/><path d="M512 256c0 26.05-3.89 51.191-11.129 74.871a252.19 252.19 0 0 1-8.5 23.578 251.489 251.489 0 0 1-11.25 23.531 247.653 247.653 0 0 1-11.07 18.47 255.753 255.753 0 0 1-17.98 24.14c-.583.691-1.16 1.379-1.75 2.058a256.979 256.979 0 0 1-21.5 22.204C383.288 486.559 322.608 512 256 512c-66.61 0-127.29-25.441-172.809-67.148A253.981 253.981 0 0 1 65.13 426.57a205.588 205.588 0 0 1-3.438-3.922c-.59-.687-1.18-1.378-1.75-2.07a252.322 252.322 0 0 1-17.992-24.137 253.06 253.06 0 0 1-11.058-18.46 246.874 246.874 0 0 1-11.262-23.532A253.24 253.24 0 0 1 4.07 301.68 256.665 256.665 0 0 1 0 256c0-46.219 12.25-89.57 33.68-127a257.13 257.13 0 0 0 63.851 74.05c27.278 21.552 59.059 37.65 93.68 46.68C211.91 255.13 233.62 258 256 258c95.16 0 178.21-51.93 222.32-129C499.75 166.43 512 209.781 512 256zm0 0" fill="#ffd112"/><path d="M481.262 377.7a256.996 256.996 0 0 1-18.422 29.16c-2.05 2.8-4.149 5.562-6.3 8.269C409.64 474.149 337.237 512 256 512c-81.238 0-153.64-37.852-200.54-96.871a261.855 261.855 0 0 1-6.3-8.27 256.996 256.996 0 0 1-18.422-29.16zm0 0" fill="#eb7722"/><path d="M416.309 281.758l14.273-8.274 3.18-13.726 13.492 4.062 19.402-11.246 3.18-13.726 13.488 4.062 14.274-8.273c-15.598-13.41-38.575-16.207-57.38-5.305-18.8 10.898-27.792 32.223-23.91 52.426zm0 0" fill="#00a042"/><path d="M414.988 279.16l14.176 6.797 12.516-4.867 4.039 12.805 19.273 9.242 12.516-4.867 4.043 12.804 14.176 6.797c2.183-19.48-7.95-39.07-26.625-48.027-18.672-8.953-40.293-4.586-54.114 9.316zm0 0" fill="#6cdc2d"/><path d="M416.828 279.23l-14.293-8.285-3.183-13.746-13.512 4.07-19.434-11.265-3.183-13.746-13.508 4.066-14.297-8.285c15.625-13.43 38.637-16.23 57.469-5.312 18.828 10.914 27.832 32.273 23.941 52.503zm0 0" fill="#6cdc2d"/><path d="M418.934 279.16l-14.176 6.797-12.516-4.867-4.043 12.805-19.273 9.242-12.512-4.867-4.043 12.804-14.176 6.797c-2.187-19.48 7.946-39.07 26.621-48.027 18.676-8.953 40.293-4.586 54.118 9.316zm0 0" fill="#00a042"/><path d="M426.438 383.172h-20.301c.086-3.774.191-7.45.304-11.027.024-.668.043-1.329.067-1.989.086-2.52.176-4.996.27-7.418a1125.181 1125.181 0 0 1 .39-9.414c.031-.664.066-1.332.094-1.988a1335.976 1335.976 0 0 1 .488-9.41 1198.98 1198.98 0 0 1 .563-9.414c.164-2.547.332-5.024.503-7.422.051-.672.102-1.332.145-1.988a1399.315 1399.315 0 0 1 .75-9.414c.219-2.575.441-5.047.668-7.422.058-.672.125-1.332.187-1.989.254-2.593.508-5.066.762-7.425.074-.668.145-1.336.219-1.989.293-2.629.582-5.101.875-7.422.078-.68.164-1.343.246-1.988.344-2.691.684-5.164 1.012-7.426.093-.683.191-1.343.285-1.988 1.805-12.101 3.187-17.508 3.187-17.508.95 5.805 1.801 11.66 2.567 17.508.086.664.176 1.328.254 1.988.316 2.48.62 4.961.906 7.426.078.664.152 1.328.226 1.988.286 2.489.547 4.965.801 7.422.07.668.133 1.328.2 1.989.253 2.496.488 4.968.71 7.425.059.664.114 1.328.172 1.989.223 2.504.43 4.976.617 7.421.055.668.106 1.333.157 1.989.191 2.515.37 4.988.535 7.426.047.664.09 1.328.133 1.988.164 2.523.32 5.004.457 7.422.043.668.078 1.332.117 1.988.137 2.547.262 5.02.383 7.426.027.672.062 1.332.093 1.988.114 2.566.22 5.043.305 7.422.031.672.059 1.332.078 1.988.094 2.613.172 5.094.239 7.426.023.676.039 1.336.058 1.988.07 2.703.125 5.188.164 7.418.012.688.024 1.352.031 1.989.11 6.984.082 11.027.082 11.027zm0 0" fill="#ff9f00"/><path d="M426.438 383.172h-9.286V258.535c.95 5.805 1.805 11.66 2.57 17.512.083.66.173 1.324.25 1.988a564.64 564.64 0 0 1 1.133 9.41c.286 2.493.547 4.965.801 7.426.07.664.133 1.324.2 1.988.253 2.493.488 4.97.71 7.422.063.668.114 1.328.176 1.989.219 2.503.426 4.98.613 7.425.055.664.106 1.332.157 1.989.191 2.511.37 4.988.535 7.421.047.668.09 1.329.137 1.989.164 2.523.316 5.004.457 7.426.039.664.074 1.332.113 1.988.137 2.543.262 5.015.383 7.422.027.672.062 1.332.093 1.988.114 2.57.22 5.043.31 7.426.026.668.054 1.332.073 1.984.094 2.617.172 5.094.239 7.426.023.676.039 1.336.058 1.988.07 2.703.125 5.188.164 7.418.012.688.028 1.352.031 1.988.11 6.98.082 11.024.082 11.024zm0 0" fill="#eb7722"/><path d="M419.977 278.035h-6.297c.093-.687.191-1.348.289-1.988h5.754c.082.66.172 1.324.254 1.988zm0 0M421.11 287.445h-8.688c.078-.68.164-1.34.25-1.988h8.207c.082.668.152 1.328.23 1.988zm0 0M422.105 296.855h-10.777c.074-.668.145-1.335.219-1.988h10.36c.07.668.136 1.328.198 1.988zm0 0M422.992 306.27H410.38c.058-.672.125-1.332.187-1.989h12.25c.063.664.114 1.328.176 1.989zm0 0M423.762 315.68H409.55c.054-.672.11-1.332.164-1.989h13.894l.153 1.989zm0 0M424.434 325.09H408.82c.047-.668.098-1.332.145-1.988h15.332c.047.668.09 1.328.137 1.988zm0 0M425.004 334.504h-16.817c.04-.668.086-1.332.125-1.988h16.579c.039.664.074 1.332.113 1.988zm0 0M425.48 343.914h-17.84c.036-.672.07-1.332.11-1.988h17.637c.027.672.062 1.332.093 1.988zm0 0M425.863 353.324h-18.695c.031-.664.066-1.332.094-1.984h18.527c.027.668.055 1.332.074 1.984zm0 0M426.16 362.738h-19.383c.024-.668.051-1.328.075-1.988h19.25c.023.676.039 1.336.058 1.988zm0 0M426.355 372.145h-19.91c.02-.668.04-1.329.063-1.989h19.816c.012.688.028 1.352.031 1.989zm0 0" fill="#a63914"/><path d="M272.105 179.883l-14.832.246c-40.078.672-74.484 24.187-90.898 58.016-1.613 3.32.766 7.187 4.457 7.187 1.54 0 3.008-.7 3.934-1.934 11.824-15.734 30.511-26.03 51.68-26.386l51.1-.856c19.43 0 36.638 9.485 47.263 24.063 1.828 2.511 5.753 1.226 5.753-1.88 0-32.284-26.171-58.456-58.457-58.456zm0 0" fill="#d0f6ff"/><path d="M280.172 180.05v.31c-57.55 3.3-80.184 33.73-88.961 69.37-4.73 19.149-5.461 39.81-5.461 58.57 0 48.9 33.21 92.141 84.031 118.27H65.13a205.588 205.588 0 0 1-3.438-3.922c-.59-.687-1.18-1.378-1.75-2.07a251.836 251.836 0 0 1-17.78-23.828c-.071-.102-.141-.21-.212-.309a253.06 253.06 0 0 1-11.058-18.46 246.874 246.874 0 0 1-11.262-23.532A253.24 253.24 0 0 1 4.07 301.68c11.41-41.519 45.989-76.898 93.461-98.628 31.848-14.57 69.5-23 109.84-23zm0 0" fill="#d0f6ff"/><path d="M185.762 305.422c0 .95-.012 1.906-.012 2.879 0 48.898 33.21 92.14 84.031 118.27H65.13a205.588 205.588 0 0 1-3.438-3.923c-.59-.687-1.18-1.378-1.75-2.07a251.836 251.836 0 0 1-17.78-23.828l-.731-65.672c.48-80.86 87.449-146.797 196.742-150.84h42v.121c-8.172.47-15.633 1.48-22.453 2.98-41.25 9.06-58.98 35.81-66.508 66.391-4.492 18.18-5.383 37.711-5.45 55.692zm0 0" fill="#84c3f7"/><path d="M185.762 305.422c0 .95-.012 1.906-.012 2.879 0 48.898 33.21 92.14 84.031 118.27h-185.3l-1.051-95.493c.468-78.59 82.629-143.09 187.59-150.348a90.39 90.39 0 0 0-13.301 2.61c-41.25 9.058-58.98 35.808-66.508 66.39-4.492 18.18-5.383 37.711-5.45 55.692zm0 0M280.172 180.238c-3.07.114-6.121.282-9.152.492 2.84-.332 5.14-.46 6.718-.492 1.563-.039 2.434 0 2.434 0zm0 0" fill="#65b2ff"/><path d="M462.84 406.86c-2.05 2.8-4.149 5.562-6.3 8.269C409.64 474.149 337.237 512 256 512c-81.238 0-153.64-37.852-200.54-96.871a261.855 261.855 0 0 1-6.3-8.27c5.29-2.18 11.692-3.718 20.7-3.718 31.019 0 31.019 18.199 62.038 18.199 31.032 0 31.032-18.2 62.051-18.2 31.02 0 31.02 18.2 62.04 18.2 31.023 0 31.023-18.2 62.05-18.2 31.02 0 31.02 18.2 62.04 18.2 31.03 0 31.03-18.2 62.05-18.2 9.02 0 15.41 1.54 20.71 3.72zm0 0" fill="#d0f6ff"/><path d="M438.07 435.941a257.594 257.594 0 0 1-41.742 34.2 255.876 255.876 0 0 1-34.738 19.129C329.398 503.87 293.648 512 256 512c-37.648 0-73.41-8.129-105.602-22.738a254.192 254.192 0 0 1-34.058-18.684 257.509 257.509 0 0 1-42.418-34.637c27.02 1.52 28.379 18.11 57.976 18.11 31.032 0 31.032-18.223 62.051-18.223 31.02 0 31.02 18.223 62.04 18.223 31.023 0 31.023-18.223 62.05-18.223 31.02 0 31.02 18.223 62.04 18.223 29.612 0 30.972-16.59 57.991-18.11zm0 0" fill="#65b2ff"/><path d="M361.59 489.27C329.398 503.87 293.648 512 256 512c-37.648 0-73.41-8.129-105.602-22.738 14.493-5.133 20.332-15.352 43.551-15.352 31.02 0 31.02 18.23 62.04 18.23 31.023 0 31.023-18.23 62.05-18.23 23.23 0 29.063 10.219 43.55 15.36zm0 0" fill="#0f9be8"/><path d="M101.559 111.832l-1.864-1.984c.903-13.157 11.86-23.547 25.243-23.547 2.8 0 5.496.46 8.015 1.304.793.262 1.68-.043 2.117-.753 5.785-9.356 16.13-15.594 27.938-15.594 15.465 0 28.426 10.695 31.898 25.094.211.87 1.035 1.43 1.926 1.378.348-.02.7-.03 1.05-.03 7.77 0 14.415 4.8 17.141 11.597.485 1.21-.421 2.535-1.73 2.535zm0 0" fill="#fff"/><path d="M126.3 111.832c-.777-.91-1.058-1.238-1.835-2.152.984-7.078 7.062-12.528 14.41-12.528 1.414 0 2.781.203 4.074.582A1.827 1.827 0 0 0 145 97c3.375-5.117 9.176-8.5 15.766-8.5 8.687 0 16 5.871 18.195 13.86.226.824.992 1.347 1.844 1.347h.015c3.961 0 7.414 2.172 9.239 5.387.695 1.222-.227 2.738-1.63 2.738zm0 0" fill="#d0f6ff"/><path d="M325.559 119.832l-1.864-1.984c.903-13.157 11.86-23.547 25.243-23.547 2.8 0 5.496.46 8.015 1.304.793.262 1.68-.043 2.117-.753 5.785-9.356 16.13-15.594 27.938-15.594 15.465 0 28.426 10.695 31.898 25.094.211.87 1.035 1.43 1.926 1.378.348-.02.7-.03 1.05-.03 7.77 0 14.415 4.8 17.141 11.597.485 1.21-.421 2.535-1.73 2.535zm0 0" fill="#fff"/><path d="M350.3 119.832c-.777-.91-1.058-1.238-1.835-2.152.984-7.078 7.062-12.528 14.41-12.528 1.414 0 2.781.203 4.074.582A1.827 1.827 0 0 0 369 105c3.375-5.117 9.176-8.5 15.766-8.5 8.687 0 16 5.871 18.195 13.86.226.824.992 1.347 1.844 1.347h.015a10.62 10.62 0 0 1 9.243 5.387c.69 1.222-.231 2.738-1.633 2.738zm0 0" fill="#d0f6ff"/></svg>