<svg height="466pt" viewBox="0 -5 466.1 466" width="466pt" xmlns="http://www.w3.org/2000/svg"><g fill="#92d7e7"><path d="M378.102 319.594h-228c-19.602 0-35.5-15.903-35.5-35.5 0-19.602 15.898-35.5 35.5-35.5 19.597 0 35.5 15.898 35.5 35.5v4h-15v-4c0-11.301-9.204-20.5-20.5-20.5-11.301 0-20.5 9.199-20.5 20.5 0 11.297 9.199 20.5 20.5 20.5h228zm0 0M178.102 352.594h168v15h-168zm0 0M150.102 455.594c-19.602 0-35.5-15.903-35.5-35.5 0-19.602 15.898-35.5 35.5-35.5h132v15h-132c-11.301 0-20.5 9.199-20.5 20.5 0 11.297 9.199 20.5 20.5 20.5 11.296 0 20.5-9.203 20.5-20.5v-4h15v4c0 19.597-15.903 35.5-35.5 35.5zm0 0"/></g><path d="M362.102 360.094h16c35.296 0 64 28.699 64 64v16h-16c-35.301 0-64-28.703-64-64zm0 0" fill="#f4bb3a"/><path d="M250.102 296.094v16c0 35.297-28.704 64-64 64h-16v-16c0-35.301 28.699-64 64-64zm0 0" fill="#ed7c31"/><path d="M450.102 104.094c8.796 0 16-7.203 16-16 0-8.801-7.204-16-16-16-.403 0-.801.097-1.204.097.704-2.597 1.102-5.398 1.204-8.097.199-17.403-13.704-31.801-31.102-32-3.2 0-6.398.398-9.5 1.297-3.602-21.7-24.102-36.399-45.8-32.797-16.802 2.797-30 16-32.802 32.797-16.699-5-34.296 4.5-39.296 21.203a31.887 31.887 0 0 0-.204 17.597c-.398 0-.796-.097-1.199-.097-8.8 0-16 7.199-16 16 0 8.797 7.2 16 16 16zm0 0M283.7 184.094c16.902.898 31.402-12 32.402-29-1-16.903-15.5-29.903-32.403-29-5.699 0-11.3 1.398-16.398 4.097C264 106.293 243 88.793 218.898 89.891c0-32-29-57.899-64.796-57.899-35.801 0-64.801 25.899-64.801 57.899v.601c-21 2.301-37.7 18.7-40.403 39.602a35.024 35.024 0 0 0-16.5-4.102c-16.898-.898-31.398 12-32.398 29 1 16.899 15.5 29.899 32.398 29H283.7zm0 0" fill="#e6e6e6"/><path d="M162.102 367.594h-100c-19.602 0-35.5-15.903-35.5-35.5 0-19.602 15.898-35.5 35.5-35.5 19.597 0 35.5 15.898 35.5 35.5v4h-15v-4c0-11.301-9.204-20.5-20.5-20.5-11.301 0-20.5 9.199-20.5 20.5 0 11.297 9.199 20.5 20.5 20.5h100zm0 0" fill="#92d7e7"/></svg>